G04 #@! TF.GenerationSoftware,KiCad,Pcbnew,(5.0.1)-3*
G04 #@! TF.CreationDate,2018-12-25T20:41:25+01:00*
G04 #@! TF.ProjectId,iLight,694C696768742E6B696361645F706362,rev?*
G04 #@! TF.SameCoordinates,Original*
G04 #@! TF.FileFunction,Copper,L2,Bot,Signal*
G04 #@! TF.FilePolarity,Positive*
%FSLAX46Y46*%
G04 Gerber Fmt 4.6, Leading zero omitted, Abs format (unit mm)*
G04 Created by KiCad (PCBNEW (5.0.1)-3) date 25/12/2018 20:41:25*
%MOMM*%
%LPD*%
G01*
G04 APERTURE LIST*
G04 #@! TA.AperFunction,ComponentPad*
%ADD10O,1.700000X1.700000*%
G04 #@! TD*
G04 #@! TA.AperFunction,ComponentPad*
%ADD11R,1.700000X1.700000*%
G04 #@! TD*
G04 #@! TA.AperFunction,ComponentPad*
%ADD12C,2.000000*%
G04 #@! TD*
G04 #@! TA.AperFunction,ComponentPad*
%ADD13R,2.000000X2.000000*%
G04 #@! TD*
G04 #@! TA.AperFunction,ComponentPad*
%ADD14O,1.800000X1.800000*%
G04 #@! TD*
G04 #@! TA.AperFunction,ComponentPad*
%ADD15R,1.800000X1.800000*%
G04 #@! TD*
G04 #@! TA.AperFunction,ViaPad*
%ADD16C,0.800000*%
G04 #@! TD*
G04 #@! TA.AperFunction,Conductor*
%ADD17C,0.762000*%
G04 #@! TD*
G04 #@! TA.AperFunction,Conductor*
%ADD18C,0.406400*%
G04 #@! TD*
G04 #@! TA.AperFunction,Conductor*
%ADD19C,0.304800*%
G04 #@! TD*
G04 #@! TA.AperFunction,Conductor*
%ADD20C,0.254000*%
G04 #@! TD*
G04 APERTURE END LIST*
D10*
G04 #@! TO.P,PROG1,4*
G04 #@! TO.N,/RXP*
X204470000Y-120650000D03*
G04 #@! TO.P,PROG1,3*
G04 #@! TO.N,/TXP*
X204470000Y-118110000D03*
G04 #@! TO.P,PROG1,2*
G04 #@! TO.N,/RST*
X204470000Y-115570000D03*
D11*
G04 #@! TO.P,PROG1,1*
G04 #@! TO.N,GNDD*
X204470000Y-113030000D03*
G04 #@! TD*
D10*
G04 #@! TO.P,P/W1,6*
G04 #@! TO.N,/RXP*
X195580000Y-119380000D03*
G04 #@! TO.P,P/W1,5*
G04 #@! TO.N,/TXP*
X193040000Y-119380000D03*
G04 #@! TO.P,P/W1,4*
G04 #@! TO.N,/RX*
X195580000Y-116840000D03*
G04 #@! TO.P,P/W1,3*
G04 #@! TO.N,/TX*
X193040000Y-116840000D03*
G04 #@! TO.P,P/W1,2*
G04 #@! TO.N,/RXW*
X195580000Y-114300000D03*
D11*
G04 #@! TO.P,P/W1,1*
G04 #@! TO.N,/TXW*
X193040000Y-114300000D03*
G04 #@! TD*
D10*
G04 #@! TO.P,ALIM1,2*
G04 #@! TO.N,+5V*
X185420000Y-96520000D03*
D11*
G04 #@! TO.P,ALIM1,1*
G04 #@! TO.N,GNDD*
X182880000Y-96520000D03*
G04 #@! TD*
D12*
G04 #@! TO.P,C1,2*
G04 #@! TO.N,GNDD*
X196850000Y-101680000D03*
D13*
G04 #@! TO.P,C1,1*
G04 #@! TO.N,+5V*
X196850000Y-106680000D03*
G04 #@! TD*
D11*
G04 #@! TO.P,LAMP,1*
G04 #@! TO.N,Net-(J4-Pad1)*
X208280000Y-96520000D03*
D10*
G04 #@! TO.P,LAMP,2*
G04 #@! TO.N,+5V*
X210820000Y-96520000D03*
G04 #@! TD*
D11*
G04 #@! TO.P,LED,1*
G04 #@! TO.N,Net-(J5-Pad1)*
X193040000Y-96520000D03*
D10*
G04 #@! TO.P,LED,2*
G04 #@! TO.N,+5V*
X195580000Y-96520000D03*
G04 #@! TO.P,LED,3*
G04 #@! TO.N,DATA*
X198120000Y-96520000D03*
G04 #@! TO.P,LED,4*
G04 #@! TO.N,GNDD*
X200660000Y-96520000D03*
G04 #@! TD*
D14*
G04 #@! TO.P,Q1,3*
G04 #@! TO.N,GNDD*
X186690000Y-102870000D03*
G04 #@! TO.P,Q1,2*
G04 #@! TO.N,Net-(J4-Pad1)*
X186690000Y-105410000D03*
D15*
G04 #@! TO.P,Q1,1*
G04 #@! TO.N,Net-(Q1-Pad1)*
X186690000Y-107950000D03*
G04 #@! TD*
D16*
G04 #@! TO.N,GNDD*
X190881000Y-100899000D03*
X185166000Y-129667000D03*
X177419000Y-113284000D03*
G04 #@! TO.N,+5V*
X180467000Y-116713000D03*
X180129000Y-111887000D03*
X184658000Y-120142000D03*
G04 #@! TO.N,Net-(C4-Pad2)*
X173720000Y-113350000D03*
X168783000Y-114239000D03*
G04 #@! TO.N,/RST*
X182329000Y-111887000D03*
G04 #@! TO.N,/RX*
X183388000Y-115951000D03*
G04 #@! TO.N,/TX*
X180848000Y-115062000D03*
G04 #@! TO.N,DATA*
X180594000Y-120396000D03*
X201676000Y-105664000D03*
G04 #@! TD*
D17*
G04 #@! TO.N,GNDD*
X187880000Y-101680000D02*
X186690000Y-102870000D01*
X182880000Y-99060000D02*
X186690000Y-102870000D01*
X182880000Y-96520000D02*
X182880000Y-99060000D01*
X190881000Y-101680000D02*
X190881000Y-100899000D01*
X190881000Y-101680000D02*
X187880000Y-101680000D01*
X196850000Y-101680000D02*
X190881000Y-101680000D01*
X181610000Y-99060000D02*
X182880000Y-99060000D01*
X177419000Y-103251000D02*
X181610000Y-99060000D01*
X185166000Y-129667000D02*
X182499000Y-129667000D01*
X182499000Y-129667000D02*
X177419000Y-124587000D01*
X177419000Y-124587000D02*
X177419000Y-113284000D01*
X177419000Y-113284000D02*
X177419000Y-103251000D01*
G04 #@! TO.N,Net-(J4-Pad1)*
X187589999Y-104510001D02*
X204353999Y-104510001D01*
X186690000Y-105410000D02*
X187589999Y-104510001D01*
X208280000Y-100584000D02*
X208280000Y-96520000D01*
X204353999Y-104510001D02*
X208280000Y-100584000D01*
D18*
G04 #@! TO.N,+5V*
X180044799Y-111971201D02*
X180129000Y-111887000D01*
X180044799Y-116290799D02*
X180044799Y-111971201D01*
X180467000Y-116713000D02*
X180044799Y-116290799D01*
X180467000Y-116713000D02*
X183896000Y-120142000D01*
X183896000Y-120142000D02*
X184658000Y-120142000D01*
D19*
G04 #@! TO.N,Net-(C4-Pad2)*
X173720000Y-113350000D02*
X169672000Y-113350000D01*
X169672000Y-113350000D02*
X168783000Y-114239000D01*
G04 #@! TO.N,/RST*
X204470000Y-115570000D02*
X202819000Y-115570000D01*
X202819000Y-115570000D02*
X197485000Y-110236000D01*
X197485000Y-110236000D02*
X183980000Y-110236000D01*
X183980000Y-110236000D02*
X182329000Y-111887000D01*
G04 #@! TO.N,/RXP*
X196850000Y-120650000D02*
X195580000Y-119380000D01*
X204470000Y-120650000D02*
X196850000Y-120650000D01*
G04 #@! TO.N,/TXP*
X194310000Y-118110000D02*
X193040000Y-119380000D01*
X204470000Y-118110000D02*
X194310000Y-118110000D01*
G04 #@! TO.N,/RX*
X194310000Y-115570000D02*
X195580000Y-116840000D01*
X192532000Y-115570000D02*
X194310000Y-115570000D01*
X183388000Y-115951000D02*
X192151000Y-115951000D01*
X192151000Y-115951000D02*
X192532000Y-115570000D01*
G04 #@! TO.N,/TX*
X193040000Y-116840000D02*
X182118000Y-116840000D01*
X182118000Y-116840000D02*
X180848000Y-115570000D01*
X180848000Y-115570000D02*
X180848000Y-115062000D01*
D18*
G04 #@! TO.N,DATA*
X180594000Y-120396000D02*
X178689000Y-118491000D01*
X178689000Y-112138262D02*
X181226262Y-109601000D01*
X178689000Y-118491000D02*
X178689000Y-112138262D01*
X181226262Y-109601000D02*
X199771000Y-109601000D01*
X199771000Y-109601000D02*
X201676000Y-107696000D01*
X201676000Y-107696000D02*
X201676000Y-105664000D01*
G04 #@! TD*
D20*
G04 #@! TO.N,GNDD*
G36*
X181395000Y-95543691D02*
X181395000Y-96234250D01*
X181553750Y-96393000D01*
X182753000Y-96393000D01*
X182753000Y-96373000D01*
X183007000Y-96373000D01*
X183007000Y-96393000D01*
X183027000Y-96393000D01*
X183027000Y-96647000D01*
X183007000Y-96647000D01*
X183007000Y-97846250D01*
X183165750Y-98005000D01*
X183856310Y-98005000D01*
X184089699Y-97908327D01*
X184268327Y-97729698D01*
X184334904Y-97568967D01*
X184349375Y-97590625D01*
X184840582Y-97918839D01*
X185273744Y-98005000D01*
X185566256Y-98005000D01*
X185999418Y-97918839D01*
X186490625Y-97590625D01*
X186818839Y-97099418D01*
X186934092Y-96520000D01*
X186818839Y-95940582D01*
X186490625Y-95449375D01*
X186382308Y-95377000D01*
X191622068Y-95377000D01*
X191591843Y-95422235D01*
X191542560Y-95670000D01*
X191542560Y-97370000D01*
X191591843Y-97617765D01*
X191732191Y-97827809D01*
X191942235Y-97968157D01*
X192190000Y-98017440D01*
X193890000Y-98017440D01*
X194137765Y-97968157D01*
X194347809Y-97827809D01*
X194488157Y-97617765D01*
X194497184Y-97572381D01*
X194509375Y-97590625D01*
X195000582Y-97918839D01*
X195433744Y-98005000D01*
X195726256Y-98005000D01*
X196159418Y-97918839D01*
X196650625Y-97590625D01*
X196850000Y-97292239D01*
X197049375Y-97590625D01*
X197540582Y-97918839D01*
X197973744Y-98005000D01*
X198266256Y-98005000D01*
X198699418Y-97918839D01*
X199190625Y-97590625D01*
X199403843Y-97271522D01*
X199464817Y-97401358D01*
X199893076Y-97791645D01*
X200303110Y-97961476D01*
X200533000Y-97840155D01*
X200533000Y-96647000D01*
X200787000Y-96647000D01*
X200787000Y-97840155D01*
X201016890Y-97961476D01*
X201426924Y-97791645D01*
X201855183Y-97401358D01*
X202101486Y-96876892D01*
X201980819Y-96647000D01*
X200787000Y-96647000D01*
X200533000Y-96647000D01*
X200513000Y-96647000D01*
X200513000Y-96393000D01*
X200533000Y-96393000D01*
X200533000Y-96373000D01*
X200787000Y-96373000D01*
X200787000Y-96393000D01*
X201980819Y-96393000D01*
X202101486Y-96163108D01*
X201855183Y-95638642D01*
X201568085Y-95377000D01*
X206862068Y-95377000D01*
X206831843Y-95422235D01*
X206782560Y-95670000D01*
X206782560Y-97370000D01*
X206831843Y-97617765D01*
X206972191Y-97827809D01*
X207182235Y-97968157D01*
X207264001Y-97984421D01*
X207264000Y-100163159D01*
X203933159Y-103494001D01*
X188060174Y-103494001D01*
X188181046Y-103234742D01*
X188060997Y-102997000D01*
X186817000Y-102997000D01*
X186817000Y-103017000D01*
X186563000Y-103017000D01*
X186563000Y-102997000D01*
X185319003Y-102997000D01*
X185198954Y-103234742D01*
X185452034Y-103777576D01*
X185839174Y-104132376D01*
X185583327Y-104303327D01*
X185244062Y-104811073D01*
X185124928Y-105410000D01*
X185244062Y-106008927D01*
X185540696Y-106452871D01*
X185332191Y-106592191D01*
X185191843Y-106802235D01*
X185142560Y-107050000D01*
X185142560Y-108762800D01*
X181308810Y-108762800D01*
X181226261Y-108746380D01*
X181143712Y-108762800D01*
X181143708Y-108762800D01*
X180899213Y-108811433D01*
X180899211Y-108811434D01*
X180899212Y-108811434D01*
X180691939Y-108949929D01*
X180691938Y-108949930D01*
X180621954Y-108996692D01*
X180575192Y-109066676D01*
X178154677Y-111487192D01*
X178084693Y-111533954D01*
X178037931Y-111603938D01*
X178037929Y-111603940D01*
X177899434Y-111811213D01*
X177834380Y-112138262D01*
X177850801Y-112220816D01*
X177850800Y-118408451D01*
X177834380Y-118491000D01*
X177850800Y-118573549D01*
X177850800Y-118573553D01*
X177899433Y-118818048D01*
X178084692Y-119095308D01*
X178154679Y-119142072D01*
X179559000Y-120546394D01*
X179559000Y-120601874D01*
X179716569Y-120982280D01*
X180007720Y-121273431D01*
X180388126Y-121431000D01*
X180799874Y-121431000D01*
X181180280Y-121273431D01*
X181471431Y-120982280D01*
X181629000Y-120601874D01*
X181629000Y-120190126D01*
X181471431Y-119809720D01*
X181180280Y-119518569D01*
X180799874Y-119361000D01*
X180744394Y-119361000D01*
X179527200Y-118143807D01*
X179527200Y-117148708D01*
X179589569Y-117299280D01*
X179880720Y-117590431D01*
X180261126Y-117748000D01*
X180316607Y-117748000D01*
X183244930Y-120676324D01*
X183291692Y-120746308D01*
X183361676Y-120793070D01*
X183361677Y-120793071D01*
X183469327Y-120865000D01*
X183568951Y-120931567D01*
X183813446Y-120980200D01*
X183813450Y-120980200D01*
X183895999Y-120996620D01*
X183978548Y-120980200D01*
X184032489Y-120980200D01*
X184071720Y-121019431D01*
X184452126Y-121177000D01*
X184863874Y-121177000D01*
X185244280Y-121019431D01*
X185535431Y-120728280D01*
X185693000Y-120347874D01*
X185693000Y-119936126D01*
X185535431Y-119555720D01*
X185244280Y-119264569D01*
X184863874Y-119107000D01*
X184452126Y-119107000D01*
X184165230Y-119225836D01*
X182566793Y-117627400D01*
X191780130Y-117627400D01*
X191969375Y-117910625D01*
X192267761Y-118110000D01*
X191969375Y-118309375D01*
X191641161Y-118800582D01*
X191525908Y-119380000D01*
X191641161Y-119959418D01*
X191969375Y-120450625D01*
X192460582Y-120778839D01*
X192893744Y-120865000D01*
X193186256Y-120865000D01*
X193619418Y-120778839D01*
X194110625Y-120450625D01*
X194310000Y-120152239D01*
X194509375Y-120450625D01*
X195000582Y-120778839D01*
X195433744Y-120865000D01*
X195726256Y-120865000D01*
X195914087Y-120827638D01*
X196238386Y-121151938D01*
X196282316Y-121217684D01*
X196542772Y-121391715D01*
X196772448Y-121437400D01*
X196849999Y-121452826D01*
X196927550Y-121437400D01*
X203210130Y-121437400D01*
X203399375Y-121720625D01*
X203890582Y-122048839D01*
X204323744Y-122135000D01*
X204616256Y-122135000D01*
X205049418Y-122048839D01*
X205540625Y-121720625D01*
X205868839Y-121229418D01*
X205984092Y-120650000D01*
X205868839Y-120070582D01*
X205540625Y-119579375D01*
X205242239Y-119380000D01*
X205540625Y-119180625D01*
X205868839Y-118689418D01*
X205984092Y-118110000D01*
X205868839Y-117530582D01*
X205540625Y-117039375D01*
X205242239Y-116840000D01*
X205540625Y-116640625D01*
X205868839Y-116149418D01*
X205984092Y-115570000D01*
X205868839Y-114990582D01*
X205540625Y-114499375D01*
X205518967Y-114484904D01*
X205679698Y-114418327D01*
X205858327Y-114239699D01*
X205955000Y-114006310D01*
X205955000Y-113315750D01*
X205796250Y-113157000D01*
X204597000Y-113157000D01*
X204597000Y-113177000D01*
X204343000Y-113177000D01*
X204343000Y-113157000D01*
X203143750Y-113157000D01*
X202985000Y-113315750D01*
X202985000Y-114006310D01*
X203081673Y-114239699D01*
X203260302Y-114418327D01*
X203421033Y-114484904D01*
X203399375Y-114499375D01*
X203210130Y-114782600D01*
X203145152Y-114782600D01*
X200416242Y-112053690D01*
X202985000Y-112053690D01*
X202985000Y-112744250D01*
X203143750Y-112903000D01*
X204343000Y-112903000D01*
X204343000Y-111703750D01*
X204597000Y-111703750D01*
X204597000Y-112903000D01*
X205796250Y-112903000D01*
X205955000Y-112744250D01*
X205955000Y-112053690D01*
X205858327Y-111820301D01*
X205679698Y-111641673D01*
X205446309Y-111545000D01*
X204755750Y-111545000D01*
X204597000Y-111703750D01*
X204343000Y-111703750D01*
X204184250Y-111545000D01*
X203493691Y-111545000D01*
X203260302Y-111641673D01*
X203081673Y-111820301D01*
X202985000Y-112053690D01*
X200416242Y-112053690D01*
X198801751Y-110439200D01*
X199688451Y-110439200D01*
X199771000Y-110455620D01*
X199853549Y-110439200D01*
X199853554Y-110439200D01*
X200098049Y-110390567D01*
X200375308Y-110205308D01*
X200422072Y-110135321D01*
X202210325Y-108347069D01*
X202280308Y-108300308D01*
X202465567Y-108023049D01*
X202514200Y-107778554D01*
X202514200Y-107778549D01*
X202530620Y-107696000D01*
X202514200Y-107613451D01*
X202514200Y-106289511D01*
X202553431Y-106250280D01*
X202711000Y-105869874D01*
X202711000Y-105526001D01*
X204253936Y-105526001D01*
X204353999Y-105545905D01*
X204454062Y-105526001D01*
X204454064Y-105526001D01*
X204750422Y-105467052D01*
X205086494Y-105242496D01*
X205143179Y-105157661D01*
X208927664Y-101373177D01*
X209012495Y-101316495D01*
X209237051Y-100980423D01*
X209296000Y-100684065D01*
X209296000Y-100684064D01*
X209315904Y-100584000D01*
X209296000Y-100483937D01*
X209296000Y-97984421D01*
X209377765Y-97968157D01*
X209587809Y-97827809D01*
X209728157Y-97617765D01*
X209737184Y-97572381D01*
X209749375Y-97590625D01*
X210240582Y-97918839D01*
X210673744Y-98005000D01*
X210966256Y-98005000D01*
X211399418Y-97918839D01*
X211890625Y-97590625D01*
X211963000Y-97482308D01*
X211963000Y-124333000D01*
X205740000Y-124333000D01*
X205691399Y-124342667D01*
X205650197Y-124370197D01*
X205622667Y-124411399D01*
X205613000Y-124460000D01*
X205613000Y-143383000D01*
X166497000Y-143383000D01*
X166497000Y-114033126D01*
X167748000Y-114033126D01*
X167748000Y-114444874D01*
X167905569Y-114825280D01*
X168196720Y-115116431D01*
X168577126Y-115274000D01*
X168988874Y-115274000D01*
X169369280Y-115116431D01*
X169660431Y-114825280D01*
X169818000Y-114444874D01*
X169818000Y-114317552D01*
X169998152Y-114137400D01*
X173043689Y-114137400D01*
X173133720Y-114227431D01*
X173514126Y-114385000D01*
X173925874Y-114385000D01*
X174306280Y-114227431D01*
X174597431Y-113936280D01*
X174755000Y-113555874D01*
X174755000Y-113144126D01*
X174597431Y-112763720D01*
X174306280Y-112472569D01*
X173925874Y-112315000D01*
X173514126Y-112315000D01*
X173133720Y-112472569D01*
X173043689Y-112562600D01*
X169749551Y-112562600D01*
X169672000Y-112547174D01*
X169594449Y-112562600D01*
X169594448Y-112562600D01*
X169364772Y-112608285D01*
X169104316Y-112782316D01*
X169060386Y-112848062D01*
X168704448Y-113204000D01*
X168577126Y-113204000D01*
X168196720Y-113361569D01*
X167905569Y-113652720D01*
X167748000Y-114033126D01*
X166497000Y-114033126D01*
X166497000Y-105410000D01*
X167598276Y-105410000D01*
X167783380Y-106340580D01*
X168310511Y-107129489D01*
X169099420Y-107656620D01*
X169795103Y-107795000D01*
X170264897Y-107795000D01*
X170960580Y-107656620D01*
X171749489Y-107129489D01*
X172276620Y-106340580D01*
X172461724Y-105410000D01*
X172276620Y-104479420D01*
X171749489Y-103690511D01*
X170960580Y-103163380D01*
X170264897Y-103025000D01*
X169795103Y-103025000D01*
X169099420Y-103163380D01*
X168310511Y-103690511D01*
X167783380Y-104479420D01*
X167598276Y-105410000D01*
X166497000Y-105410000D01*
X166497000Y-102832532D01*
X195877073Y-102832532D01*
X195975736Y-103099387D01*
X196585461Y-103325908D01*
X197235460Y-103301856D01*
X197724264Y-103099387D01*
X197822927Y-102832532D01*
X196850000Y-101859605D01*
X195877073Y-102832532D01*
X166497000Y-102832532D01*
X166497000Y-102505258D01*
X185198954Y-102505258D01*
X185319003Y-102743000D01*
X186563000Y-102743000D01*
X186563000Y-101499622D01*
X186817000Y-101499622D01*
X186817000Y-102743000D01*
X188060997Y-102743000D01*
X188181046Y-102505258D01*
X187927966Y-101962424D01*
X187486417Y-101557760D01*
X187142857Y-101415461D01*
X195204092Y-101415461D01*
X195228144Y-102065460D01*
X195430613Y-102554264D01*
X195697468Y-102652927D01*
X196670395Y-101680000D01*
X197029605Y-101680000D01*
X198002532Y-102652927D01*
X198269387Y-102554264D01*
X198495908Y-101944539D01*
X198471856Y-101294540D01*
X198269387Y-100805736D01*
X198002532Y-100707073D01*
X197029605Y-101680000D01*
X196670395Y-101680000D01*
X195697468Y-100707073D01*
X195430613Y-100805736D01*
X195204092Y-101415461D01*
X187142857Y-101415461D01*
X187054740Y-101378964D01*
X186817000Y-101499622D01*
X186563000Y-101499622D01*
X186325260Y-101378964D01*
X185893583Y-101557760D01*
X185452034Y-101962424D01*
X185198954Y-102505258D01*
X166497000Y-102505258D01*
X166497000Y-100527468D01*
X195877073Y-100527468D01*
X196850000Y-101500395D01*
X197822927Y-100527468D01*
X197724264Y-100260613D01*
X197114539Y-100034092D01*
X196464540Y-100058144D01*
X195975736Y-100260613D01*
X195877073Y-100527468D01*
X166497000Y-100527468D01*
X166497000Y-96805750D01*
X181395000Y-96805750D01*
X181395000Y-97496309D01*
X181491673Y-97729698D01*
X181670301Y-97908327D01*
X181903690Y-98005000D01*
X182594250Y-98005000D01*
X182753000Y-97846250D01*
X182753000Y-96647000D01*
X181553750Y-96647000D01*
X181395000Y-96805750D01*
X166497000Y-96805750D01*
X166497000Y-95377000D01*
X181464046Y-95377000D01*
X181395000Y-95543691D01*
X181395000Y-95543691D01*
G37*
X181395000Y-95543691D02*
X181395000Y-96234250D01*
X181553750Y-96393000D01*
X182753000Y-96393000D01*
X182753000Y-96373000D01*
X183007000Y-96373000D01*
X183007000Y-96393000D01*
X183027000Y-96393000D01*
X183027000Y-96647000D01*
X183007000Y-96647000D01*
X183007000Y-97846250D01*
X183165750Y-98005000D01*
X183856310Y-98005000D01*
X184089699Y-97908327D01*
X184268327Y-97729698D01*
X184334904Y-97568967D01*
X184349375Y-97590625D01*
X184840582Y-97918839D01*
X185273744Y-98005000D01*
X185566256Y-98005000D01*
X185999418Y-97918839D01*
X186490625Y-97590625D01*
X186818839Y-97099418D01*
X186934092Y-96520000D01*
X186818839Y-95940582D01*
X186490625Y-95449375D01*
X186382308Y-95377000D01*
X191622068Y-95377000D01*
X191591843Y-95422235D01*
X191542560Y-95670000D01*
X191542560Y-97370000D01*
X191591843Y-97617765D01*
X191732191Y-97827809D01*
X191942235Y-97968157D01*
X192190000Y-98017440D01*
X193890000Y-98017440D01*
X194137765Y-97968157D01*
X194347809Y-97827809D01*
X194488157Y-97617765D01*
X194497184Y-97572381D01*
X194509375Y-97590625D01*
X195000582Y-97918839D01*
X195433744Y-98005000D01*
X195726256Y-98005000D01*
X196159418Y-97918839D01*
X196650625Y-97590625D01*
X196850000Y-97292239D01*
X197049375Y-97590625D01*
X197540582Y-97918839D01*
X197973744Y-98005000D01*
X198266256Y-98005000D01*
X198699418Y-97918839D01*
X199190625Y-97590625D01*
X199403843Y-97271522D01*
X199464817Y-97401358D01*
X199893076Y-97791645D01*
X200303110Y-97961476D01*
X200533000Y-97840155D01*
X200533000Y-96647000D01*
X200787000Y-96647000D01*
X200787000Y-97840155D01*
X201016890Y-97961476D01*
X201426924Y-97791645D01*
X201855183Y-97401358D01*
X202101486Y-96876892D01*
X201980819Y-96647000D01*
X200787000Y-96647000D01*
X200533000Y-96647000D01*
X200513000Y-96647000D01*
X200513000Y-96393000D01*
X200533000Y-96393000D01*
X200533000Y-96373000D01*
X200787000Y-96373000D01*
X200787000Y-96393000D01*
X201980819Y-96393000D01*
X202101486Y-96163108D01*
X201855183Y-95638642D01*
X201568085Y-95377000D01*
X206862068Y-95377000D01*
X206831843Y-95422235D01*
X206782560Y-95670000D01*
X206782560Y-97370000D01*
X206831843Y-97617765D01*
X206972191Y-97827809D01*
X207182235Y-97968157D01*
X207264001Y-97984421D01*
X207264000Y-100163159D01*
X203933159Y-103494001D01*
X188060174Y-103494001D01*
X188181046Y-103234742D01*
X188060997Y-102997000D01*
X186817000Y-102997000D01*
X186817000Y-103017000D01*
X186563000Y-103017000D01*
X186563000Y-102997000D01*
X185319003Y-102997000D01*
X185198954Y-103234742D01*
X185452034Y-103777576D01*
X185839174Y-104132376D01*
X185583327Y-104303327D01*
X185244062Y-104811073D01*
X185124928Y-105410000D01*
X185244062Y-106008927D01*
X185540696Y-106452871D01*
X185332191Y-106592191D01*
X185191843Y-106802235D01*
X185142560Y-107050000D01*
X185142560Y-108762800D01*
X181308810Y-108762800D01*
X181226261Y-108746380D01*
X181143712Y-108762800D01*
X181143708Y-108762800D01*
X180899213Y-108811433D01*
X180899211Y-108811434D01*
X180899212Y-108811434D01*
X180691939Y-108949929D01*
X180691938Y-108949930D01*
X180621954Y-108996692D01*
X180575192Y-109066676D01*
X178154677Y-111487192D01*
X178084693Y-111533954D01*
X178037931Y-111603938D01*
X178037929Y-111603940D01*
X177899434Y-111811213D01*
X177834380Y-112138262D01*
X177850801Y-112220816D01*
X177850800Y-118408451D01*
X177834380Y-118491000D01*
X177850800Y-118573549D01*
X177850800Y-118573553D01*
X177899433Y-118818048D01*
X178084692Y-119095308D01*
X178154679Y-119142072D01*
X179559000Y-120546394D01*
X179559000Y-120601874D01*
X179716569Y-120982280D01*
X180007720Y-121273431D01*
X180388126Y-121431000D01*
X180799874Y-121431000D01*
X181180280Y-121273431D01*
X181471431Y-120982280D01*
X181629000Y-120601874D01*
X181629000Y-120190126D01*
X181471431Y-119809720D01*
X181180280Y-119518569D01*
X180799874Y-119361000D01*
X180744394Y-119361000D01*
X179527200Y-118143807D01*
X179527200Y-117148708D01*
X179589569Y-117299280D01*
X179880720Y-117590431D01*
X180261126Y-117748000D01*
X180316607Y-117748000D01*
X183244930Y-120676324D01*
X183291692Y-120746308D01*
X183361676Y-120793070D01*
X183361677Y-120793071D01*
X183469327Y-120865000D01*
X183568951Y-120931567D01*
X183813446Y-120980200D01*
X183813450Y-120980200D01*
X183895999Y-120996620D01*
X183978548Y-120980200D01*
X184032489Y-120980200D01*
X184071720Y-121019431D01*
X184452126Y-121177000D01*
X184863874Y-121177000D01*
X185244280Y-121019431D01*
X185535431Y-120728280D01*
X185693000Y-120347874D01*
X185693000Y-119936126D01*
X185535431Y-119555720D01*
X185244280Y-119264569D01*
X184863874Y-119107000D01*
X184452126Y-119107000D01*
X184165230Y-119225836D01*
X182566793Y-117627400D01*
X191780130Y-117627400D01*
X191969375Y-117910625D01*
X192267761Y-118110000D01*
X191969375Y-118309375D01*
X191641161Y-118800582D01*
X191525908Y-119380000D01*
X191641161Y-119959418D01*
X191969375Y-120450625D01*
X192460582Y-120778839D01*
X192893744Y-120865000D01*
X193186256Y-120865000D01*
X193619418Y-120778839D01*
X194110625Y-120450625D01*
X194310000Y-120152239D01*
X194509375Y-120450625D01*
X195000582Y-120778839D01*
X195433744Y-120865000D01*
X195726256Y-120865000D01*
X195914087Y-120827638D01*
X196238386Y-121151938D01*
X196282316Y-121217684D01*
X196542772Y-121391715D01*
X196772448Y-121437400D01*
X196849999Y-121452826D01*
X196927550Y-121437400D01*
X203210130Y-121437400D01*
X203399375Y-121720625D01*
X203890582Y-122048839D01*
X204323744Y-122135000D01*
X204616256Y-122135000D01*
X205049418Y-122048839D01*
X205540625Y-121720625D01*
X205868839Y-121229418D01*
X205984092Y-120650000D01*
X205868839Y-120070582D01*
X205540625Y-119579375D01*
X205242239Y-119380000D01*
X205540625Y-119180625D01*
X205868839Y-118689418D01*
X205984092Y-118110000D01*
X205868839Y-117530582D01*
X205540625Y-117039375D01*
X205242239Y-116840000D01*
X205540625Y-116640625D01*
X205868839Y-116149418D01*
X205984092Y-115570000D01*
X205868839Y-114990582D01*
X205540625Y-114499375D01*
X205518967Y-114484904D01*
X205679698Y-114418327D01*
X205858327Y-114239699D01*
X205955000Y-114006310D01*
X205955000Y-113315750D01*
X205796250Y-113157000D01*
X204597000Y-113157000D01*
X204597000Y-113177000D01*
X204343000Y-113177000D01*
X204343000Y-113157000D01*
X203143750Y-113157000D01*
X202985000Y-113315750D01*
X202985000Y-114006310D01*
X203081673Y-114239699D01*
X203260302Y-114418327D01*
X203421033Y-114484904D01*
X203399375Y-114499375D01*
X203210130Y-114782600D01*
X203145152Y-114782600D01*
X200416242Y-112053690D01*
X202985000Y-112053690D01*
X202985000Y-112744250D01*
X203143750Y-112903000D01*
X204343000Y-112903000D01*
X204343000Y-111703750D01*
X204597000Y-111703750D01*
X204597000Y-112903000D01*
X205796250Y-112903000D01*
X205955000Y-112744250D01*
X205955000Y-112053690D01*
X205858327Y-111820301D01*
X205679698Y-111641673D01*
X205446309Y-111545000D01*
X204755750Y-111545000D01*
X204597000Y-111703750D01*
X204343000Y-111703750D01*
X204184250Y-111545000D01*
X203493691Y-111545000D01*
X203260302Y-111641673D01*
X203081673Y-111820301D01*
X202985000Y-112053690D01*
X200416242Y-112053690D01*
X198801751Y-110439200D01*
X199688451Y-110439200D01*
X199771000Y-110455620D01*
X199853549Y-110439200D01*
X199853554Y-110439200D01*
X200098049Y-110390567D01*
X200375308Y-110205308D01*
X200422072Y-110135321D01*
X202210325Y-108347069D01*
X202280308Y-108300308D01*
X202465567Y-108023049D01*
X202514200Y-107778554D01*
X202514200Y-107778549D01*
X202530620Y-107696000D01*
X202514200Y-107613451D01*
X202514200Y-106289511D01*
X202553431Y-106250280D01*
X202711000Y-105869874D01*
X202711000Y-105526001D01*
X204253936Y-105526001D01*
X204353999Y-105545905D01*
X204454062Y-105526001D01*
X204454064Y-105526001D01*
X204750422Y-105467052D01*
X205086494Y-105242496D01*
X205143179Y-105157661D01*
X208927664Y-101373177D01*
X209012495Y-101316495D01*
X209237051Y-100980423D01*
X209296000Y-100684065D01*
X209296000Y-100684064D01*
X209315904Y-100584000D01*
X209296000Y-100483937D01*
X209296000Y-97984421D01*
X209377765Y-97968157D01*
X209587809Y-97827809D01*
X209728157Y-97617765D01*
X209737184Y-97572381D01*
X209749375Y-97590625D01*
X210240582Y-97918839D01*
X210673744Y-98005000D01*
X210966256Y-98005000D01*
X211399418Y-97918839D01*
X211890625Y-97590625D01*
X211963000Y-97482308D01*
X211963000Y-124333000D01*
X205740000Y-124333000D01*
X205691399Y-124342667D01*
X205650197Y-124370197D01*
X205622667Y-124411399D01*
X205613000Y-124460000D01*
X205613000Y-143383000D01*
X166497000Y-143383000D01*
X166497000Y-114033126D01*
X167748000Y-114033126D01*
X167748000Y-114444874D01*
X167905569Y-114825280D01*
X168196720Y-115116431D01*
X168577126Y-115274000D01*
X168988874Y-115274000D01*
X169369280Y-115116431D01*
X169660431Y-114825280D01*
X169818000Y-114444874D01*
X169818000Y-114317552D01*
X169998152Y-114137400D01*
X173043689Y-114137400D01*
X173133720Y-114227431D01*
X173514126Y-114385000D01*
X173925874Y-114385000D01*
X174306280Y-114227431D01*
X174597431Y-113936280D01*
X174755000Y-113555874D01*
X174755000Y-113144126D01*
X174597431Y-112763720D01*
X174306280Y-112472569D01*
X173925874Y-112315000D01*
X173514126Y-112315000D01*
X173133720Y-112472569D01*
X173043689Y-112562600D01*
X169749551Y-112562600D01*
X169672000Y-112547174D01*
X169594449Y-112562600D01*
X169594448Y-112562600D01*
X169364772Y-112608285D01*
X169104316Y-112782316D01*
X169060386Y-112848062D01*
X168704448Y-113204000D01*
X168577126Y-113204000D01*
X168196720Y-113361569D01*
X167905569Y-113652720D01*
X167748000Y-114033126D01*
X166497000Y-114033126D01*
X166497000Y-105410000D01*
X167598276Y-105410000D01*
X167783380Y-106340580D01*
X168310511Y-107129489D01*
X169099420Y-107656620D01*
X169795103Y-107795000D01*
X170264897Y-107795000D01*
X170960580Y-107656620D01*
X171749489Y-107129489D01*
X172276620Y-106340580D01*
X172461724Y-105410000D01*
X172276620Y-104479420D01*
X171749489Y-103690511D01*
X170960580Y-103163380D01*
X170264897Y-103025000D01*
X169795103Y-103025000D01*
X169099420Y-103163380D01*
X168310511Y-103690511D01*
X167783380Y-104479420D01*
X167598276Y-105410000D01*
X166497000Y-105410000D01*
X166497000Y-102832532D01*
X195877073Y-102832532D01*
X195975736Y-103099387D01*
X196585461Y-103325908D01*
X197235460Y-103301856D01*
X197724264Y-103099387D01*
X197822927Y-102832532D01*
X196850000Y-101859605D01*
X195877073Y-102832532D01*
X166497000Y-102832532D01*
X166497000Y-102505258D01*
X185198954Y-102505258D01*
X185319003Y-102743000D01*
X186563000Y-102743000D01*
X186563000Y-101499622D01*
X186817000Y-101499622D01*
X186817000Y-102743000D01*
X188060997Y-102743000D01*
X188181046Y-102505258D01*
X187927966Y-101962424D01*
X187486417Y-101557760D01*
X187142857Y-101415461D01*
X195204092Y-101415461D01*
X195228144Y-102065460D01*
X195430613Y-102554264D01*
X195697468Y-102652927D01*
X196670395Y-101680000D01*
X197029605Y-101680000D01*
X198002532Y-102652927D01*
X198269387Y-102554264D01*
X198495908Y-101944539D01*
X198471856Y-101294540D01*
X198269387Y-100805736D01*
X198002532Y-100707073D01*
X197029605Y-101680000D01*
X196670395Y-101680000D01*
X195697468Y-100707073D01*
X195430613Y-100805736D01*
X195204092Y-101415461D01*
X187142857Y-101415461D01*
X187054740Y-101378964D01*
X186817000Y-101499622D01*
X186563000Y-101499622D01*
X186325260Y-101378964D01*
X185893583Y-101557760D01*
X185452034Y-101962424D01*
X185198954Y-102505258D01*
X166497000Y-102505258D01*
X166497000Y-100527468D01*
X195877073Y-100527468D01*
X196850000Y-101500395D01*
X197822927Y-100527468D01*
X197724264Y-100260613D01*
X197114539Y-100034092D01*
X196464540Y-100058144D01*
X195975736Y-100260613D01*
X195877073Y-100527468D01*
X166497000Y-100527468D01*
X166497000Y-96805750D01*
X181395000Y-96805750D01*
X181395000Y-97496309D01*
X181491673Y-97729698D01*
X181670301Y-97908327D01*
X181903690Y-98005000D01*
X182594250Y-98005000D01*
X182753000Y-97846250D01*
X182753000Y-96647000D01*
X181553750Y-96647000D01*
X181395000Y-96805750D01*
X166497000Y-96805750D01*
X166497000Y-95377000D01*
X181464046Y-95377000D01*
X181395000Y-95543691D01*
G04 #@! TD*
M02*
