G04 #@! TF.GenerationSoftware,KiCad,Pcbnew,(5.0.1)-3*
G04 #@! TF.CreationDate,2018-12-25T20:41:25+01:00*
G04 #@! TF.ProjectId,iLight,694C696768742E6B696361645F706362,rev?*
G04 #@! TF.SameCoordinates,Original*
G04 #@! TF.FileFunction,Soldermask,Top*
G04 #@! TF.FilePolarity,Negative*
%FSLAX46Y46*%
G04 Gerber Fmt 4.6, Leading zero omitted, Abs format (unit mm)*
G04 Created by KiCad (PCBNEW (5.0.1)-3) date 25/12/2018 20:41:25*
%MOMM*%
%LPD*%
G01*
G04 APERTURE LIST*
%ADD10C,0.100000*%
G04 APERTURE END LIST*
D10*
G36*
X194267000Y-142251000D02*
X193165000Y-142251000D01*
X193165000Y-139649000D01*
X194267000Y-139649000D01*
X194267000Y-142251000D01*
X194267000Y-142251000D01*
G37*
G36*
X206267000Y-142251000D02*
X205165000Y-142251000D01*
X205165000Y-139649000D01*
X206267000Y-139649000D01*
X206267000Y-142251000D01*
X206267000Y-142251000D01*
G37*
G36*
X208267000Y-142251000D02*
X207165000Y-142251000D01*
X207165000Y-139649000D01*
X208267000Y-139649000D01*
X208267000Y-142251000D01*
X208267000Y-142251000D01*
G37*
G36*
X204267000Y-142251000D02*
X203165000Y-142251000D01*
X203165000Y-139649000D01*
X204267000Y-139649000D01*
X204267000Y-142251000D01*
X204267000Y-142251000D01*
G37*
G36*
X202267000Y-142251000D02*
X201165000Y-142251000D01*
X201165000Y-139649000D01*
X202267000Y-139649000D01*
X202267000Y-142251000D01*
X202267000Y-142251000D01*
G37*
G36*
X198267000Y-142251000D02*
X197165000Y-142251000D01*
X197165000Y-139649000D01*
X198267000Y-139649000D01*
X198267000Y-142251000D01*
X198267000Y-142251000D01*
G37*
G36*
X200267000Y-142251000D02*
X199165000Y-142251000D01*
X199165000Y-139649000D01*
X200267000Y-139649000D01*
X200267000Y-142251000D01*
X200267000Y-142251000D01*
G37*
G36*
X196267000Y-142251000D02*
X195165000Y-142251000D01*
X195165000Y-139649000D01*
X196267000Y-139649000D01*
X196267000Y-142251000D01*
X196267000Y-142251000D01*
G37*
G36*
X193167000Y-138901000D02*
X191265000Y-138901000D01*
X191265000Y-137799000D01*
X193167000Y-137799000D01*
X193167000Y-138901000D01*
X193167000Y-138901000D01*
G37*
G36*
X193167000Y-136901000D02*
X191265000Y-136901000D01*
X191265000Y-135799000D01*
X193167000Y-135799000D01*
X193167000Y-136901000D01*
X193167000Y-136901000D01*
G37*
G36*
X193167000Y-134901000D02*
X191265000Y-134901000D01*
X191265000Y-133799000D01*
X193167000Y-133799000D01*
X193167000Y-134901000D01*
X193167000Y-134901000D01*
G37*
G36*
X193167000Y-132901000D02*
X191265000Y-132901000D01*
X191265000Y-131799000D01*
X193167000Y-131799000D01*
X193167000Y-132901000D01*
X193167000Y-132901000D01*
G37*
G36*
X193167000Y-130901000D02*
X191265000Y-130901000D01*
X191265000Y-129799000D01*
X193167000Y-129799000D01*
X193167000Y-130901000D01*
X193167000Y-130901000D01*
G37*
G36*
X193167000Y-128901000D02*
X191265000Y-128901000D01*
X191265000Y-127799000D01*
X193167000Y-127799000D01*
X193167000Y-128901000D01*
X193167000Y-128901000D01*
G37*
G36*
X194267000Y-127051000D02*
X193165000Y-127051000D01*
X193165000Y-124449000D01*
X194267000Y-124449000D01*
X194267000Y-127051000D01*
X194267000Y-127051000D01*
G37*
G36*
X208267000Y-127051000D02*
X207165000Y-127051000D01*
X207165000Y-124449000D01*
X208267000Y-124449000D01*
X208267000Y-127051000D01*
X208267000Y-127051000D01*
G37*
G36*
X206267000Y-127051000D02*
X205165000Y-127051000D01*
X205165000Y-124449000D01*
X206267000Y-124449000D01*
X206267000Y-127051000D01*
X206267000Y-127051000D01*
G37*
G36*
X204267000Y-127051000D02*
X203165000Y-127051000D01*
X203165000Y-124449000D01*
X204267000Y-124449000D01*
X204267000Y-127051000D01*
X204267000Y-127051000D01*
G37*
G36*
X202267000Y-127051000D02*
X201165000Y-127051000D01*
X201165000Y-124449000D01*
X202267000Y-124449000D01*
X202267000Y-127051000D01*
X202267000Y-127051000D01*
G37*
G36*
X200267000Y-127051000D02*
X199165000Y-127051000D01*
X199165000Y-124449000D01*
X200267000Y-124449000D01*
X200267000Y-127051000D01*
X200267000Y-127051000D01*
G37*
G36*
X196267000Y-127051000D02*
X195165000Y-127051000D01*
X195165000Y-124449000D01*
X196267000Y-124449000D01*
X196267000Y-127051000D01*
X196267000Y-127051000D01*
G37*
G36*
X198267000Y-127051000D02*
X197165000Y-127051000D01*
X197165000Y-124449000D01*
X198267000Y-124449000D01*
X198267000Y-127051000D01*
X198267000Y-127051000D01*
G37*
G36*
X174671000Y-125171000D02*
X170769000Y-125171000D01*
X170769000Y-123669000D01*
X174671000Y-123669000D01*
X174671000Y-125171000D01*
X174671000Y-125171000D01*
G37*
G36*
X186006000Y-123211000D02*
X179754000Y-123211000D01*
X179754000Y-121509000D01*
X186006000Y-121509000D01*
X186006000Y-123211000D01*
X186006000Y-123211000D01*
G37*
G36*
X201415000Y-123036000D02*
X200413000Y-123036000D01*
X200413000Y-121734000D01*
X201415000Y-121734000D01*
X201415000Y-123036000D01*
X201415000Y-123036000D01*
G37*
G36*
X199764000Y-123036000D02*
X198762000Y-123036000D01*
X198762000Y-121734000D01*
X199764000Y-121734000D01*
X199764000Y-123036000D01*
X199764000Y-123036000D01*
G37*
G36*
X174671000Y-122671000D02*
X170769000Y-122671000D01*
X170769000Y-121169000D01*
X174671000Y-121169000D01*
X174671000Y-122671000D01*
X174671000Y-122671000D01*
G37*
G36*
X204580442Y-119755518D02*
X204646627Y-119762037D01*
X204719029Y-119784000D01*
X204816467Y-119813557D01*
X204946363Y-119882989D01*
X204972991Y-119897222D01*
X205008729Y-119926552D01*
X205110186Y-120009814D01*
X205193448Y-120111271D01*
X205222778Y-120147009D01*
X205222779Y-120147011D01*
X205306443Y-120303533D01*
X205306443Y-120303534D01*
X205357963Y-120473373D01*
X205375359Y-120650000D01*
X205357963Y-120826627D01*
X205323616Y-120939853D01*
X205306443Y-120996467D01*
X205232348Y-121135087D01*
X205222778Y-121152991D01*
X205193448Y-121188729D01*
X205110186Y-121290186D01*
X205008729Y-121373448D01*
X204972991Y-121402778D01*
X204972989Y-121402779D01*
X204816467Y-121486443D01*
X204759853Y-121503616D01*
X204646627Y-121537963D01*
X204580443Y-121544481D01*
X204514260Y-121551000D01*
X204425740Y-121551000D01*
X204359557Y-121544481D01*
X204293373Y-121537963D01*
X204180147Y-121503616D01*
X204123533Y-121486443D01*
X203967011Y-121402779D01*
X203967009Y-121402778D01*
X203931271Y-121373448D01*
X203829814Y-121290186D01*
X203746552Y-121188729D01*
X203717222Y-121152991D01*
X203707652Y-121135087D01*
X203633557Y-120996467D01*
X203616384Y-120939853D01*
X203582037Y-120826627D01*
X203564641Y-120650000D01*
X203582037Y-120473373D01*
X203633557Y-120303534D01*
X203633557Y-120303533D01*
X203717221Y-120147011D01*
X203717222Y-120147009D01*
X203746552Y-120111271D01*
X203829814Y-120009814D01*
X203931271Y-119926552D01*
X203967009Y-119897222D01*
X203993637Y-119882989D01*
X204123533Y-119813557D01*
X204220971Y-119784000D01*
X204293373Y-119762037D01*
X204359558Y-119755518D01*
X204425740Y-119749000D01*
X204514260Y-119749000D01*
X204580442Y-119755518D01*
X204580442Y-119755518D01*
G37*
G36*
X187981000Y-121236000D02*
X186279000Y-121236000D01*
X186279000Y-114984000D01*
X187981000Y-114984000D01*
X187981000Y-121236000D01*
X187981000Y-121236000D01*
G37*
G36*
X179481000Y-121236000D02*
X177779000Y-121236000D01*
X177779000Y-114984000D01*
X179481000Y-114984000D01*
X179481000Y-121236000D01*
X179481000Y-121236000D01*
G37*
G36*
X199764000Y-120836000D02*
X198762000Y-120836000D01*
X198762000Y-119534000D01*
X199764000Y-119534000D01*
X199764000Y-120836000D01*
X199764000Y-120836000D01*
G37*
G36*
X201415000Y-120836000D02*
X200413000Y-120836000D01*
X200413000Y-119534000D01*
X201415000Y-119534000D01*
X201415000Y-120836000D01*
X201415000Y-120836000D01*
G37*
G36*
X195690442Y-118485518D02*
X195756627Y-118492037D01*
X195869853Y-118526384D01*
X195926467Y-118543557D01*
X196056363Y-118612989D01*
X196082991Y-118627222D01*
X196118729Y-118656552D01*
X196220186Y-118739814D01*
X196299123Y-118836000D01*
X196332778Y-118877009D01*
X196332779Y-118877011D01*
X196416443Y-119033533D01*
X196416443Y-119033534D01*
X196467963Y-119203373D01*
X196485359Y-119380000D01*
X196467963Y-119556627D01*
X196441155Y-119645000D01*
X196416443Y-119726467D01*
X196369892Y-119813557D01*
X196332778Y-119882991D01*
X196303448Y-119918729D01*
X196220186Y-120020186D01*
X196118729Y-120103448D01*
X196082991Y-120132778D01*
X196082989Y-120132779D01*
X195926467Y-120216443D01*
X195869853Y-120233616D01*
X195756627Y-120267963D01*
X195690442Y-120274482D01*
X195624260Y-120281000D01*
X195535740Y-120281000D01*
X195469558Y-120274482D01*
X195403373Y-120267963D01*
X195290147Y-120233616D01*
X195233533Y-120216443D01*
X195077011Y-120132779D01*
X195077009Y-120132778D01*
X195041271Y-120103448D01*
X194939814Y-120020186D01*
X194856552Y-119918729D01*
X194827222Y-119882991D01*
X194790108Y-119813557D01*
X194743557Y-119726467D01*
X194718845Y-119645000D01*
X194692037Y-119556627D01*
X194674641Y-119380000D01*
X194692037Y-119203373D01*
X194743557Y-119033534D01*
X194743557Y-119033533D01*
X194827221Y-118877011D01*
X194827222Y-118877009D01*
X194860877Y-118836000D01*
X194939814Y-118739814D01*
X195041271Y-118656552D01*
X195077009Y-118627222D01*
X195103637Y-118612989D01*
X195233533Y-118543557D01*
X195290147Y-118526384D01*
X195403373Y-118492037D01*
X195469558Y-118485518D01*
X195535740Y-118479000D01*
X195624260Y-118479000D01*
X195690442Y-118485518D01*
X195690442Y-118485518D01*
G37*
G36*
X193150442Y-118485518D02*
X193216627Y-118492037D01*
X193329853Y-118526384D01*
X193386467Y-118543557D01*
X193516363Y-118612989D01*
X193542991Y-118627222D01*
X193578729Y-118656552D01*
X193680186Y-118739814D01*
X193759123Y-118836000D01*
X193792778Y-118877009D01*
X193792779Y-118877011D01*
X193876443Y-119033533D01*
X193876443Y-119033534D01*
X193927963Y-119203373D01*
X193945359Y-119380000D01*
X193927963Y-119556627D01*
X193901155Y-119645000D01*
X193876443Y-119726467D01*
X193829892Y-119813557D01*
X193792778Y-119882991D01*
X193763448Y-119918729D01*
X193680186Y-120020186D01*
X193578729Y-120103448D01*
X193542991Y-120132778D01*
X193542989Y-120132779D01*
X193386467Y-120216443D01*
X193329853Y-120233616D01*
X193216627Y-120267963D01*
X193150442Y-120274482D01*
X193084260Y-120281000D01*
X192995740Y-120281000D01*
X192929558Y-120274482D01*
X192863373Y-120267963D01*
X192750147Y-120233616D01*
X192693533Y-120216443D01*
X192537011Y-120132779D01*
X192537009Y-120132778D01*
X192501271Y-120103448D01*
X192399814Y-120020186D01*
X192316552Y-119918729D01*
X192287222Y-119882991D01*
X192250108Y-119813557D01*
X192203557Y-119726467D01*
X192178845Y-119645000D01*
X192152037Y-119556627D01*
X192134641Y-119380000D01*
X192152037Y-119203373D01*
X192203557Y-119033534D01*
X192203557Y-119033533D01*
X192287221Y-118877011D01*
X192287222Y-118877009D01*
X192320877Y-118836000D01*
X192399814Y-118739814D01*
X192501271Y-118656552D01*
X192537009Y-118627222D01*
X192563637Y-118612989D01*
X192693533Y-118543557D01*
X192750147Y-118526384D01*
X192863373Y-118492037D01*
X192929558Y-118485518D01*
X192995740Y-118479000D01*
X193084260Y-118479000D01*
X193150442Y-118485518D01*
X193150442Y-118485518D01*
G37*
G36*
X174671000Y-120171000D02*
X170769000Y-120171000D01*
X170769000Y-118669000D01*
X174671000Y-118669000D01*
X174671000Y-120171000D01*
X174671000Y-120171000D01*
G37*
G36*
X189656000Y-119711000D02*
X188804000Y-119711000D01*
X188804000Y-118409000D01*
X189656000Y-118409000D01*
X189656000Y-119711000D01*
X189656000Y-119711000D01*
G37*
G36*
X190926000Y-119645000D02*
X190074000Y-119645000D01*
X190074000Y-118343000D01*
X190926000Y-118343000D01*
X190926000Y-119645000D01*
X190926000Y-119645000D01*
G37*
G36*
X204580443Y-117215519D02*
X204646627Y-117222037D01*
X204759853Y-117256384D01*
X204816467Y-117273557D01*
X204946363Y-117342989D01*
X204972991Y-117357222D01*
X205005620Y-117384000D01*
X205110186Y-117469814D01*
X205193448Y-117571271D01*
X205222778Y-117607009D01*
X205222779Y-117607011D01*
X205306443Y-117763533D01*
X205306443Y-117763534D01*
X205357963Y-117933373D01*
X205375359Y-118110000D01*
X205357963Y-118286627D01*
X205340862Y-118343000D01*
X205306443Y-118456467D01*
X205287430Y-118492037D01*
X205222778Y-118612991D01*
X205193448Y-118648729D01*
X205110186Y-118750186D01*
X205008729Y-118833448D01*
X204972991Y-118862778D01*
X204972989Y-118862779D01*
X204816467Y-118946443D01*
X204759853Y-118963616D01*
X204646627Y-118997963D01*
X204580443Y-119004481D01*
X204514260Y-119011000D01*
X204425740Y-119011000D01*
X204359557Y-119004481D01*
X204293373Y-118997963D01*
X204180147Y-118963616D01*
X204123533Y-118946443D01*
X203967011Y-118862779D01*
X203967009Y-118862778D01*
X203931271Y-118833448D01*
X203829814Y-118750186D01*
X203746552Y-118648729D01*
X203717222Y-118612991D01*
X203652570Y-118492037D01*
X203633557Y-118456467D01*
X203599138Y-118343000D01*
X203582037Y-118286627D01*
X203564641Y-118110000D01*
X203582037Y-117933373D01*
X203633557Y-117763534D01*
X203633557Y-117763533D01*
X203717221Y-117607011D01*
X203717222Y-117607009D01*
X203746552Y-117571271D01*
X203829814Y-117469814D01*
X203934380Y-117384000D01*
X203967009Y-117357222D01*
X203993637Y-117342989D01*
X204123533Y-117273557D01*
X204180147Y-117256384D01*
X204293373Y-117222037D01*
X204359557Y-117215519D01*
X204425740Y-117209000D01*
X204514260Y-117209000D01*
X204580443Y-117215519D01*
X204580443Y-117215519D01*
G37*
G36*
X189656000Y-117811000D02*
X188804000Y-117811000D01*
X188804000Y-116509000D01*
X189656000Y-116509000D01*
X189656000Y-117811000D01*
X189656000Y-117811000D01*
G37*
G36*
X190926000Y-117745000D02*
X190074000Y-117745000D01*
X190074000Y-116443000D01*
X190926000Y-116443000D01*
X190926000Y-117745000D01*
X190926000Y-117745000D01*
G37*
G36*
X193150442Y-115945518D02*
X193216627Y-115952037D01*
X193329853Y-115986384D01*
X193386467Y-116003557D01*
X193516363Y-116072989D01*
X193542991Y-116087222D01*
X193578729Y-116116552D01*
X193680186Y-116199814D01*
X193763448Y-116301271D01*
X193792778Y-116337009D01*
X193792779Y-116337011D01*
X193876443Y-116493533D01*
X193876443Y-116493534D01*
X193927963Y-116663373D01*
X193945359Y-116840000D01*
X193927963Y-117016627D01*
X193893616Y-117129853D01*
X193876443Y-117186467D01*
X193829892Y-117273557D01*
X193792778Y-117342991D01*
X193763448Y-117378729D01*
X193680186Y-117480186D01*
X193578729Y-117563448D01*
X193542991Y-117592778D01*
X193542989Y-117592779D01*
X193386467Y-117676443D01*
X193329853Y-117693616D01*
X193216627Y-117727963D01*
X193150442Y-117734482D01*
X193084260Y-117741000D01*
X192995740Y-117741000D01*
X192929558Y-117734482D01*
X192863373Y-117727963D01*
X192750147Y-117693616D01*
X192693533Y-117676443D01*
X192537011Y-117592779D01*
X192537009Y-117592778D01*
X192501271Y-117563448D01*
X192399814Y-117480186D01*
X192316552Y-117378729D01*
X192287222Y-117342991D01*
X192250108Y-117273557D01*
X192203557Y-117186467D01*
X192186384Y-117129853D01*
X192152037Y-117016627D01*
X192134641Y-116840000D01*
X192152037Y-116663373D01*
X192203557Y-116493534D01*
X192203557Y-116493533D01*
X192287221Y-116337011D01*
X192287222Y-116337009D01*
X192316552Y-116301271D01*
X192399814Y-116199814D01*
X192501271Y-116116552D01*
X192537009Y-116087222D01*
X192563637Y-116072989D01*
X192693533Y-116003557D01*
X192750147Y-115986384D01*
X192863373Y-115952037D01*
X192929558Y-115945518D01*
X192995740Y-115939000D01*
X193084260Y-115939000D01*
X193150442Y-115945518D01*
X193150442Y-115945518D01*
G37*
G36*
X195690442Y-115945518D02*
X195756627Y-115952037D01*
X195869853Y-115986384D01*
X195926467Y-116003557D01*
X196056363Y-116072989D01*
X196082991Y-116087222D01*
X196118729Y-116116552D01*
X196220186Y-116199814D01*
X196303448Y-116301271D01*
X196332778Y-116337009D01*
X196332779Y-116337011D01*
X196416443Y-116493533D01*
X196416443Y-116493534D01*
X196467963Y-116663373D01*
X196485359Y-116840000D01*
X196467963Y-117016627D01*
X196433616Y-117129853D01*
X196416443Y-117186467D01*
X196369892Y-117273557D01*
X196332778Y-117342991D01*
X196303448Y-117378729D01*
X196220186Y-117480186D01*
X196118729Y-117563448D01*
X196082991Y-117592778D01*
X196082989Y-117592779D01*
X195926467Y-117676443D01*
X195869853Y-117693616D01*
X195756627Y-117727963D01*
X195690442Y-117734482D01*
X195624260Y-117741000D01*
X195535740Y-117741000D01*
X195469558Y-117734482D01*
X195403373Y-117727963D01*
X195290147Y-117693616D01*
X195233533Y-117676443D01*
X195077011Y-117592779D01*
X195077009Y-117592778D01*
X195041271Y-117563448D01*
X194939814Y-117480186D01*
X194856552Y-117378729D01*
X194827222Y-117342991D01*
X194790108Y-117273557D01*
X194743557Y-117186467D01*
X194726384Y-117129853D01*
X194692037Y-117016627D01*
X194674641Y-116840000D01*
X194692037Y-116663373D01*
X194743557Y-116493534D01*
X194743557Y-116493533D01*
X194827221Y-116337011D01*
X194827222Y-116337009D01*
X194856552Y-116301271D01*
X194939814Y-116199814D01*
X195041271Y-116116552D01*
X195077009Y-116087222D01*
X195103637Y-116072989D01*
X195233533Y-116003557D01*
X195290147Y-115986384D01*
X195403373Y-115952037D01*
X195469558Y-115945518D01*
X195535740Y-115939000D01*
X195624260Y-115939000D01*
X195690442Y-115945518D01*
X195690442Y-115945518D01*
G37*
G36*
X170479000Y-116790000D02*
X169627000Y-116790000D01*
X169627000Y-115488000D01*
X170479000Y-115488000D01*
X170479000Y-116790000D01*
X170479000Y-116790000D01*
G37*
G36*
X169209000Y-116790000D02*
X168357000Y-116790000D01*
X168357000Y-115488000D01*
X169209000Y-115488000D01*
X169209000Y-116790000D01*
X169209000Y-116790000D01*
G37*
G36*
X204580443Y-114675519D02*
X204646627Y-114682037D01*
X204742105Y-114711000D01*
X204816467Y-114733557D01*
X204938900Y-114799000D01*
X204972991Y-114817222D01*
X205008729Y-114846552D01*
X205110186Y-114929814D01*
X205193448Y-115031271D01*
X205222778Y-115067009D01*
X205222779Y-115067011D01*
X205306443Y-115223533D01*
X205306443Y-115223534D01*
X205357963Y-115393373D01*
X205375359Y-115570000D01*
X205357963Y-115746627D01*
X205346626Y-115784000D01*
X205306443Y-115916467D01*
X205287430Y-115952037D01*
X205222778Y-116072991D01*
X205193448Y-116108729D01*
X205110186Y-116210186D01*
X205008729Y-116293448D01*
X204972991Y-116322778D01*
X204972989Y-116322779D01*
X204816467Y-116406443D01*
X204759853Y-116423616D01*
X204646627Y-116457963D01*
X204580442Y-116464482D01*
X204514260Y-116471000D01*
X204425740Y-116471000D01*
X204359558Y-116464482D01*
X204293373Y-116457963D01*
X204180147Y-116423616D01*
X204123533Y-116406443D01*
X203967011Y-116322779D01*
X203967009Y-116322778D01*
X203931271Y-116293448D01*
X203829814Y-116210186D01*
X203746552Y-116108729D01*
X203717222Y-116072991D01*
X203652570Y-115952037D01*
X203633557Y-115916467D01*
X203593374Y-115784000D01*
X203582037Y-115746627D01*
X203564641Y-115570000D01*
X203582037Y-115393373D01*
X203633557Y-115223534D01*
X203633557Y-115223533D01*
X203717221Y-115067011D01*
X203717222Y-115067009D01*
X203746552Y-115031271D01*
X203829814Y-114929814D01*
X203931271Y-114846552D01*
X203967009Y-114817222D01*
X204001100Y-114799000D01*
X204123533Y-114733557D01*
X204197895Y-114711000D01*
X204293373Y-114682037D01*
X204359557Y-114675519D01*
X204425740Y-114669000D01*
X204514260Y-114669000D01*
X204580443Y-114675519D01*
X204580443Y-114675519D01*
G37*
G36*
X174221000Y-115701000D02*
X173219000Y-115701000D01*
X173219000Y-114799000D01*
X174221000Y-114799000D01*
X174221000Y-115701000D01*
X174221000Y-115701000D01*
G37*
G36*
X193941000Y-115201000D02*
X192139000Y-115201000D01*
X192139000Y-113399000D01*
X193941000Y-113399000D01*
X193941000Y-115201000D01*
X193941000Y-115201000D01*
G37*
G36*
X195690443Y-113405519D02*
X195756627Y-113412037D01*
X195869853Y-113446384D01*
X195926467Y-113463557D01*
X196065087Y-113537652D01*
X196082991Y-113547222D01*
X196118729Y-113576552D01*
X196220186Y-113659814D01*
X196303448Y-113761271D01*
X196332778Y-113797009D01*
X196332779Y-113797011D01*
X196416443Y-113953533D01*
X196416443Y-113953534D01*
X196467963Y-114123373D01*
X196485359Y-114300000D01*
X196467963Y-114476627D01*
X196433616Y-114589853D01*
X196416443Y-114646467D01*
X196397430Y-114682037D01*
X196332778Y-114802991D01*
X196303448Y-114838729D01*
X196220186Y-114940186D01*
X196118729Y-115023448D01*
X196082991Y-115052778D01*
X196082989Y-115052779D01*
X195926467Y-115136443D01*
X195869853Y-115153616D01*
X195756627Y-115187963D01*
X195690442Y-115194482D01*
X195624260Y-115201000D01*
X195535740Y-115201000D01*
X195469558Y-115194482D01*
X195403373Y-115187963D01*
X195290147Y-115153616D01*
X195233533Y-115136443D01*
X195077011Y-115052779D01*
X195077009Y-115052778D01*
X195041271Y-115023448D01*
X194939814Y-114940186D01*
X194856552Y-114838729D01*
X194827222Y-114802991D01*
X194762570Y-114682037D01*
X194743557Y-114646467D01*
X194726384Y-114589853D01*
X194692037Y-114476627D01*
X194674641Y-114300000D01*
X194692037Y-114123373D01*
X194743557Y-113953534D01*
X194743557Y-113953533D01*
X194827221Y-113797011D01*
X194827222Y-113797009D01*
X194856552Y-113761271D01*
X194939814Y-113659814D01*
X195041271Y-113576552D01*
X195077009Y-113547222D01*
X195094913Y-113537652D01*
X195233533Y-113463557D01*
X195290147Y-113446384D01*
X195403373Y-113412037D01*
X195469557Y-113405519D01*
X195535740Y-113399000D01*
X195624260Y-113399000D01*
X195690443Y-113405519D01*
X195690443Y-113405519D01*
G37*
G36*
X170479000Y-114890000D02*
X169627000Y-114890000D01*
X169627000Y-113588000D01*
X170479000Y-113588000D01*
X170479000Y-114890000D01*
X170479000Y-114890000D01*
G37*
G36*
X169209000Y-114890000D02*
X168357000Y-114890000D01*
X168357000Y-113588000D01*
X169209000Y-113588000D01*
X169209000Y-114890000D01*
X169209000Y-114890000D01*
G37*
G36*
X172221000Y-114751000D02*
X171219000Y-114751000D01*
X171219000Y-113849000D01*
X172221000Y-113849000D01*
X172221000Y-114751000D01*
X172221000Y-114751000D01*
G37*
G36*
X186006000Y-114711000D02*
X179754000Y-114711000D01*
X179754000Y-113009000D01*
X186006000Y-113009000D01*
X186006000Y-114711000D01*
X186006000Y-114711000D01*
G37*
G36*
X205371000Y-113931000D02*
X203569000Y-113931000D01*
X203569000Y-112129000D01*
X205371000Y-112129000D01*
X205371000Y-113931000D01*
X205371000Y-113931000D01*
G37*
G36*
X174221000Y-113801000D02*
X173219000Y-113801000D01*
X173219000Y-112899000D01*
X174221000Y-112899000D01*
X174221000Y-113801000D01*
X174221000Y-113801000D01*
G37*
G36*
X182980000Y-112388000D02*
X181678000Y-112388000D01*
X181678000Y-111386000D01*
X182980000Y-111386000D01*
X182980000Y-112388000D01*
X182980000Y-112388000D01*
G37*
G36*
X180780000Y-112388000D02*
X179478000Y-112388000D01*
X179478000Y-111386000D01*
X180780000Y-111386000D01*
X180780000Y-112388000D01*
X180780000Y-112388000D01*
G37*
G36*
X191743000Y-109975000D02*
X190441000Y-109975000D01*
X190441000Y-108973000D01*
X191743000Y-108973000D01*
X191743000Y-109975000D01*
X191743000Y-109975000D01*
G37*
G36*
X189543000Y-109975000D02*
X188241000Y-109975000D01*
X188241000Y-108973000D01*
X189543000Y-108973000D01*
X189543000Y-109975000D01*
X189543000Y-109975000D01*
G37*
G36*
X187641000Y-108901000D02*
X185739000Y-108901000D01*
X185739000Y-106999000D01*
X187641000Y-106999000D01*
X187641000Y-108901000D01*
X187641000Y-108901000D01*
G37*
G36*
X191743000Y-108451000D02*
X190441000Y-108451000D01*
X190441000Y-107449000D01*
X191743000Y-107449000D01*
X191743000Y-108451000D01*
X191743000Y-108451000D01*
G37*
G36*
X189543000Y-108451000D02*
X188241000Y-108451000D01*
X188241000Y-107449000D01*
X189543000Y-107449000D01*
X189543000Y-108451000D01*
X189543000Y-108451000D01*
G37*
G36*
X197901000Y-107731000D02*
X195799000Y-107731000D01*
X195799000Y-105629000D01*
X197901000Y-105629000D01*
X197901000Y-107731000D01*
X197901000Y-107731000D01*
G37*
G36*
X170206669Y-103617686D02*
X170383058Y-103635059D01*
X170609385Y-103703714D01*
X170722549Y-103738042D01*
X171035425Y-103905279D01*
X171309661Y-104130339D01*
X171534721Y-104404575D01*
X171701958Y-104717451D01*
X171701958Y-104717452D01*
X171804941Y-105056942D01*
X171839714Y-105410000D01*
X171804941Y-105763058D01*
X171750992Y-105940903D01*
X171701958Y-106102549D01*
X171534721Y-106415425D01*
X171309661Y-106689661D01*
X171035425Y-106914721D01*
X170722549Y-107081958D01*
X170609385Y-107116286D01*
X170383058Y-107184941D01*
X170206669Y-107202314D01*
X170118476Y-107211000D01*
X169941524Y-107211000D01*
X169853331Y-107202314D01*
X169676942Y-107184941D01*
X169450615Y-107116286D01*
X169337451Y-107081958D01*
X169024575Y-106914721D01*
X168750339Y-106689661D01*
X168525279Y-106415425D01*
X168358042Y-106102549D01*
X168309008Y-105940903D01*
X168255059Y-105763058D01*
X168220286Y-105410000D01*
X168255059Y-105056942D01*
X168358042Y-104717452D01*
X168358042Y-104717451D01*
X168525279Y-104404575D01*
X168750339Y-104130339D01*
X169024575Y-103905279D01*
X169337451Y-103738042D01*
X169450615Y-103703714D01*
X169676942Y-103635059D01*
X169853331Y-103617686D01*
X169941524Y-103609000D01*
X170118476Y-103609000D01*
X170206669Y-103617686D01*
X170206669Y-103617686D01*
G37*
G36*
X186876425Y-104472760D02*
X186876428Y-104472761D01*
X186876429Y-104472761D01*
X187055693Y-104527140D01*
X187055695Y-104527141D01*
X187220905Y-104615448D01*
X187365712Y-104734288D01*
X187484552Y-104879095D01*
X187484553Y-104879097D01*
X187572860Y-105044307D01*
X187576693Y-105056944D01*
X187627240Y-105223575D01*
X187645601Y-105410000D01*
X187627240Y-105596425D01*
X187627239Y-105596428D01*
X187627239Y-105596429D01*
X187576693Y-105763058D01*
X187572859Y-105775695D01*
X187484552Y-105940905D01*
X187365712Y-106085712D01*
X187220905Y-106204552D01*
X187220903Y-106204553D01*
X187055693Y-106292860D01*
X186876429Y-106347239D01*
X186876428Y-106347239D01*
X186876425Y-106347240D01*
X186736718Y-106361000D01*
X186643282Y-106361000D01*
X186503575Y-106347240D01*
X186503572Y-106347239D01*
X186503571Y-106347239D01*
X186324307Y-106292860D01*
X186159097Y-106204553D01*
X186159095Y-106204552D01*
X186014288Y-106085712D01*
X185895448Y-105940905D01*
X185807141Y-105775695D01*
X185803308Y-105763058D01*
X185752761Y-105596429D01*
X185752761Y-105596428D01*
X185752760Y-105596425D01*
X185734399Y-105410000D01*
X185752760Y-105223575D01*
X185803307Y-105056944D01*
X185807140Y-105044307D01*
X185895447Y-104879097D01*
X185895448Y-104879095D01*
X186014288Y-104734288D01*
X186159095Y-104615448D01*
X186324305Y-104527141D01*
X186324307Y-104527140D01*
X186503571Y-104472761D01*
X186503572Y-104472761D01*
X186503575Y-104472760D01*
X186643282Y-104459000D01*
X186736718Y-104459000D01*
X186876425Y-104472760D01*
X186876425Y-104472760D01*
G37*
G36*
X186876425Y-101932760D02*
X186876428Y-101932761D01*
X186876429Y-101932761D01*
X187055693Y-101987140D01*
X187055695Y-101987141D01*
X187220905Y-102075448D01*
X187365712Y-102194288D01*
X187484552Y-102339095D01*
X187484553Y-102339097D01*
X187572860Y-102504307D01*
X187627239Y-102683571D01*
X187627240Y-102683575D01*
X187645601Y-102870000D01*
X187627240Y-103056425D01*
X187572859Y-103235695D01*
X187484552Y-103400905D01*
X187365712Y-103545712D01*
X187220905Y-103664552D01*
X187055695Y-103752859D01*
X187055693Y-103752860D01*
X186876429Y-103807239D01*
X186876428Y-103807239D01*
X186876425Y-103807240D01*
X186736718Y-103821000D01*
X186643282Y-103821000D01*
X186503575Y-103807240D01*
X186503572Y-103807239D01*
X186503571Y-103807239D01*
X186324307Y-103752860D01*
X186324305Y-103752859D01*
X186159095Y-103664552D01*
X186014288Y-103545712D01*
X185895448Y-103400905D01*
X185807141Y-103235695D01*
X185752760Y-103056425D01*
X185734399Y-102870000D01*
X185752760Y-102683575D01*
X185752761Y-102683571D01*
X185807140Y-102504307D01*
X185895447Y-102339097D01*
X185895448Y-102339095D01*
X186014288Y-102194288D01*
X186159095Y-102075448D01*
X186324305Y-101987141D01*
X186324307Y-101987140D01*
X186503571Y-101932761D01*
X186503572Y-101932761D01*
X186503575Y-101932760D01*
X186643282Y-101919000D01*
X186736718Y-101919000D01*
X186876425Y-101932760D01*
X186876425Y-101932760D01*
G37*
G36*
X197156565Y-100669389D02*
X197347834Y-100748615D01*
X197519976Y-100863637D01*
X197666363Y-101010024D01*
X197781385Y-101182166D01*
X197860611Y-101373435D01*
X197901000Y-101576484D01*
X197901000Y-101783516D01*
X197860611Y-101986565D01*
X197781385Y-102177834D01*
X197666363Y-102349976D01*
X197519976Y-102496363D01*
X197347834Y-102611385D01*
X197156565Y-102690611D01*
X196953516Y-102731000D01*
X196746484Y-102731000D01*
X196543435Y-102690611D01*
X196352166Y-102611385D01*
X196180024Y-102496363D01*
X196033637Y-102349976D01*
X195918615Y-102177834D01*
X195839389Y-101986565D01*
X195799000Y-101783516D01*
X195799000Y-101576484D01*
X195839389Y-101373435D01*
X195918615Y-101182166D01*
X196033637Y-101010024D01*
X196180024Y-100863637D01*
X196352166Y-100748615D01*
X196543435Y-100669389D01*
X196746484Y-100629000D01*
X196953516Y-100629000D01*
X197156565Y-100669389D01*
X197156565Y-100669389D01*
G37*
G36*
X191307000Y-101550000D02*
X190455000Y-101550000D01*
X190455000Y-100248000D01*
X191307000Y-100248000D01*
X191307000Y-101550000D01*
X191307000Y-101550000D01*
G37*
G36*
X211151000Y-100756000D02*
X209849000Y-100756000D01*
X209849000Y-99904000D01*
X211151000Y-99904000D01*
X211151000Y-100756000D01*
X211151000Y-100756000D01*
G37*
G36*
X209251000Y-100756000D02*
X207949000Y-100756000D01*
X207949000Y-99904000D01*
X209251000Y-99904000D01*
X209251000Y-100756000D01*
X209251000Y-100756000D01*
G37*
G36*
X191307000Y-99650000D02*
X190455000Y-99650000D01*
X190455000Y-98348000D01*
X191307000Y-98348000D01*
X191307000Y-99650000D01*
X191307000Y-99650000D01*
G37*
G36*
X185497000Y-99486000D02*
X184195000Y-99486000D01*
X184195000Y-98634000D01*
X185497000Y-98634000D01*
X185497000Y-99486000D01*
X185497000Y-99486000D01*
G37*
G36*
X183597000Y-99486000D02*
X182295000Y-99486000D01*
X182295000Y-98634000D01*
X183597000Y-98634000D01*
X183597000Y-99486000D01*
X183597000Y-99486000D01*
G37*
G36*
X209181000Y-97421000D02*
X207379000Y-97421000D01*
X207379000Y-95619000D01*
X209181000Y-95619000D01*
X209181000Y-97421000D01*
X209181000Y-97421000D01*
G37*
G36*
X183781000Y-97421000D02*
X181979000Y-97421000D01*
X181979000Y-95619000D01*
X183781000Y-95619000D01*
X183781000Y-97421000D01*
X183781000Y-97421000D01*
G37*
G36*
X185530442Y-95625518D02*
X185596627Y-95632037D01*
X185709853Y-95666384D01*
X185766467Y-95683557D01*
X185905087Y-95757652D01*
X185922991Y-95767222D01*
X185958729Y-95796552D01*
X186060186Y-95879814D01*
X186143448Y-95981271D01*
X186172778Y-96017009D01*
X186172779Y-96017011D01*
X186256443Y-96173533D01*
X186256443Y-96173534D01*
X186307963Y-96343373D01*
X186325359Y-96520000D01*
X186307963Y-96696627D01*
X186273616Y-96809853D01*
X186256443Y-96866467D01*
X186182348Y-97005087D01*
X186172778Y-97022991D01*
X186143448Y-97058729D01*
X186060186Y-97160186D01*
X185958729Y-97243448D01*
X185922991Y-97272778D01*
X185922989Y-97272779D01*
X185766467Y-97356443D01*
X185709853Y-97373616D01*
X185596627Y-97407963D01*
X185530442Y-97414482D01*
X185464260Y-97421000D01*
X185375740Y-97421000D01*
X185309558Y-97414482D01*
X185243373Y-97407963D01*
X185130147Y-97373616D01*
X185073533Y-97356443D01*
X184917011Y-97272779D01*
X184917009Y-97272778D01*
X184881271Y-97243448D01*
X184779814Y-97160186D01*
X184696552Y-97058729D01*
X184667222Y-97022991D01*
X184657652Y-97005087D01*
X184583557Y-96866467D01*
X184566384Y-96809853D01*
X184532037Y-96696627D01*
X184514641Y-96520000D01*
X184532037Y-96343373D01*
X184583557Y-96173534D01*
X184583557Y-96173533D01*
X184667221Y-96017011D01*
X184667222Y-96017009D01*
X184696552Y-95981271D01*
X184779814Y-95879814D01*
X184881271Y-95796552D01*
X184917009Y-95767222D01*
X184934913Y-95757652D01*
X185073533Y-95683557D01*
X185130147Y-95666384D01*
X185243373Y-95632037D01*
X185309558Y-95625518D01*
X185375740Y-95619000D01*
X185464260Y-95619000D01*
X185530442Y-95625518D01*
X185530442Y-95625518D01*
G37*
G36*
X193941000Y-97421000D02*
X192139000Y-97421000D01*
X192139000Y-95619000D01*
X193941000Y-95619000D01*
X193941000Y-97421000D01*
X193941000Y-97421000D01*
G37*
G36*
X195690442Y-95625518D02*
X195756627Y-95632037D01*
X195869853Y-95666384D01*
X195926467Y-95683557D01*
X196065087Y-95757652D01*
X196082991Y-95767222D01*
X196118729Y-95796552D01*
X196220186Y-95879814D01*
X196303448Y-95981271D01*
X196332778Y-96017009D01*
X196332779Y-96017011D01*
X196416443Y-96173533D01*
X196416443Y-96173534D01*
X196467963Y-96343373D01*
X196485359Y-96520000D01*
X196467963Y-96696627D01*
X196433616Y-96809853D01*
X196416443Y-96866467D01*
X196342348Y-97005087D01*
X196332778Y-97022991D01*
X196303448Y-97058729D01*
X196220186Y-97160186D01*
X196118729Y-97243448D01*
X196082991Y-97272778D01*
X196082989Y-97272779D01*
X195926467Y-97356443D01*
X195869853Y-97373616D01*
X195756627Y-97407963D01*
X195690442Y-97414482D01*
X195624260Y-97421000D01*
X195535740Y-97421000D01*
X195469558Y-97414482D01*
X195403373Y-97407963D01*
X195290147Y-97373616D01*
X195233533Y-97356443D01*
X195077011Y-97272779D01*
X195077009Y-97272778D01*
X195041271Y-97243448D01*
X194939814Y-97160186D01*
X194856552Y-97058729D01*
X194827222Y-97022991D01*
X194817652Y-97005087D01*
X194743557Y-96866467D01*
X194726384Y-96809853D01*
X194692037Y-96696627D01*
X194674641Y-96520000D01*
X194692037Y-96343373D01*
X194743557Y-96173534D01*
X194743557Y-96173533D01*
X194827221Y-96017011D01*
X194827222Y-96017009D01*
X194856552Y-95981271D01*
X194939814Y-95879814D01*
X195041271Y-95796552D01*
X195077009Y-95767222D01*
X195094913Y-95757652D01*
X195233533Y-95683557D01*
X195290147Y-95666384D01*
X195403373Y-95632037D01*
X195469558Y-95625518D01*
X195535740Y-95619000D01*
X195624260Y-95619000D01*
X195690442Y-95625518D01*
X195690442Y-95625518D01*
G37*
G36*
X198230442Y-95625518D02*
X198296627Y-95632037D01*
X198409853Y-95666384D01*
X198466467Y-95683557D01*
X198605087Y-95757652D01*
X198622991Y-95767222D01*
X198658729Y-95796552D01*
X198760186Y-95879814D01*
X198843448Y-95981271D01*
X198872778Y-96017009D01*
X198872779Y-96017011D01*
X198956443Y-96173533D01*
X198956443Y-96173534D01*
X199007963Y-96343373D01*
X199025359Y-96520000D01*
X199007963Y-96696627D01*
X198973616Y-96809853D01*
X198956443Y-96866467D01*
X198882348Y-97005087D01*
X198872778Y-97022991D01*
X198843448Y-97058729D01*
X198760186Y-97160186D01*
X198658729Y-97243448D01*
X198622991Y-97272778D01*
X198622989Y-97272779D01*
X198466467Y-97356443D01*
X198409853Y-97373616D01*
X198296627Y-97407963D01*
X198230442Y-97414482D01*
X198164260Y-97421000D01*
X198075740Y-97421000D01*
X198009558Y-97414482D01*
X197943373Y-97407963D01*
X197830147Y-97373616D01*
X197773533Y-97356443D01*
X197617011Y-97272779D01*
X197617009Y-97272778D01*
X197581271Y-97243448D01*
X197479814Y-97160186D01*
X197396552Y-97058729D01*
X197367222Y-97022991D01*
X197357652Y-97005087D01*
X197283557Y-96866467D01*
X197266384Y-96809853D01*
X197232037Y-96696627D01*
X197214641Y-96520000D01*
X197232037Y-96343373D01*
X197283557Y-96173534D01*
X197283557Y-96173533D01*
X197367221Y-96017011D01*
X197367222Y-96017009D01*
X197396552Y-95981271D01*
X197479814Y-95879814D01*
X197581271Y-95796552D01*
X197617009Y-95767222D01*
X197634913Y-95757652D01*
X197773533Y-95683557D01*
X197830147Y-95666384D01*
X197943373Y-95632037D01*
X198009558Y-95625518D01*
X198075740Y-95619000D01*
X198164260Y-95619000D01*
X198230442Y-95625518D01*
X198230442Y-95625518D01*
G37*
G36*
X200770442Y-95625518D02*
X200836627Y-95632037D01*
X200949853Y-95666384D01*
X201006467Y-95683557D01*
X201145087Y-95757652D01*
X201162991Y-95767222D01*
X201198729Y-95796552D01*
X201300186Y-95879814D01*
X201383448Y-95981271D01*
X201412778Y-96017009D01*
X201412779Y-96017011D01*
X201496443Y-96173533D01*
X201496443Y-96173534D01*
X201547963Y-96343373D01*
X201565359Y-96520000D01*
X201547963Y-96696627D01*
X201513616Y-96809853D01*
X201496443Y-96866467D01*
X201422348Y-97005087D01*
X201412778Y-97022991D01*
X201383448Y-97058729D01*
X201300186Y-97160186D01*
X201198729Y-97243448D01*
X201162991Y-97272778D01*
X201162989Y-97272779D01*
X201006467Y-97356443D01*
X200949853Y-97373616D01*
X200836627Y-97407963D01*
X200770442Y-97414482D01*
X200704260Y-97421000D01*
X200615740Y-97421000D01*
X200549558Y-97414482D01*
X200483373Y-97407963D01*
X200370147Y-97373616D01*
X200313533Y-97356443D01*
X200157011Y-97272779D01*
X200157009Y-97272778D01*
X200121271Y-97243448D01*
X200019814Y-97160186D01*
X199936552Y-97058729D01*
X199907222Y-97022991D01*
X199897652Y-97005087D01*
X199823557Y-96866467D01*
X199806384Y-96809853D01*
X199772037Y-96696627D01*
X199754641Y-96520000D01*
X199772037Y-96343373D01*
X199823557Y-96173534D01*
X199823557Y-96173533D01*
X199907221Y-96017011D01*
X199907222Y-96017009D01*
X199936552Y-95981271D01*
X200019814Y-95879814D01*
X200121271Y-95796552D01*
X200157009Y-95767222D01*
X200174913Y-95757652D01*
X200313533Y-95683557D01*
X200370147Y-95666384D01*
X200483373Y-95632037D01*
X200549558Y-95625518D01*
X200615740Y-95619000D01*
X200704260Y-95619000D01*
X200770442Y-95625518D01*
X200770442Y-95625518D01*
G37*
G36*
X210930442Y-95625518D02*
X210996627Y-95632037D01*
X211109853Y-95666384D01*
X211166467Y-95683557D01*
X211305087Y-95757652D01*
X211322991Y-95767222D01*
X211358729Y-95796552D01*
X211460186Y-95879814D01*
X211543448Y-95981271D01*
X211572778Y-96017009D01*
X211572779Y-96017011D01*
X211656443Y-96173533D01*
X211656443Y-96173534D01*
X211707963Y-96343373D01*
X211725359Y-96520000D01*
X211707963Y-96696627D01*
X211673616Y-96809853D01*
X211656443Y-96866467D01*
X211582348Y-97005087D01*
X211572778Y-97022991D01*
X211543448Y-97058729D01*
X211460186Y-97160186D01*
X211358729Y-97243448D01*
X211322991Y-97272778D01*
X211322989Y-97272779D01*
X211166467Y-97356443D01*
X211109853Y-97373616D01*
X210996627Y-97407963D01*
X210930442Y-97414482D01*
X210864260Y-97421000D01*
X210775740Y-97421000D01*
X210709558Y-97414482D01*
X210643373Y-97407963D01*
X210530147Y-97373616D01*
X210473533Y-97356443D01*
X210317011Y-97272779D01*
X210317009Y-97272778D01*
X210281271Y-97243448D01*
X210179814Y-97160186D01*
X210096552Y-97058729D01*
X210067222Y-97022991D01*
X210057652Y-97005087D01*
X209983557Y-96866467D01*
X209966384Y-96809853D01*
X209932037Y-96696627D01*
X209914641Y-96520000D01*
X209932037Y-96343373D01*
X209983557Y-96173534D01*
X209983557Y-96173533D01*
X210067221Y-96017011D01*
X210067222Y-96017009D01*
X210096552Y-95981271D01*
X210179814Y-95879814D01*
X210281271Y-95796552D01*
X210317009Y-95767222D01*
X210334913Y-95757652D01*
X210473533Y-95683557D01*
X210530147Y-95666384D01*
X210643373Y-95632037D01*
X210709558Y-95625518D01*
X210775740Y-95619000D01*
X210864260Y-95619000D01*
X210930442Y-95625518D01*
X210930442Y-95625518D01*
G37*
M02*
