G04 #@! TF.GenerationSoftware,KiCad,Pcbnew,(5.0.1)-3*
G04 #@! TF.CreationDate,2018-12-25T20:41:25+01:00*
G04 #@! TF.ProjectId,iLight,694C696768742E6B696361645F706362,rev?*
G04 #@! TF.SameCoordinates,Original*
G04 #@! TF.FileFunction,Copper,L1,Top,Signal*
G04 #@! TF.FilePolarity,Positive*
%FSLAX46Y46*%
G04 Gerber Fmt 4.6, Leading zero omitted, Abs format (unit mm)*
G04 Created by KiCad (PCBNEW (5.0.1)-3) date 25/12/2018 20:41:25*
%MOMM*%
%LPD*%
G01*
G04 APERTURE LIST*
G04 #@! TA.AperFunction,ComponentPad*
%ADD10O,1.700000X1.700000*%
G04 #@! TD*
G04 #@! TA.AperFunction,ComponentPad*
%ADD11R,1.700000X1.700000*%
G04 #@! TD*
G04 #@! TA.AperFunction,SMDPad,CuDef*
%ADD12R,0.750000X1.200000*%
G04 #@! TD*
G04 #@! TA.AperFunction,SMDPad,CuDef*
%ADD13R,1.200000X0.750000*%
G04 #@! TD*
G04 #@! TA.AperFunction,ComponentPad*
%ADD14C,2.000000*%
G04 #@! TD*
G04 #@! TA.AperFunction,ComponentPad*
%ADD15R,2.000000X2.000000*%
G04 #@! TD*
G04 #@! TA.AperFunction,SMDPad,CuDef*
%ADD16R,3.800000X1.400000*%
G04 #@! TD*
G04 #@! TA.AperFunction,SMDPad,CuDef*
%ADD17R,0.550000X1.600000*%
G04 #@! TD*
G04 #@! TA.AperFunction,SMDPad,CuDef*
%ADD18R,1.600000X0.550000*%
G04 #@! TD*
G04 #@! TA.AperFunction,SMDPad,CuDef*
%ADD19R,1.000000X2.500000*%
G04 #@! TD*
G04 #@! TA.AperFunction,SMDPad,CuDef*
%ADD20R,1.800000X1.000000*%
G04 #@! TD*
G04 #@! TA.AperFunction,SMDPad,CuDef*
%ADD21R,0.900000X1.200000*%
G04 #@! TD*
G04 #@! TA.AperFunction,SMDPad,CuDef*
%ADD22R,1.200000X0.900000*%
G04 #@! TD*
G04 #@! TA.AperFunction,SMDPad,CuDef*
%ADD23R,0.900000X0.800000*%
G04 #@! TD*
G04 #@! TA.AperFunction,ComponentPad*
%ADD24O,1.800000X1.800000*%
G04 #@! TD*
G04 #@! TA.AperFunction,ComponentPad*
%ADD25R,1.800000X1.800000*%
G04 #@! TD*
G04 #@! TA.AperFunction,ViaPad*
%ADD26C,0.800000*%
G04 #@! TD*
G04 #@! TA.AperFunction,Conductor*
%ADD27C,0.762000*%
G04 #@! TD*
G04 #@! TA.AperFunction,Conductor*
%ADD28C,0.304800*%
G04 #@! TD*
G04 #@! TA.AperFunction,Conductor*
%ADD29C,0.406400*%
G04 #@! TD*
G04 #@! TA.AperFunction,Conductor*
%ADD30C,0.088900*%
G04 #@! TD*
G04 #@! TA.AperFunction,Conductor*
%ADD31C,0.254000*%
G04 #@! TD*
G04 APERTURE END LIST*
D10*
G04 #@! TO.P,PROG1,4*
G04 #@! TO.N,/RXP*
X204470000Y-120650000D03*
G04 #@! TO.P,PROG1,3*
G04 #@! TO.N,/TXP*
X204470000Y-118110000D03*
G04 #@! TO.P,PROG1,2*
G04 #@! TO.N,/RST*
X204470000Y-115570000D03*
D11*
G04 #@! TO.P,PROG1,1*
G04 #@! TO.N,GNDD*
X204470000Y-113030000D03*
G04 #@! TD*
D10*
G04 #@! TO.P,P/W1,6*
G04 #@! TO.N,/RXP*
X195580000Y-119380000D03*
G04 #@! TO.P,P/W1,5*
G04 #@! TO.N,/TXP*
X193040000Y-119380000D03*
G04 #@! TO.P,P/W1,4*
G04 #@! TO.N,/RX*
X195580000Y-116840000D03*
G04 #@! TO.P,P/W1,3*
G04 #@! TO.N,/TX*
X193040000Y-116840000D03*
G04 #@! TO.P,P/W1,2*
G04 #@! TO.N,/RXW*
X195580000Y-114300000D03*
D11*
G04 #@! TO.P,P/W1,1*
G04 #@! TO.N,/TXW*
X193040000Y-114300000D03*
G04 #@! TD*
D10*
G04 #@! TO.P,ALIM1,2*
G04 #@! TO.N,+5V*
X185420000Y-96520000D03*
D11*
G04 #@! TO.P,ALIM1,1*
G04 #@! TO.N,GNDD*
X182880000Y-96520000D03*
G04 #@! TD*
D12*
G04 #@! TO.P,C2,2*
G04 #@! TO.N,GNDD*
X190881000Y-100899000D03*
G04 #@! TO.P,C2,1*
G04 #@! TO.N,+5V*
X190881000Y-98999000D03*
G04 #@! TD*
G04 #@! TO.P,C3,1*
G04 #@! TO.N,GNDD*
X170053000Y-116139000D03*
G04 #@! TO.P,C3,2*
G04 #@! TO.N,+5V*
X170053000Y-114239000D03*
G04 #@! TD*
G04 #@! TO.P,C4,2*
G04 #@! TO.N,Net-(C4-Pad2)*
X168783000Y-114239000D03*
G04 #@! TO.P,C4,1*
G04 #@! TO.N,GNDD*
X168783000Y-116139000D03*
G04 #@! TD*
G04 #@! TO.P,C5,1*
G04 #@! TO.N,Net-(C5-Pad1)*
X190500000Y-118994000D03*
G04 #@! TO.P,C5,2*
G04 #@! TO.N,GNDD*
X190500000Y-117094000D03*
G04 #@! TD*
G04 #@! TO.P,C6,2*
G04 #@! TO.N,+5V*
X189230000Y-119060000D03*
G04 #@! TO.P,C6,1*
G04 #@! TO.N,GNDD*
X189230000Y-117160000D03*
G04 #@! TD*
D13*
G04 #@! TO.P,C7,1*
G04 #@! TO.N,GNDD*
X208600000Y-100330000D03*
G04 #@! TO.P,C7,2*
G04 #@! TO.N,+5V*
X210500000Y-100330000D03*
G04 #@! TD*
G04 #@! TO.P,C8,2*
G04 #@! TO.N,+5V*
X184846000Y-99060000D03*
G04 #@! TO.P,C8,1*
G04 #@! TO.N,GNDD*
X182946000Y-99060000D03*
G04 #@! TD*
D14*
G04 #@! TO.P,C1,2*
G04 #@! TO.N,GNDD*
X196850000Y-101680000D03*
D15*
G04 #@! TO.P,C1,1*
G04 #@! TO.N,+5V*
X196850000Y-106680000D03*
G04 #@! TD*
D16*
G04 #@! TO.P,Y1,3*
G04 #@! TO.N,Net-(U3-Pad7)*
X172720000Y-119420000D03*
G04 #@! TO.P,Y1,2*
G04 #@! TO.N,GNDD*
X172720000Y-121920000D03*
G04 #@! TO.P,Y1,1*
G04 #@! TO.N,Net-(U3-Pad8)*
X172720000Y-124420000D03*
G04 #@! TD*
D17*
G04 #@! TO.P,U3,32*
G04 #@! TO.N,Net-(U3-Pad32)*
X180080000Y-113860000D03*
G04 #@! TO.P,U3,31*
G04 #@! TO.N,/TX*
X180880000Y-113860000D03*
G04 #@! TO.P,U3,30*
G04 #@! TO.N,/RX*
X181680000Y-113860000D03*
G04 #@! TO.P,U3,29*
G04 #@! TO.N,/RST*
X182480000Y-113860000D03*
G04 #@! TO.P,U3,28*
G04 #@! TO.N,Net-(U3-Pad28)*
X183280000Y-113860000D03*
G04 #@! TO.P,U3,27*
G04 #@! TO.N,Net-(U3-Pad27)*
X184080000Y-113860000D03*
G04 #@! TO.P,U3,26*
G04 #@! TO.N,Net-(U3-Pad26)*
X184880000Y-113860000D03*
G04 #@! TO.P,U3,25*
G04 #@! TO.N,Net-(U3-Pad25)*
X185680000Y-113860000D03*
D18*
G04 #@! TO.P,U3,24*
G04 #@! TO.N,Net-(U3-Pad24)*
X187130000Y-115310000D03*
G04 #@! TO.P,U3,23*
G04 #@! TO.N,Net-(U3-Pad23)*
X187130000Y-116110000D03*
G04 #@! TO.P,U3,22*
G04 #@! TO.N,Net-(U3-Pad22)*
X187130000Y-116910000D03*
G04 #@! TO.P,U3,21*
G04 #@! TO.N,GNDD*
X187130000Y-117710000D03*
G04 #@! TO.P,U3,20*
G04 #@! TO.N,Net-(C5-Pad1)*
X187130000Y-118510000D03*
G04 #@! TO.P,U3,19*
G04 #@! TO.N,Net-(U3-Pad19)*
X187130000Y-119310000D03*
G04 #@! TO.P,U3,18*
G04 #@! TO.N,+5V*
X187130000Y-120110000D03*
G04 #@! TO.P,U3,17*
G04 #@! TO.N,Net-(U3-Pad17)*
X187130000Y-120910000D03*
D17*
G04 #@! TO.P,U3,16*
G04 #@! TO.N,Net-(U3-Pad16)*
X185680000Y-122360000D03*
G04 #@! TO.P,U3,15*
G04 #@! TO.N,Net-(U3-Pad15)*
X184880000Y-122360000D03*
G04 #@! TO.P,U3,14*
G04 #@! TO.N,Net-(U3-Pad14)*
X184080000Y-122360000D03*
G04 #@! TO.P,U3,13*
G04 #@! TO.N,Net-(R3-Pad1)*
X183280000Y-122360000D03*
G04 #@! TO.P,U3,12*
G04 #@! TO.N,Net-(U3-Pad12)*
X182480000Y-122360000D03*
G04 #@! TO.P,U3,11*
G04 #@! TO.N,Net-(U3-Pad11)*
X181680000Y-122360000D03*
G04 #@! TO.P,U3,10*
G04 #@! TO.N,Net-(U3-Pad10)*
X180880000Y-122360000D03*
G04 #@! TO.P,U3,9*
G04 #@! TO.N,DATA*
X180080000Y-122360000D03*
D18*
G04 #@! TO.P,U3,8*
G04 #@! TO.N,Net-(U3-Pad8)*
X178630000Y-120910000D03*
G04 #@! TO.P,U3,7*
G04 #@! TO.N,Net-(U3-Pad7)*
X178630000Y-120110000D03*
G04 #@! TO.P,U3,6*
G04 #@! TO.N,+5V*
X178630000Y-119310000D03*
G04 #@! TO.P,U3,5*
G04 #@! TO.N,GNDD*
X178630000Y-118510000D03*
G04 #@! TO.P,U3,4*
G04 #@! TO.N,+5V*
X178630000Y-117710000D03*
G04 #@! TO.P,U3,3*
G04 #@! TO.N,GNDD*
X178630000Y-116910000D03*
G04 #@! TO.P,U3,2*
G04 #@! TO.N,Net-(U3-Pad2)*
X178630000Y-116110000D03*
G04 #@! TO.P,U3,1*
G04 #@! TO.N,Net-(U3-Pad1)*
X178630000Y-115310000D03*
G04 #@! TD*
D11*
G04 #@! TO.P,LAMP,1*
G04 #@! TO.N,Net-(J4-Pad1)*
X208280000Y-96520000D03*
D10*
G04 #@! TO.P,LAMP,2*
G04 #@! TO.N,+5V*
X210820000Y-96520000D03*
G04 #@! TD*
D11*
G04 #@! TO.P,LED,1*
G04 #@! TO.N,Net-(J5-Pad1)*
X193040000Y-96520000D03*
D10*
G04 #@! TO.P,LED,2*
G04 #@! TO.N,+5V*
X195580000Y-96520000D03*
G04 #@! TO.P,LED,3*
G04 #@! TO.N,DATA*
X198120000Y-96520000D03*
G04 #@! TO.P,LED,4*
G04 #@! TO.N,GNDD*
X200660000Y-96520000D03*
G04 #@! TD*
D19*
G04 #@! TO.P,U2,22*
G04 #@! TO.N,Net-(R1-Pad1)*
X207716000Y-140950000D03*
G04 #@! TO.P,U2,21*
G04 #@! TO.N,Net-(R2-Pad2)*
X205716000Y-140950000D03*
G04 #@! TO.P,U2,20*
G04 #@! TO.N,Net-(U2-Pad20)*
X203716000Y-140950000D03*
G04 #@! TO.P,U2,19*
G04 #@! TO.N,Net-(U2-Pad19)*
X201716000Y-140950000D03*
G04 #@! TO.P,U2,18*
G04 #@! TO.N,GNDD*
X199716000Y-140950000D03*
G04 #@! TO.P,U2,17*
G04 #@! TO.N,Net-(C4-Pad2)*
X197716000Y-140950000D03*
G04 #@! TO.P,U2,16*
G04 #@! TO.N,GNDD*
X195716000Y-140950000D03*
G04 #@! TO.P,U2,15*
X193716000Y-140950000D03*
D20*
G04 #@! TO.P,U2,14*
G04 #@! TO.N,Net-(U2-Pad14)*
X192216000Y-138350000D03*
G04 #@! TO.P,U2,13*
G04 #@! TO.N,Net-(U2-Pad13)*
X192216000Y-136350000D03*
G04 #@! TO.P,U2,12*
G04 #@! TO.N,Net-(U2-Pad12)*
X192216000Y-134350000D03*
G04 #@! TO.P,U2,11*
G04 #@! TO.N,Net-(U2-Pad11)*
X192216000Y-132350000D03*
G04 #@! TO.P,U2,10*
G04 #@! TO.N,Net-(U2-Pad10)*
X192216000Y-130350000D03*
G04 #@! TO.P,U2,9*
G04 #@! TO.N,Net-(U2-Pad9)*
X192216000Y-128350000D03*
D19*
G04 #@! TO.P,U2,8*
G04 #@! TO.N,Net-(C4-Pad2)*
X193716000Y-125750000D03*
G04 #@! TO.P,U2,7*
G04 #@! TO.N,Net-(U2-Pad7)*
X195716000Y-125750000D03*
G04 #@! TO.P,U2,6*
G04 #@! TO.N,Net-(U2-Pad6)*
X197716000Y-125750000D03*
G04 #@! TO.P,U2,5*
G04 #@! TO.N,Net-(U2-Pad5)*
X199716000Y-125750000D03*
G04 #@! TO.P,U2,4*
G04 #@! TO.N,Net-(U2-Pad4)*
X201716000Y-125750000D03*
G04 #@! TO.P,U2,3*
G04 #@! TO.N,Net-(C4-Pad2)*
X203716000Y-125750000D03*
G04 #@! TO.P,U2,2*
G04 #@! TO.N,Net-(U2-Pad2)*
X205716000Y-125750000D03*
G04 #@! TO.P,U2,1*
G04 #@! TO.N,Net-(C4-Pad2)*
X207716000Y-125750000D03*
G04 #@! TD*
D21*
G04 #@! TO.P,R1,2*
G04 #@! TO.N,/RXW*
X199263000Y-120185000D03*
G04 #@! TO.P,R1,1*
G04 #@! TO.N,Net-(R1-Pad1)*
X199263000Y-122385000D03*
G04 #@! TD*
G04 #@! TO.P,R2,1*
G04 #@! TO.N,/TXW*
X200914000Y-120185000D03*
G04 #@! TO.P,R2,2*
G04 #@! TO.N,Net-(R2-Pad2)*
X200914000Y-122385000D03*
G04 #@! TD*
D22*
G04 #@! TO.P,R3,2*
G04 #@! TO.N,Net-(Q1-Pad1)*
X188892000Y-109474000D03*
G04 #@! TO.P,R3,1*
G04 #@! TO.N,Net-(R3-Pad1)*
X191092000Y-109474000D03*
G04 #@! TD*
G04 #@! TO.P,R4,1*
G04 #@! TO.N,Net-(Q1-Pad1)*
X188892000Y-107950000D03*
G04 #@! TO.P,R4,2*
G04 #@! TO.N,GNDD*
X191092000Y-107950000D03*
G04 #@! TD*
G04 #@! TO.P,R5,2*
G04 #@! TO.N,/RST*
X182329000Y-111887000D03*
G04 #@! TO.P,R5,1*
G04 #@! TO.N,+5V*
X180129000Y-111887000D03*
G04 #@! TD*
D23*
G04 #@! TO.P,U1,3*
G04 #@! TO.N,+5V*
X171720000Y-114300000D03*
G04 #@! TO.P,U1,2*
G04 #@! TO.N,Net-(C4-Pad2)*
X173720000Y-113350000D03*
G04 #@! TO.P,U1,1*
G04 #@! TO.N,GNDD*
X173720000Y-115250000D03*
G04 #@! TD*
D24*
G04 #@! TO.P,Q1,3*
G04 #@! TO.N,GNDD*
X186690000Y-102870000D03*
G04 #@! TO.P,Q1,2*
G04 #@! TO.N,Net-(J4-Pad1)*
X186690000Y-105410000D03*
D25*
G04 #@! TO.P,Q1,1*
G04 #@! TO.N,Net-(Q1-Pad1)*
X186690000Y-107950000D03*
G04 #@! TD*
D26*
G04 #@! TO.N,GNDD*
X190881000Y-100899000D03*
X185166000Y-129667000D03*
X177419000Y-113284000D03*
G04 #@! TO.N,+5V*
X180467000Y-116713000D03*
X180129000Y-111887000D03*
X184658000Y-120142000D03*
G04 #@! TO.N,Net-(C4-Pad2)*
X173720000Y-113350000D03*
X168783000Y-114239000D03*
G04 #@! TO.N,/RST*
X182329000Y-111887000D03*
G04 #@! TO.N,/RX*
X183388000Y-115951000D03*
G04 #@! TO.N,/TX*
X180848000Y-115062000D03*
G04 #@! TO.N,DATA*
X180594000Y-120396000D03*
X201676000Y-105664000D03*
G04 #@! TD*
D27*
G04 #@! TO.N,GNDD*
X182880000Y-98994000D02*
X182946000Y-99060000D01*
X182880000Y-96520000D02*
X182880000Y-98994000D01*
X198200000Y-100330000D02*
X196850000Y-101680000D01*
X208600000Y-100330000D02*
X198200000Y-100330000D01*
X200660000Y-97870000D02*
X198200000Y-100330000D01*
X200660000Y-96520000D02*
X200660000Y-97870000D01*
X199716000Y-142962000D02*
X199041000Y-143637000D01*
X199716000Y-140950000D02*
X199716000Y-142962000D01*
X199041000Y-143637000D02*
X197653000Y-143637000D01*
X193716000Y-143469000D02*
X193548000Y-143637000D01*
X193716000Y-140950000D02*
X193716000Y-143469000D01*
X193548000Y-143637000D02*
X186944000Y-143637000D01*
X195707000Y-142971000D02*
X195707000Y-143637000D01*
X195716000Y-142962000D02*
X195707000Y-142971000D01*
X195716000Y-140950000D02*
X195716000Y-142962000D01*
X197653000Y-143637000D02*
X195707000Y-143637000D01*
X195707000Y-143637000D02*
X193548000Y-143637000D01*
X186944000Y-143637000D02*
X186690000Y-143637000D01*
X186690000Y-143637000D02*
X185166000Y-142113000D01*
X185166000Y-142113000D02*
X185166000Y-129667000D01*
D28*
X168783000Y-116139000D02*
X170053000Y-116139000D01*
X171520000Y-121920000D02*
X172720000Y-121920000D01*
X170053000Y-120453000D02*
X171520000Y-121920000D01*
X170053000Y-116139000D02*
X170053000Y-120453000D01*
X173720000Y-115954800D02*
X173720000Y-115250000D01*
X173535800Y-116139000D02*
X173720000Y-115954800D01*
X170053000Y-116139000D02*
X173535800Y-116139000D01*
X173535800Y-116139000D02*
X174306800Y-116910000D01*
X176784000Y-117768800D02*
X176784000Y-116910000D01*
X177525200Y-118510000D02*
X176784000Y-117768800D01*
X178630000Y-118510000D02*
X177525200Y-118510000D01*
X174306800Y-116910000D02*
X176784000Y-116910000D01*
X176784000Y-116910000D02*
X178630000Y-116910000D01*
X188680000Y-117710000D02*
X189230000Y-117160000D01*
X187130000Y-117710000D02*
X188680000Y-117710000D01*
X190434000Y-117160000D02*
X190500000Y-117094000D01*
X189230000Y-117160000D02*
X190434000Y-117160000D01*
D29*
X175453000Y-115250000D02*
X177419000Y-113284000D01*
X173720000Y-115250000D02*
X175453000Y-115250000D01*
X185923600Y-117710000D02*
X187130000Y-117710000D01*
X179836400Y-118510000D02*
X180636400Y-117710000D01*
X178630000Y-118510000D02*
X179836400Y-118510000D01*
X180636400Y-117710000D02*
X185923600Y-117710000D01*
X204470000Y-111773600D02*
X201916400Y-109220000D01*
X204470000Y-113030000D02*
X204470000Y-111773600D01*
X201916400Y-109220000D02*
X195199000Y-109220000D01*
X193929000Y-107950000D02*
X191092000Y-107950000D01*
X195199000Y-109220000D02*
X193929000Y-107950000D01*
X190881000Y-100899000D02*
X190881000Y-105410000D01*
X191092000Y-105621000D02*
X191092000Y-107950000D01*
X190881000Y-105410000D02*
X191092000Y-105621000D01*
G04 #@! TO.N,Net-(Q1-Pad1)*
X186690000Y-107950000D02*
X188892000Y-107950000D01*
X188892000Y-107950000D02*
X188892000Y-109474000D01*
D27*
G04 #@! TO.N,+5V*
X185420000Y-98486000D02*
X184846000Y-99060000D01*
X185420000Y-96520000D02*
X185420000Y-98486000D01*
X190820000Y-99060000D02*
X190881000Y-98999000D01*
X184846000Y-99060000D02*
X190820000Y-99060000D01*
X193101000Y-98999000D02*
X195580000Y-96520000D01*
X190881000Y-98999000D02*
X193101000Y-98999000D01*
X193101000Y-104693000D02*
X193101000Y-98999000D01*
X195088000Y-106680000D02*
X193101000Y-104693000D01*
X196850000Y-106680000D02*
X195088000Y-106680000D01*
X210820000Y-100010000D02*
X210500000Y-100330000D01*
X210820000Y-96520000D02*
X210820000Y-100010000D01*
X196850000Y-106680000D02*
X206375000Y-106680000D01*
X210500000Y-102555000D02*
X210500000Y-100330000D01*
X206375000Y-106680000D02*
X210500000Y-102555000D01*
X184846000Y-101285000D02*
X184846000Y-99060000D01*
X180129000Y-106002000D02*
X184846000Y-101285000D01*
X171659000Y-114239000D02*
X171720000Y-114300000D01*
X170053000Y-114239000D02*
X171659000Y-114239000D01*
X170053000Y-114239000D02*
X170053000Y-110363000D01*
X171704000Y-108712000D02*
X180129000Y-108712000D01*
X170053000Y-110363000D02*
X171704000Y-108712000D01*
X180129000Y-111887000D02*
X180129000Y-108712000D01*
X180129000Y-108712000D02*
X180129000Y-106002000D01*
D28*
X188180000Y-120110000D02*
X189230000Y-119060000D01*
X187130000Y-120110000D02*
X188180000Y-120110000D01*
D29*
X180467000Y-116873762D02*
X180467000Y-116713000D01*
X178630000Y-117710000D02*
X179630762Y-117710000D01*
X179630762Y-117710000D02*
X180467000Y-116873762D01*
X187098000Y-120142000D02*
X187130000Y-120110000D01*
X184658000Y-120142000D02*
X187098000Y-120142000D01*
X183826000Y-119310000D02*
X178630000Y-119310000D01*
X184658000Y-120142000D02*
X183826000Y-119310000D01*
D28*
G04 #@! TO.N,Net-(C4-Pad2)*
X168055599Y-115191401D02*
X168055599Y-127288599D01*
X168783000Y-114239000D02*
X168783000Y-114464000D01*
X168783000Y-114464000D02*
X168055599Y-115191401D01*
X168055599Y-127288599D02*
X169545000Y-128778000D01*
X169545000Y-128778000D02*
X181737000Y-128778000D01*
X184765000Y-125750000D02*
X193716000Y-125750000D01*
X181737000Y-128778000D02*
X184765000Y-125750000D01*
X197716000Y-139395200D02*
X197716000Y-140950000D01*
X197716000Y-131304800D02*
X197716000Y-139395200D01*
X193716000Y-127304800D02*
X197716000Y-131304800D01*
X193716000Y-125750000D02*
X193716000Y-127304800D01*
X203716000Y-127304800D02*
X203716000Y-125750000D01*
X203716000Y-128770000D02*
X203716000Y-127304800D01*
X201181200Y-131304800D02*
X203716000Y-128770000D01*
X197716000Y-131304800D02*
X201181200Y-131304800D01*
X205446000Y-128770000D02*
X203716000Y-128770000D01*
X207716000Y-126500000D02*
X205446000Y-128770000D01*
X207716000Y-125750000D02*
X207716000Y-126500000D01*
G04 #@! TO.N,/RST*
X182480000Y-112038000D02*
X182329000Y-111887000D01*
X182480000Y-113860000D02*
X182480000Y-112038000D01*
D29*
G04 #@! TO.N,Net-(R3-Pad1)*
X191278201Y-110516601D02*
X191278201Y-121903799D01*
X191092000Y-109474000D02*
X191092000Y-110330400D01*
X191092000Y-110330400D02*
X191278201Y-110516601D01*
X191278201Y-121903799D02*
X188341000Y-124841000D01*
X188341000Y-124841000D02*
X184404000Y-124841000D01*
X183280000Y-123717000D02*
X183280000Y-122360000D01*
X184404000Y-124841000D02*
X183280000Y-123717000D01*
D28*
G04 #@! TO.N,/TXW*
X200914000Y-120185000D02*
X200914000Y-116586000D01*
X200914000Y-116586000D02*
X196723000Y-112395000D01*
X193040000Y-113145200D02*
X193040000Y-114300000D01*
X193790200Y-112395000D02*
X193040000Y-113145200D01*
X196723000Y-112395000D02*
X193790200Y-112395000D01*
G04 #@! TO.N,/RXW*
X199263000Y-117983000D02*
X195580000Y-114300000D01*
X199263000Y-120185000D02*
X199263000Y-117983000D01*
G04 #@! TO.N,/RX*
X181680000Y-113860000D02*
X181680000Y-115386000D01*
X181680000Y-115386000D02*
X182245000Y-115951000D01*
X182245000Y-115951000D02*
X183388000Y-115951000D01*
G04 #@! TO.N,/TX*
X180848000Y-113892000D02*
X180880000Y-113860000D01*
X180848000Y-115062000D02*
X180848000Y-113892000D01*
D29*
G04 #@! TO.N,DATA*
X180080000Y-122360000D02*
X180080000Y-120910000D01*
X180080000Y-120910000D02*
X180594000Y-120396000D01*
X201676000Y-105098315D02*
X200082685Y-103505000D01*
X201676000Y-105664000D02*
X201676000Y-105098315D01*
X200082685Y-103505000D02*
X195834000Y-103505000D01*
X195834000Y-103505000D02*
X194564000Y-102235000D01*
X194564000Y-100076000D02*
X195580000Y-99060000D01*
X194564000Y-102235000D02*
X194564000Y-100076000D01*
X195580000Y-99060000D02*
X196850000Y-99060000D01*
X198120000Y-97790000D02*
X198120000Y-96520000D01*
X196850000Y-99060000D02*
X198120000Y-97790000D01*
D30*
G04 #@! TO.N,Net-(C5-Pad1)*
X190500000Y-118769000D02*
X190500000Y-118994000D01*
X189946549Y-118215549D02*
X190500000Y-118769000D01*
X188313351Y-118215549D02*
X189946549Y-118215549D01*
X188018900Y-118510000D02*
X188313351Y-118215549D01*
X187130000Y-118510000D02*
X188018900Y-118510000D01*
D29*
G04 #@! TO.N,Net-(U3-Pad8)*
X178630000Y-120910000D02*
X176270000Y-120910000D01*
X176270000Y-120910000D02*
X175768000Y-121412000D01*
X175768000Y-121412000D02*
X175768000Y-123952000D01*
X175300000Y-124420000D02*
X172720000Y-124420000D01*
X175768000Y-123952000D02*
X175300000Y-124420000D01*
G04 #@! TO.N,Net-(U3-Pad7)*
X177423600Y-120110000D02*
X178630000Y-120110000D01*
X175716400Y-120110000D02*
X177423600Y-120110000D01*
X175026400Y-119420000D02*
X175716400Y-120110000D01*
X172720000Y-119420000D02*
X175026400Y-119420000D01*
G04 #@! TD*
D31*
G04 #@! TO.N,GNDD*
G36*
X181395000Y-95543691D02*
X181395000Y-96234250D01*
X181553750Y-96393000D01*
X182753000Y-96393000D01*
X182753000Y-96373000D01*
X183007000Y-96373000D01*
X183007000Y-96393000D01*
X183027000Y-96393000D01*
X183027000Y-96647000D01*
X183007000Y-96647000D01*
X183007000Y-97846250D01*
X183165750Y-98005000D01*
X183856310Y-98005000D01*
X184089699Y-97908327D01*
X184268327Y-97729698D01*
X184334904Y-97568967D01*
X184349375Y-97590625D01*
X184404001Y-97627125D01*
X184404001Y-98037560D01*
X184246000Y-98037560D01*
X183998235Y-98086843D01*
X183906898Y-98147873D01*
X183905698Y-98146673D01*
X183672309Y-98050000D01*
X183231750Y-98050000D01*
X183073000Y-98208750D01*
X183073000Y-98933000D01*
X183093000Y-98933000D01*
X183093000Y-99187000D01*
X183073000Y-99187000D01*
X183073000Y-99911250D01*
X183231750Y-100070000D01*
X183672309Y-100070000D01*
X183830001Y-100004682D01*
X183830000Y-100864159D01*
X179481338Y-105212822D01*
X179396506Y-105269505D01*
X179339823Y-105354337D01*
X179171950Y-105605577D01*
X179093096Y-106002000D01*
X179113001Y-106102068D01*
X179113000Y-107696000D01*
X171804064Y-107696000D01*
X171704000Y-107676096D01*
X171603936Y-107696000D01*
X171603935Y-107696000D01*
X171307577Y-107754949D01*
X170971505Y-107979505D01*
X170914822Y-108064337D01*
X169405337Y-109573822D01*
X169320506Y-109630505D01*
X169263823Y-109715337D01*
X169095950Y-109966577D01*
X169017096Y-110363000D01*
X169037001Y-110463068D01*
X169037000Y-112991560D01*
X168408000Y-112991560D01*
X168160235Y-113040843D01*
X167950191Y-113181191D01*
X167809843Y-113391235D01*
X167760560Y-113639000D01*
X167760560Y-114002803D01*
X167748000Y-114033126D01*
X167748000Y-114385449D01*
X167553664Y-114579785D01*
X167487915Y-114623717D01*
X167313884Y-114884174D01*
X167273107Y-115089177D01*
X167252773Y-115191401D01*
X167268199Y-115268952D01*
X167268200Y-127211043D01*
X167252773Y-127288599D01*
X167313885Y-127595827D01*
X167487916Y-127856283D01*
X167553662Y-127900213D01*
X168933386Y-129279938D01*
X168977316Y-129345684D01*
X169237772Y-129519715D01*
X169467448Y-129565400D01*
X169544999Y-129580826D01*
X169622550Y-129565400D01*
X181659449Y-129565400D01*
X181737000Y-129580826D01*
X181814551Y-129565400D01*
X181814552Y-129565400D01*
X182044228Y-129519715D01*
X182304684Y-129345684D01*
X182348616Y-129279935D01*
X185091152Y-126537400D01*
X192568560Y-126537400D01*
X192568560Y-127000000D01*
X192608851Y-127202560D01*
X191316000Y-127202560D01*
X191068235Y-127251843D01*
X190858191Y-127392191D01*
X190717843Y-127602235D01*
X190668560Y-127850000D01*
X190668560Y-128850000D01*
X190717843Y-129097765D01*
X190858191Y-129307809D01*
X190921334Y-129350000D01*
X190858191Y-129392191D01*
X190717843Y-129602235D01*
X190668560Y-129850000D01*
X190668560Y-130850000D01*
X190717843Y-131097765D01*
X190858191Y-131307809D01*
X190921334Y-131350000D01*
X190858191Y-131392191D01*
X190717843Y-131602235D01*
X190668560Y-131850000D01*
X190668560Y-132850000D01*
X190717843Y-133097765D01*
X190858191Y-133307809D01*
X190921334Y-133350000D01*
X190858191Y-133392191D01*
X190717843Y-133602235D01*
X190668560Y-133850000D01*
X190668560Y-134850000D01*
X190717843Y-135097765D01*
X190858191Y-135307809D01*
X190921334Y-135350000D01*
X190858191Y-135392191D01*
X190717843Y-135602235D01*
X190668560Y-135850000D01*
X190668560Y-136850000D01*
X190717843Y-137097765D01*
X190858191Y-137307809D01*
X190921334Y-137350000D01*
X190858191Y-137392191D01*
X190717843Y-137602235D01*
X190668560Y-137850000D01*
X190668560Y-138850000D01*
X190717843Y-139097765D01*
X190858191Y-139307809D01*
X191068235Y-139448157D01*
X191316000Y-139497440D01*
X192612584Y-139497440D01*
X192581000Y-139573691D01*
X192581000Y-140664250D01*
X192739750Y-140823000D01*
X193589000Y-140823000D01*
X193589000Y-140803000D01*
X193843000Y-140803000D01*
X193843000Y-140823000D01*
X194692250Y-140823000D01*
X194716000Y-140799250D01*
X194739750Y-140823000D01*
X195589000Y-140823000D01*
X195589000Y-139223750D01*
X195430250Y-139065000D01*
X195089690Y-139065000D01*
X194856301Y-139161673D01*
X194716000Y-139301975D01*
X194575699Y-139161673D01*
X194342310Y-139065000D01*
X194001750Y-139065000D01*
X193843002Y-139223748D01*
X193843002Y-139065000D01*
X193720674Y-139065000D01*
X193763440Y-138850000D01*
X193763440Y-137850000D01*
X193714157Y-137602235D01*
X193573809Y-137392191D01*
X193510666Y-137350000D01*
X193573809Y-137307809D01*
X193714157Y-137097765D01*
X193763440Y-136850000D01*
X193763440Y-135850000D01*
X193714157Y-135602235D01*
X193573809Y-135392191D01*
X193510666Y-135350000D01*
X193573809Y-135307809D01*
X193714157Y-135097765D01*
X193763440Y-134850000D01*
X193763440Y-133850000D01*
X193714157Y-133602235D01*
X193573809Y-133392191D01*
X193510666Y-133350000D01*
X193573809Y-133307809D01*
X193714157Y-133097765D01*
X193763440Y-132850000D01*
X193763440Y-131850000D01*
X193714157Y-131602235D01*
X193573809Y-131392191D01*
X193510666Y-131350000D01*
X193573809Y-131307809D01*
X193714157Y-131097765D01*
X193763440Y-130850000D01*
X193763440Y-129850000D01*
X193714157Y-129602235D01*
X193573809Y-129392191D01*
X193510666Y-129350000D01*
X193573809Y-129307809D01*
X193714157Y-129097765D01*
X193763440Y-128850000D01*
X193763440Y-128465791D01*
X196928600Y-131630952D01*
X196928601Y-139128326D01*
X196758191Y-139242191D01*
X196717345Y-139303320D01*
X196575699Y-139161673D01*
X196342310Y-139065000D01*
X196001750Y-139065000D01*
X195843000Y-139223750D01*
X195843000Y-140823000D01*
X195863000Y-140823000D01*
X195863000Y-141077000D01*
X195843000Y-141077000D01*
X195843000Y-142676250D01*
X196001750Y-142835000D01*
X196342310Y-142835000D01*
X196575699Y-142738327D01*
X196717345Y-142596680D01*
X196758191Y-142657809D01*
X196968235Y-142798157D01*
X197216000Y-142847440D01*
X198216000Y-142847440D01*
X198463765Y-142798157D01*
X198673809Y-142657809D01*
X198714655Y-142596680D01*
X198856301Y-142738327D01*
X199089690Y-142835000D01*
X199430250Y-142835000D01*
X199589000Y-142676250D01*
X199589000Y-141077000D01*
X199569000Y-141077000D01*
X199569000Y-140823000D01*
X199589000Y-140823000D01*
X199589000Y-139223750D01*
X199430250Y-139065000D01*
X199089690Y-139065000D01*
X198856301Y-139161673D01*
X198714655Y-139303320D01*
X198673809Y-139242191D01*
X198503400Y-139128326D01*
X198503400Y-132092200D01*
X201103649Y-132092200D01*
X201181200Y-132107626D01*
X201258751Y-132092200D01*
X201258752Y-132092200D01*
X201488428Y-132046515D01*
X201748884Y-131872484D01*
X201792816Y-131806735D01*
X204042152Y-129557400D01*
X205368449Y-129557400D01*
X205446000Y-129572826D01*
X205523551Y-129557400D01*
X205523552Y-129557400D01*
X205613000Y-129539608D01*
X205613000Y-139052560D01*
X205216000Y-139052560D01*
X204968235Y-139101843D01*
X204758191Y-139242191D01*
X204716000Y-139305334D01*
X204673809Y-139242191D01*
X204463765Y-139101843D01*
X204216000Y-139052560D01*
X203216000Y-139052560D01*
X202968235Y-139101843D01*
X202758191Y-139242191D01*
X202716000Y-139305334D01*
X202673809Y-139242191D01*
X202463765Y-139101843D01*
X202216000Y-139052560D01*
X201216000Y-139052560D01*
X200968235Y-139101843D01*
X200758191Y-139242191D01*
X200717345Y-139303320D01*
X200575699Y-139161673D01*
X200342310Y-139065000D01*
X200001750Y-139065000D01*
X199843000Y-139223750D01*
X199843000Y-140823000D01*
X199863000Y-140823000D01*
X199863000Y-141077000D01*
X199843000Y-141077000D01*
X199843000Y-142676250D01*
X200001750Y-142835000D01*
X200342310Y-142835000D01*
X200575699Y-142738327D01*
X200717345Y-142596680D01*
X200758191Y-142657809D01*
X200968235Y-142798157D01*
X201216000Y-142847440D01*
X202216000Y-142847440D01*
X202463765Y-142798157D01*
X202673809Y-142657809D01*
X202716000Y-142594666D01*
X202758191Y-142657809D01*
X202968235Y-142798157D01*
X203216000Y-142847440D01*
X204216000Y-142847440D01*
X204463765Y-142798157D01*
X204673809Y-142657809D01*
X204716000Y-142594666D01*
X204758191Y-142657809D01*
X204968235Y-142798157D01*
X205216000Y-142847440D01*
X205613000Y-142847440D01*
X205613000Y-143383000D01*
X166497000Y-143383000D01*
X166497000Y-141235750D01*
X192581000Y-141235750D01*
X192581000Y-142326309D01*
X192677673Y-142559698D01*
X192856301Y-142738327D01*
X193089690Y-142835000D01*
X193430250Y-142835000D01*
X193589000Y-142676250D01*
X193589000Y-141077000D01*
X193843000Y-141077000D01*
X193843000Y-142676250D01*
X194001750Y-142835000D01*
X194342310Y-142835000D01*
X194575699Y-142738327D01*
X194716000Y-142598025D01*
X194856301Y-142738327D01*
X195089690Y-142835000D01*
X195430250Y-142835000D01*
X195589000Y-142676250D01*
X195589000Y-141077000D01*
X194739750Y-141077000D01*
X194716000Y-141100750D01*
X194692250Y-141077000D01*
X193843000Y-141077000D01*
X193589000Y-141077000D01*
X192739750Y-141077000D01*
X192581000Y-141235750D01*
X166497000Y-141235750D01*
X166497000Y-105410000D01*
X167598276Y-105410000D01*
X167783380Y-106340580D01*
X168310511Y-107129489D01*
X169099420Y-107656620D01*
X169795103Y-107795000D01*
X170264897Y-107795000D01*
X170960580Y-107656620D01*
X171749489Y-107129489D01*
X172276620Y-106340580D01*
X172461724Y-105410000D01*
X172276620Y-104479420D01*
X171749489Y-103690511D01*
X170960580Y-103163380D01*
X170264897Y-103025000D01*
X169795103Y-103025000D01*
X169099420Y-103163380D01*
X168310511Y-103690511D01*
X167783380Y-104479420D01*
X167598276Y-105410000D01*
X166497000Y-105410000D01*
X166497000Y-99345750D01*
X181711000Y-99345750D01*
X181711000Y-99561310D01*
X181807673Y-99794699D01*
X181986302Y-99973327D01*
X182219691Y-100070000D01*
X182660250Y-100070000D01*
X182819000Y-99911250D01*
X182819000Y-99187000D01*
X181869750Y-99187000D01*
X181711000Y-99345750D01*
X166497000Y-99345750D01*
X166497000Y-98558690D01*
X181711000Y-98558690D01*
X181711000Y-98774250D01*
X181869750Y-98933000D01*
X182819000Y-98933000D01*
X182819000Y-98208750D01*
X182660250Y-98050000D01*
X182219691Y-98050000D01*
X181986302Y-98146673D01*
X181807673Y-98325301D01*
X181711000Y-98558690D01*
X166497000Y-98558690D01*
X166497000Y-96805750D01*
X181395000Y-96805750D01*
X181395000Y-97496309D01*
X181491673Y-97729698D01*
X181670301Y-97908327D01*
X181903690Y-98005000D01*
X182594250Y-98005000D01*
X182753000Y-97846250D01*
X182753000Y-96647000D01*
X181553750Y-96647000D01*
X181395000Y-96805750D01*
X166497000Y-96805750D01*
X166497000Y-95377000D01*
X181464046Y-95377000D01*
X181395000Y-95543691D01*
X181395000Y-95543691D01*
G37*
X181395000Y-95543691D02*
X181395000Y-96234250D01*
X181553750Y-96393000D01*
X182753000Y-96393000D01*
X182753000Y-96373000D01*
X183007000Y-96373000D01*
X183007000Y-96393000D01*
X183027000Y-96393000D01*
X183027000Y-96647000D01*
X183007000Y-96647000D01*
X183007000Y-97846250D01*
X183165750Y-98005000D01*
X183856310Y-98005000D01*
X184089699Y-97908327D01*
X184268327Y-97729698D01*
X184334904Y-97568967D01*
X184349375Y-97590625D01*
X184404001Y-97627125D01*
X184404001Y-98037560D01*
X184246000Y-98037560D01*
X183998235Y-98086843D01*
X183906898Y-98147873D01*
X183905698Y-98146673D01*
X183672309Y-98050000D01*
X183231750Y-98050000D01*
X183073000Y-98208750D01*
X183073000Y-98933000D01*
X183093000Y-98933000D01*
X183093000Y-99187000D01*
X183073000Y-99187000D01*
X183073000Y-99911250D01*
X183231750Y-100070000D01*
X183672309Y-100070000D01*
X183830001Y-100004682D01*
X183830000Y-100864159D01*
X179481338Y-105212822D01*
X179396506Y-105269505D01*
X179339823Y-105354337D01*
X179171950Y-105605577D01*
X179093096Y-106002000D01*
X179113001Y-106102068D01*
X179113000Y-107696000D01*
X171804064Y-107696000D01*
X171704000Y-107676096D01*
X171603936Y-107696000D01*
X171603935Y-107696000D01*
X171307577Y-107754949D01*
X170971505Y-107979505D01*
X170914822Y-108064337D01*
X169405337Y-109573822D01*
X169320506Y-109630505D01*
X169263823Y-109715337D01*
X169095950Y-109966577D01*
X169017096Y-110363000D01*
X169037001Y-110463068D01*
X169037000Y-112991560D01*
X168408000Y-112991560D01*
X168160235Y-113040843D01*
X167950191Y-113181191D01*
X167809843Y-113391235D01*
X167760560Y-113639000D01*
X167760560Y-114002803D01*
X167748000Y-114033126D01*
X167748000Y-114385449D01*
X167553664Y-114579785D01*
X167487915Y-114623717D01*
X167313884Y-114884174D01*
X167273107Y-115089177D01*
X167252773Y-115191401D01*
X167268199Y-115268952D01*
X167268200Y-127211043D01*
X167252773Y-127288599D01*
X167313885Y-127595827D01*
X167487916Y-127856283D01*
X167553662Y-127900213D01*
X168933386Y-129279938D01*
X168977316Y-129345684D01*
X169237772Y-129519715D01*
X169467448Y-129565400D01*
X169544999Y-129580826D01*
X169622550Y-129565400D01*
X181659449Y-129565400D01*
X181737000Y-129580826D01*
X181814551Y-129565400D01*
X181814552Y-129565400D01*
X182044228Y-129519715D01*
X182304684Y-129345684D01*
X182348616Y-129279935D01*
X185091152Y-126537400D01*
X192568560Y-126537400D01*
X192568560Y-127000000D01*
X192608851Y-127202560D01*
X191316000Y-127202560D01*
X191068235Y-127251843D01*
X190858191Y-127392191D01*
X190717843Y-127602235D01*
X190668560Y-127850000D01*
X190668560Y-128850000D01*
X190717843Y-129097765D01*
X190858191Y-129307809D01*
X190921334Y-129350000D01*
X190858191Y-129392191D01*
X190717843Y-129602235D01*
X190668560Y-129850000D01*
X190668560Y-130850000D01*
X190717843Y-131097765D01*
X190858191Y-131307809D01*
X190921334Y-131350000D01*
X190858191Y-131392191D01*
X190717843Y-131602235D01*
X190668560Y-131850000D01*
X190668560Y-132850000D01*
X190717843Y-133097765D01*
X190858191Y-133307809D01*
X190921334Y-133350000D01*
X190858191Y-133392191D01*
X190717843Y-133602235D01*
X190668560Y-133850000D01*
X190668560Y-134850000D01*
X190717843Y-135097765D01*
X190858191Y-135307809D01*
X190921334Y-135350000D01*
X190858191Y-135392191D01*
X190717843Y-135602235D01*
X190668560Y-135850000D01*
X190668560Y-136850000D01*
X190717843Y-137097765D01*
X190858191Y-137307809D01*
X190921334Y-137350000D01*
X190858191Y-137392191D01*
X190717843Y-137602235D01*
X190668560Y-137850000D01*
X190668560Y-138850000D01*
X190717843Y-139097765D01*
X190858191Y-139307809D01*
X191068235Y-139448157D01*
X191316000Y-139497440D01*
X192612584Y-139497440D01*
X192581000Y-139573691D01*
X192581000Y-140664250D01*
X192739750Y-140823000D01*
X193589000Y-140823000D01*
X193589000Y-140803000D01*
X193843000Y-140803000D01*
X193843000Y-140823000D01*
X194692250Y-140823000D01*
X194716000Y-140799250D01*
X194739750Y-140823000D01*
X195589000Y-140823000D01*
X195589000Y-139223750D01*
X195430250Y-139065000D01*
X195089690Y-139065000D01*
X194856301Y-139161673D01*
X194716000Y-139301975D01*
X194575699Y-139161673D01*
X194342310Y-139065000D01*
X194001750Y-139065000D01*
X193843002Y-139223748D01*
X193843002Y-139065000D01*
X193720674Y-139065000D01*
X193763440Y-138850000D01*
X193763440Y-137850000D01*
X193714157Y-137602235D01*
X193573809Y-137392191D01*
X193510666Y-137350000D01*
X193573809Y-137307809D01*
X193714157Y-137097765D01*
X193763440Y-136850000D01*
X193763440Y-135850000D01*
X193714157Y-135602235D01*
X193573809Y-135392191D01*
X193510666Y-135350000D01*
X193573809Y-135307809D01*
X193714157Y-135097765D01*
X193763440Y-134850000D01*
X193763440Y-133850000D01*
X193714157Y-133602235D01*
X193573809Y-133392191D01*
X193510666Y-133350000D01*
X193573809Y-133307809D01*
X193714157Y-133097765D01*
X193763440Y-132850000D01*
X193763440Y-131850000D01*
X193714157Y-131602235D01*
X193573809Y-131392191D01*
X193510666Y-131350000D01*
X193573809Y-131307809D01*
X193714157Y-131097765D01*
X193763440Y-130850000D01*
X193763440Y-129850000D01*
X193714157Y-129602235D01*
X193573809Y-129392191D01*
X193510666Y-129350000D01*
X193573809Y-129307809D01*
X193714157Y-129097765D01*
X193763440Y-128850000D01*
X193763440Y-128465791D01*
X196928600Y-131630952D01*
X196928601Y-139128326D01*
X196758191Y-139242191D01*
X196717345Y-139303320D01*
X196575699Y-139161673D01*
X196342310Y-139065000D01*
X196001750Y-139065000D01*
X195843000Y-139223750D01*
X195843000Y-140823000D01*
X195863000Y-140823000D01*
X195863000Y-141077000D01*
X195843000Y-141077000D01*
X195843000Y-142676250D01*
X196001750Y-142835000D01*
X196342310Y-142835000D01*
X196575699Y-142738327D01*
X196717345Y-142596680D01*
X196758191Y-142657809D01*
X196968235Y-142798157D01*
X197216000Y-142847440D01*
X198216000Y-142847440D01*
X198463765Y-142798157D01*
X198673809Y-142657809D01*
X198714655Y-142596680D01*
X198856301Y-142738327D01*
X199089690Y-142835000D01*
X199430250Y-142835000D01*
X199589000Y-142676250D01*
X199589000Y-141077000D01*
X199569000Y-141077000D01*
X199569000Y-140823000D01*
X199589000Y-140823000D01*
X199589000Y-139223750D01*
X199430250Y-139065000D01*
X199089690Y-139065000D01*
X198856301Y-139161673D01*
X198714655Y-139303320D01*
X198673809Y-139242191D01*
X198503400Y-139128326D01*
X198503400Y-132092200D01*
X201103649Y-132092200D01*
X201181200Y-132107626D01*
X201258751Y-132092200D01*
X201258752Y-132092200D01*
X201488428Y-132046515D01*
X201748884Y-131872484D01*
X201792816Y-131806735D01*
X204042152Y-129557400D01*
X205368449Y-129557400D01*
X205446000Y-129572826D01*
X205523551Y-129557400D01*
X205523552Y-129557400D01*
X205613000Y-129539608D01*
X205613000Y-139052560D01*
X205216000Y-139052560D01*
X204968235Y-139101843D01*
X204758191Y-139242191D01*
X204716000Y-139305334D01*
X204673809Y-139242191D01*
X204463765Y-139101843D01*
X204216000Y-139052560D01*
X203216000Y-139052560D01*
X202968235Y-139101843D01*
X202758191Y-139242191D01*
X202716000Y-139305334D01*
X202673809Y-139242191D01*
X202463765Y-139101843D01*
X202216000Y-139052560D01*
X201216000Y-139052560D01*
X200968235Y-139101843D01*
X200758191Y-139242191D01*
X200717345Y-139303320D01*
X200575699Y-139161673D01*
X200342310Y-139065000D01*
X200001750Y-139065000D01*
X199843000Y-139223750D01*
X199843000Y-140823000D01*
X199863000Y-140823000D01*
X199863000Y-141077000D01*
X199843000Y-141077000D01*
X199843000Y-142676250D01*
X200001750Y-142835000D01*
X200342310Y-142835000D01*
X200575699Y-142738327D01*
X200717345Y-142596680D01*
X200758191Y-142657809D01*
X200968235Y-142798157D01*
X201216000Y-142847440D01*
X202216000Y-142847440D01*
X202463765Y-142798157D01*
X202673809Y-142657809D01*
X202716000Y-142594666D01*
X202758191Y-142657809D01*
X202968235Y-142798157D01*
X203216000Y-142847440D01*
X204216000Y-142847440D01*
X204463765Y-142798157D01*
X204673809Y-142657809D01*
X204716000Y-142594666D01*
X204758191Y-142657809D01*
X204968235Y-142798157D01*
X205216000Y-142847440D01*
X205613000Y-142847440D01*
X205613000Y-143383000D01*
X166497000Y-143383000D01*
X166497000Y-141235750D01*
X192581000Y-141235750D01*
X192581000Y-142326309D01*
X192677673Y-142559698D01*
X192856301Y-142738327D01*
X193089690Y-142835000D01*
X193430250Y-142835000D01*
X193589000Y-142676250D01*
X193589000Y-141077000D01*
X193843000Y-141077000D01*
X193843000Y-142676250D01*
X194001750Y-142835000D01*
X194342310Y-142835000D01*
X194575699Y-142738327D01*
X194716000Y-142598025D01*
X194856301Y-142738327D01*
X195089690Y-142835000D01*
X195430250Y-142835000D01*
X195589000Y-142676250D01*
X195589000Y-141077000D01*
X194739750Y-141077000D01*
X194716000Y-141100750D01*
X194692250Y-141077000D01*
X193843000Y-141077000D01*
X193589000Y-141077000D01*
X192739750Y-141077000D01*
X192581000Y-141235750D01*
X166497000Y-141235750D01*
X166497000Y-105410000D01*
X167598276Y-105410000D01*
X167783380Y-106340580D01*
X168310511Y-107129489D01*
X169099420Y-107656620D01*
X169795103Y-107795000D01*
X170264897Y-107795000D01*
X170960580Y-107656620D01*
X171749489Y-107129489D01*
X172276620Y-106340580D01*
X172461724Y-105410000D01*
X172276620Y-104479420D01*
X171749489Y-103690511D01*
X170960580Y-103163380D01*
X170264897Y-103025000D01*
X169795103Y-103025000D01*
X169099420Y-103163380D01*
X168310511Y-103690511D01*
X167783380Y-104479420D01*
X167598276Y-105410000D01*
X166497000Y-105410000D01*
X166497000Y-99345750D01*
X181711000Y-99345750D01*
X181711000Y-99561310D01*
X181807673Y-99794699D01*
X181986302Y-99973327D01*
X182219691Y-100070000D01*
X182660250Y-100070000D01*
X182819000Y-99911250D01*
X182819000Y-99187000D01*
X181869750Y-99187000D01*
X181711000Y-99345750D01*
X166497000Y-99345750D01*
X166497000Y-98558690D01*
X181711000Y-98558690D01*
X181711000Y-98774250D01*
X181869750Y-98933000D01*
X182819000Y-98933000D01*
X182819000Y-98208750D01*
X182660250Y-98050000D01*
X182219691Y-98050000D01*
X181986302Y-98146673D01*
X181807673Y-98325301D01*
X181711000Y-98558690D01*
X166497000Y-98558690D01*
X166497000Y-96805750D01*
X181395000Y-96805750D01*
X181395000Y-97496309D01*
X181491673Y-97729698D01*
X181670301Y-97908327D01*
X181903690Y-98005000D01*
X182594250Y-98005000D01*
X182753000Y-97846250D01*
X182753000Y-96647000D01*
X181553750Y-96647000D01*
X181395000Y-96805750D01*
X166497000Y-96805750D01*
X166497000Y-95377000D01*
X181464046Y-95377000D01*
X181395000Y-95543691D01*
G36*
X179113000Y-110951255D02*
X179071191Y-110979191D01*
X178930843Y-111189235D01*
X178881560Y-111437000D01*
X178881560Y-112337000D01*
X178930843Y-112584765D01*
X179071191Y-112794809D01*
X179193988Y-112876860D01*
X179157560Y-113060000D01*
X179157560Y-114387560D01*
X177830000Y-114387560D01*
X177582235Y-114436843D01*
X177372191Y-114577191D01*
X177231843Y-114787235D01*
X177182560Y-115035000D01*
X177182560Y-115585000D01*
X177207424Y-115710000D01*
X177182560Y-115835000D01*
X177182560Y-116385000D01*
X177203217Y-116488852D01*
X177195000Y-116508690D01*
X177195000Y-116624250D01*
X177288888Y-116718138D01*
X177372191Y-116842809D01*
X177472749Y-116910000D01*
X177372191Y-116977191D01*
X177288888Y-117101862D01*
X177195000Y-117195750D01*
X177195000Y-117311310D01*
X177203217Y-117331148D01*
X177182560Y-117435000D01*
X177182560Y-117985000D01*
X177203217Y-118088852D01*
X177195000Y-118108690D01*
X177195000Y-118224250D01*
X177288888Y-118318138D01*
X177372191Y-118442809D01*
X177472749Y-118510000D01*
X177372191Y-118577191D01*
X177288888Y-118701862D01*
X177195000Y-118795750D01*
X177195000Y-118911310D01*
X177203217Y-118931148D01*
X177182560Y-119035000D01*
X177182560Y-119271800D01*
X176063594Y-119271800D01*
X175677472Y-118885678D01*
X175630708Y-118815692D01*
X175353449Y-118630433D01*
X175245347Y-118608930D01*
X175218157Y-118472235D01*
X175077809Y-118262191D01*
X174867765Y-118121843D01*
X174620000Y-118072560D01*
X170820000Y-118072560D01*
X170572235Y-118121843D01*
X170362191Y-118262191D01*
X170221843Y-118472235D01*
X170172560Y-118720000D01*
X170172560Y-120120000D01*
X170221843Y-120367765D01*
X170362191Y-120577809D01*
X170495693Y-120667013D01*
X170460301Y-120681673D01*
X170281673Y-120860302D01*
X170185000Y-121093691D01*
X170185000Y-121634250D01*
X170343750Y-121793000D01*
X172593000Y-121793000D01*
X172593000Y-121773000D01*
X172847000Y-121773000D01*
X172847000Y-121793000D01*
X172867000Y-121793000D01*
X172867000Y-122047000D01*
X172847000Y-122047000D01*
X172847000Y-122067000D01*
X172593000Y-122067000D01*
X172593000Y-122047000D01*
X170343750Y-122047000D01*
X170185000Y-122205750D01*
X170185000Y-122746309D01*
X170281673Y-122979698D01*
X170460301Y-123158327D01*
X170495693Y-123172987D01*
X170362191Y-123262191D01*
X170221843Y-123472235D01*
X170172560Y-123720000D01*
X170172560Y-125120000D01*
X170221843Y-125367765D01*
X170362191Y-125577809D01*
X170572235Y-125718157D01*
X170820000Y-125767440D01*
X174620000Y-125767440D01*
X174867765Y-125718157D01*
X175077809Y-125577809D01*
X175218157Y-125367765D01*
X175239094Y-125262505D01*
X175300000Y-125274620D01*
X175382549Y-125258200D01*
X175382554Y-125258200D01*
X175627049Y-125209567D01*
X175904308Y-125024308D01*
X175951072Y-124954321D01*
X176302321Y-124603072D01*
X176372308Y-124556308D01*
X176557567Y-124279049D01*
X176606200Y-124034554D01*
X176606200Y-124034549D01*
X176622620Y-123952000D01*
X176606200Y-123869451D01*
X176606200Y-121759193D01*
X176617193Y-121748200D01*
X177529919Y-121748200D01*
X177582235Y-121783157D01*
X177830000Y-121832440D01*
X179157560Y-121832440D01*
X179157560Y-123160000D01*
X179206843Y-123407765D01*
X179347191Y-123617809D01*
X179557235Y-123758157D01*
X179805000Y-123807440D01*
X180355000Y-123807440D01*
X180480000Y-123782576D01*
X180605000Y-123807440D01*
X181155000Y-123807440D01*
X181280000Y-123782576D01*
X181405000Y-123807440D01*
X181955000Y-123807440D01*
X182080000Y-123782576D01*
X182205000Y-123807440D01*
X182443369Y-123807440D01*
X182490433Y-124044048D01*
X182675692Y-124321308D01*
X182745679Y-124368072D01*
X183752930Y-125375324D01*
X183799692Y-125445308D01*
X183869676Y-125492070D01*
X183869677Y-125492071D01*
X183893476Y-125507973D01*
X181410849Y-127990600D01*
X169871152Y-127990600D01*
X168842999Y-126962448D01*
X168842999Y-117374000D01*
X168910002Y-117374000D01*
X168910002Y-117215252D01*
X169068750Y-117374000D01*
X169284310Y-117374000D01*
X169418000Y-117318624D01*
X169551690Y-117374000D01*
X169767250Y-117374000D01*
X169926000Y-117215250D01*
X169926000Y-116266000D01*
X170180000Y-116266000D01*
X170180000Y-117215250D01*
X170338750Y-117374000D01*
X170554310Y-117374000D01*
X170787699Y-117277327D01*
X170966327Y-117098698D01*
X171063000Y-116865309D01*
X171063000Y-116424750D01*
X170904250Y-116266000D01*
X170180000Y-116266000D01*
X169926000Y-116266000D01*
X168910000Y-116266000D01*
X168910000Y-116286000D01*
X168842999Y-116286000D01*
X168842999Y-115992000D01*
X168910000Y-115992000D01*
X168910000Y-116012000D01*
X169926000Y-116012000D01*
X169926000Y-115992000D01*
X170180000Y-115992000D01*
X170180000Y-116012000D01*
X170904250Y-116012000D01*
X171063000Y-115853250D01*
X171063000Y-115535750D01*
X172635000Y-115535750D01*
X172635000Y-115776310D01*
X172731673Y-116009699D01*
X172910302Y-116188327D01*
X173143691Y-116285000D01*
X173434250Y-116285000D01*
X173593000Y-116126250D01*
X173593000Y-115377000D01*
X173847000Y-115377000D01*
X173847000Y-116126250D01*
X174005750Y-116285000D01*
X174296309Y-116285000D01*
X174529698Y-116188327D01*
X174708327Y-116009699D01*
X174805000Y-115776310D01*
X174805000Y-115535750D01*
X174646250Y-115377000D01*
X173847000Y-115377000D01*
X173593000Y-115377000D01*
X172793750Y-115377000D01*
X172635000Y-115535750D01*
X171063000Y-115535750D01*
X171063000Y-115412691D01*
X171013003Y-115291989D01*
X171022235Y-115298157D01*
X171270000Y-115347440D01*
X172170000Y-115347440D01*
X172417765Y-115298157D01*
X172627809Y-115157809D01*
X172708219Y-115037469D01*
X172793750Y-115123000D01*
X173593000Y-115123000D01*
X173593000Y-115103000D01*
X173847000Y-115103000D01*
X173847000Y-115123000D01*
X174646250Y-115123000D01*
X174805000Y-114964250D01*
X174805000Y-114723690D01*
X174708327Y-114490301D01*
X174529698Y-114311673D01*
X174494306Y-114297013D01*
X174627809Y-114207809D01*
X174768157Y-113997765D01*
X174817440Y-113750000D01*
X174817440Y-112950000D01*
X174768157Y-112702235D01*
X174627809Y-112492191D01*
X174417765Y-112351843D01*
X174170000Y-112302560D01*
X173270000Y-112302560D01*
X173022235Y-112351843D01*
X172812191Y-112492191D01*
X172671843Y-112702235D01*
X172622560Y-112950000D01*
X172622560Y-113438684D01*
X172417765Y-113301843D01*
X172170000Y-113252560D01*
X171907674Y-113252560D01*
X171759065Y-113223000D01*
X171759063Y-113223000D01*
X171659000Y-113203096D01*
X171558937Y-113223000D01*
X171069000Y-113223000D01*
X171069000Y-110783840D01*
X172124841Y-109728000D01*
X179113001Y-109728000D01*
X179113000Y-110951255D01*
X179113000Y-110951255D01*
G37*
X179113000Y-110951255D02*
X179071191Y-110979191D01*
X178930843Y-111189235D01*
X178881560Y-111437000D01*
X178881560Y-112337000D01*
X178930843Y-112584765D01*
X179071191Y-112794809D01*
X179193988Y-112876860D01*
X179157560Y-113060000D01*
X179157560Y-114387560D01*
X177830000Y-114387560D01*
X177582235Y-114436843D01*
X177372191Y-114577191D01*
X177231843Y-114787235D01*
X177182560Y-115035000D01*
X177182560Y-115585000D01*
X177207424Y-115710000D01*
X177182560Y-115835000D01*
X177182560Y-116385000D01*
X177203217Y-116488852D01*
X177195000Y-116508690D01*
X177195000Y-116624250D01*
X177288888Y-116718138D01*
X177372191Y-116842809D01*
X177472749Y-116910000D01*
X177372191Y-116977191D01*
X177288888Y-117101862D01*
X177195000Y-117195750D01*
X177195000Y-117311310D01*
X177203217Y-117331148D01*
X177182560Y-117435000D01*
X177182560Y-117985000D01*
X177203217Y-118088852D01*
X177195000Y-118108690D01*
X177195000Y-118224250D01*
X177288888Y-118318138D01*
X177372191Y-118442809D01*
X177472749Y-118510000D01*
X177372191Y-118577191D01*
X177288888Y-118701862D01*
X177195000Y-118795750D01*
X177195000Y-118911310D01*
X177203217Y-118931148D01*
X177182560Y-119035000D01*
X177182560Y-119271800D01*
X176063594Y-119271800D01*
X175677472Y-118885678D01*
X175630708Y-118815692D01*
X175353449Y-118630433D01*
X175245347Y-118608930D01*
X175218157Y-118472235D01*
X175077809Y-118262191D01*
X174867765Y-118121843D01*
X174620000Y-118072560D01*
X170820000Y-118072560D01*
X170572235Y-118121843D01*
X170362191Y-118262191D01*
X170221843Y-118472235D01*
X170172560Y-118720000D01*
X170172560Y-120120000D01*
X170221843Y-120367765D01*
X170362191Y-120577809D01*
X170495693Y-120667013D01*
X170460301Y-120681673D01*
X170281673Y-120860302D01*
X170185000Y-121093691D01*
X170185000Y-121634250D01*
X170343750Y-121793000D01*
X172593000Y-121793000D01*
X172593000Y-121773000D01*
X172847000Y-121773000D01*
X172847000Y-121793000D01*
X172867000Y-121793000D01*
X172867000Y-122047000D01*
X172847000Y-122047000D01*
X172847000Y-122067000D01*
X172593000Y-122067000D01*
X172593000Y-122047000D01*
X170343750Y-122047000D01*
X170185000Y-122205750D01*
X170185000Y-122746309D01*
X170281673Y-122979698D01*
X170460301Y-123158327D01*
X170495693Y-123172987D01*
X170362191Y-123262191D01*
X170221843Y-123472235D01*
X170172560Y-123720000D01*
X170172560Y-125120000D01*
X170221843Y-125367765D01*
X170362191Y-125577809D01*
X170572235Y-125718157D01*
X170820000Y-125767440D01*
X174620000Y-125767440D01*
X174867765Y-125718157D01*
X175077809Y-125577809D01*
X175218157Y-125367765D01*
X175239094Y-125262505D01*
X175300000Y-125274620D01*
X175382549Y-125258200D01*
X175382554Y-125258200D01*
X175627049Y-125209567D01*
X175904308Y-125024308D01*
X175951072Y-124954321D01*
X176302321Y-124603072D01*
X176372308Y-124556308D01*
X176557567Y-124279049D01*
X176606200Y-124034554D01*
X176606200Y-124034549D01*
X176622620Y-123952000D01*
X176606200Y-123869451D01*
X176606200Y-121759193D01*
X176617193Y-121748200D01*
X177529919Y-121748200D01*
X177582235Y-121783157D01*
X177830000Y-121832440D01*
X179157560Y-121832440D01*
X179157560Y-123160000D01*
X179206843Y-123407765D01*
X179347191Y-123617809D01*
X179557235Y-123758157D01*
X179805000Y-123807440D01*
X180355000Y-123807440D01*
X180480000Y-123782576D01*
X180605000Y-123807440D01*
X181155000Y-123807440D01*
X181280000Y-123782576D01*
X181405000Y-123807440D01*
X181955000Y-123807440D01*
X182080000Y-123782576D01*
X182205000Y-123807440D01*
X182443369Y-123807440D01*
X182490433Y-124044048D01*
X182675692Y-124321308D01*
X182745679Y-124368072D01*
X183752930Y-125375324D01*
X183799692Y-125445308D01*
X183869676Y-125492070D01*
X183869677Y-125492071D01*
X183893476Y-125507973D01*
X181410849Y-127990600D01*
X169871152Y-127990600D01*
X168842999Y-126962448D01*
X168842999Y-117374000D01*
X168910002Y-117374000D01*
X168910002Y-117215252D01*
X169068750Y-117374000D01*
X169284310Y-117374000D01*
X169418000Y-117318624D01*
X169551690Y-117374000D01*
X169767250Y-117374000D01*
X169926000Y-117215250D01*
X169926000Y-116266000D01*
X170180000Y-116266000D01*
X170180000Y-117215250D01*
X170338750Y-117374000D01*
X170554310Y-117374000D01*
X170787699Y-117277327D01*
X170966327Y-117098698D01*
X171063000Y-116865309D01*
X171063000Y-116424750D01*
X170904250Y-116266000D01*
X170180000Y-116266000D01*
X169926000Y-116266000D01*
X168910000Y-116266000D01*
X168910000Y-116286000D01*
X168842999Y-116286000D01*
X168842999Y-115992000D01*
X168910000Y-115992000D01*
X168910000Y-116012000D01*
X169926000Y-116012000D01*
X169926000Y-115992000D01*
X170180000Y-115992000D01*
X170180000Y-116012000D01*
X170904250Y-116012000D01*
X171063000Y-115853250D01*
X171063000Y-115535750D01*
X172635000Y-115535750D01*
X172635000Y-115776310D01*
X172731673Y-116009699D01*
X172910302Y-116188327D01*
X173143691Y-116285000D01*
X173434250Y-116285000D01*
X173593000Y-116126250D01*
X173593000Y-115377000D01*
X173847000Y-115377000D01*
X173847000Y-116126250D01*
X174005750Y-116285000D01*
X174296309Y-116285000D01*
X174529698Y-116188327D01*
X174708327Y-116009699D01*
X174805000Y-115776310D01*
X174805000Y-115535750D01*
X174646250Y-115377000D01*
X173847000Y-115377000D01*
X173593000Y-115377000D01*
X172793750Y-115377000D01*
X172635000Y-115535750D01*
X171063000Y-115535750D01*
X171063000Y-115412691D01*
X171013003Y-115291989D01*
X171022235Y-115298157D01*
X171270000Y-115347440D01*
X172170000Y-115347440D01*
X172417765Y-115298157D01*
X172627809Y-115157809D01*
X172708219Y-115037469D01*
X172793750Y-115123000D01*
X173593000Y-115123000D01*
X173593000Y-115103000D01*
X173847000Y-115103000D01*
X173847000Y-115123000D01*
X174646250Y-115123000D01*
X174805000Y-114964250D01*
X174805000Y-114723690D01*
X174708327Y-114490301D01*
X174529698Y-114311673D01*
X174494306Y-114297013D01*
X174627809Y-114207809D01*
X174768157Y-113997765D01*
X174817440Y-113750000D01*
X174817440Y-112950000D01*
X174768157Y-112702235D01*
X174627809Y-112492191D01*
X174417765Y-112351843D01*
X174170000Y-112302560D01*
X173270000Y-112302560D01*
X173022235Y-112351843D01*
X172812191Y-112492191D01*
X172671843Y-112702235D01*
X172622560Y-112950000D01*
X172622560Y-113438684D01*
X172417765Y-113301843D01*
X172170000Y-113252560D01*
X171907674Y-113252560D01*
X171759065Y-113223000D01*
X171759063Y-113223000D01*
X171659000Y-113203096D01*
X171558937Y-113223000D01*
X171069000Y-113223000D01*
X171069000Y-110783840D01*
X172124841Y-109728000D01*
X179113001Y-109728000D01*
X179113000Y-110951255D01*
G36*
X211963000Y-124333000D02*
X208830222Y-124333000D01*
X208814157Y-124252235D01*
X208673809Y-124042191D01*
X208463765Y-123901843D01*
X208216000Y-123852560D01*
X207216000Y-123852560D01*
X206968235Y-123901843D01*
X206758191Y-124042191D01*
X206716000Y-124105334D01*
X206673809Y-124042191D01*
X206463765Y-123901843D01*
X206216000Y-123852560D01*
X205216000Y-123852560D01*
X204968235Y-123901843D01*
X204758191Y-124042191D01*
X204716000Y-124105334D01*
X204673809Y-124042191D01*
X204463765Y-123901843D01*
X204216000Y-123852560D01*
X203216000Y-123852560D01*
X202968235Y-123901843D01*
X202758191Y-124042191D01*
X202716000Y-124105334D01*
X202673809Y-124042191D01*
X202463765Y-123901843D01*
X202216000Y-123852560D01*
X201216000Y-123852560D01*
X200968235Y-123901843D01*
X200758191Y-124042191D01*
X200716000Y-124105334D01*
X200673809Y-124042191D01*
X200463765Y-123901843D01*
X200216000Y-123852560D01*
X199216000Y-123852560D01*
X198968235Y-123901843D01*
X198758191Y-124042191D01*
X198716000Y-124105334D01*
X198673809Y-124042191D01*
X198463765Y-123901843D01*
X198216000Y-123852560D01*
X197216000Y-123852560D01*
X196968235Y-123901843D01*
X196758191Y-124042191D01*
X196716000Y-124105334D01*
X196673809Y-124042191D01*
X196463765Y-123901843D01*
X196216000Y-123852560D01*
X195216000Y-123852560D01*
X194968235Y-123901843D01*
X194758191Y-124042191D01*
X194716000Y-124105334D01*
X194673809Y-124042191D01*
X194463765Y-123901843D01*
X194216000Y-123852560D01*
X193216000Y-123852560D01*
X192968235Y-123901843D01*
X192758191Y-124042191D01*
X192617843Y-124252235D01*
X192568560Y-124500000D01*
X192568560Y-124962600D01*
X189404793Y-124962600D01*
X191812525Y-122554869D01*
X191882509Y-122508107D01*
X192067768Y-122230848D01*
X192116401Y-121986353D01*
X192116401Y-121986349D01*
X192132821Y-121903800D01*
X192116401Y-121821251D01*
X192116401Y-120548865D01*
X192460582Y-120778839D01*
X192893744Y-120865000D01*
X193186256Y-120865000D01*
X193619418Y-120778839D01*
X194110625Y-120450625D01*
X194310000Y-120152239D01*
X194509375Y-120450625D01*
X195000582Y-120778839D01*
X195433744Y-120865000D01*
X195726256Y-120865000D01*
X196159418Y-120778839D01*
X196650625Y-120450625D01*
X196978839Y-119959418D01*
X197094092Y-119380000D01*
X196978839Y-118800582D01*
X196650625Y-118309375D01*
X196352239Y-118110000D01*
X196650625Y-117910625D01*
X196978839Y-117419418D01*
X197079551Y-116913103D01*
X198475601Y-118309153D01*
X198475601Y-119046735D01*
X198355191Y-119127191D01*
X198214843Y-119337235D01*
X198165560Y-119585000D01*
X198165560Y-120785000D01*
X198214843Y-121032765D01*
X198355191Y-121242809D01*
X198418334Y-121285000D01*
X198355191Y-121327191D01*
X198214843Y-121537235D01*
X198165560Y-121785000D01*
X198165560Y-122985000D01*
X198214843Y-123232765D01*
X198355191Y-123442809D01*
X198565235Y-123583157D01*
X198813000Y-123632440D01*
X199713000Y-123632440D01*
X199960765Y-123583157D01*
X200088500Y-123497807D01*
X200216235Y-123583157D01*
X200464000Y-123632440D01*
X201364000Y-123632440D01*
X201611765Y-123583157D01*
X201821809Y-123442809D01*
X201962157Y-123232765D01*
X202011440Y-122985000D01*
X202011440Y-121785000D01*
X201962157Y-121537235D01*
X201821809Y-121327191D01*
X201758666Y-121285000D01*
X201821809Y-121242809D01*
X201962157Y-121032765D01*
X202011440Y-120785000D01*
X202011440Y-119585000D01*
X201962157Y-119337235D01*
X201821809Y-119127191D01*
X201701400Y-119046736D01*
X201701400Y-116663550D01*
X201716826Y-116585999D01*
X201686530Y-116433691D01*
X201655715Y-116278772D01*
X201481684Y-116018316D01*
X201415938Y-115974386D01*
X201011552Y-115570000D01*
X202955908Y-115570000D01*
X203071161Y-116149418D01*
X203399375Y-116640625D01*
X203697761Y-116840000D01*
X203399375Y-117039375D01*
X203071161Y-117530582D01*
X202955908Y-118110000D01*
X203071161Y-118689418D01*
X203399375Y-119180625D01*
X203697761Y-119380000D01*
X203399375Y-119579375D01*
X203071161Y-120070582D01*
X202955908Y-120650000D01*
X203071161Y-121229418D01*
X203399375Y-121720625D01*
X203890582Y-122048839D01*
X204323744Y-122135000D01*
X204616256Y-122135000D01*
X205049418Y-122048839D01*
X205540625Y-121720625D01*
X205868839Y-121229418D01*
X205984092Y-120650000D01*
X205868839Y-120070582D01*
X205540625Y-119579375D01*
X205242239Y-119380000D01*
X205540625Y-119180625D01*
X205868839Y-118689418D01*
X205984092Y-118110000D01*
X205868839Y-117530582D01*
X205540625Y-117039375D01*
X205242239Y-116840000D01*
X205540625Y-116640625D01*
X205868839Y-116149418D01*
X205984092Y-115570000D01*
X205868839Y-114990582D01*
X205540625Y-114499375D01*
X205518967Y-114484904D01*
X205679698Y-114418327D01*
X205858327Y-114239699D01*
X205955000Y-114006310D01*
X205955000Y-113315750D01*
X205796250Y-113157000D01*
X204597000Y-113157000D01*
X204597000Y-113177000D01*
X204343000Y-113177000D01*
X204343000Y-113157000D01*
X203143750Y-113157000D01*
X202985000Y-113315750D01*
X202985000Y-114006310D01*
X203081673Y-114239699D01*
X203260302Y-114418327D01*
X203421033Y-114484904D01*
X203399375Y-114499375D01*
X203071161Y-114990582D01*
X202955908Y-115570000D01*
X201011552Y-115570000D01*
X197495242Y-112053690D01*
X202985000Y-112053690D01*
X202985000Y-112744250D01*
X203143750Y-112903000D01*
X204343000Y-112903000D01*
X204343000Y-111703750D01*
X204597000Y-111703750D01*
X204597000Y-112903000D01*
X205796250Y-112903000D01*
X205955000Y-112744250D01*
X205955000Y-112053690D01*
X205858327Y-111820301D01*
X205679698Y-111641673D01*
X205446309Y-111545000D01*
X204755750Y-111545000D01*
X204597000Y-111703750D01*
X204343000Y-111703750D01*
X204184250Y-111545000D01*
X203493691Y-111545000D01*
X203260302Y-111641673D01*
X203081673Y-111820301D01*
X202985000Y-112053690D01*
X197495242Y-112053690D01*
X197334616Y-111893065D01*
X197290684Y-111827316D01*
X197030228Y-111653285D01*
X196800552Y-111607600D01*
X196800551Y-111607600D01*
X196723000Y-111592174D01*
X196645449Y-111607600D01*
X193867750Y-111607600D01*
X193790199Y-111592174D01*
X193712648Y-111607600D01*
X193482972Y-111653285D01*
X193222516Y-111827316D01*
X193178586Y-111893063D01*
X192538065Y-112533584D01*
X192472316Y-112577516D01*
X192321947Y-112802560D01*
X192190000Y-112802560D01*
X192116401Y-112817200D01*
X192116401Y-110599150D01*
X192132821Y-110516601D01*
X192116401Y-110434052D01*
X192116401Y-110434047D01*
X192111149Y-110407641D01*
X192149809Y-110381809D01*
X192290157Y-110171765D01*
X192339440Y-109924000D01*
X192339440Y-109024000D01*
X192290157Y-108776235D01*
X192248995Y-108714632D01*
X192327000Y-108526310D01*
X192327000Y-108235750D01*
X192168250Y-108077000D01*
X191219000Y-108077000D01*
X191219000Y-108097000D01*
X190965000Y-108097000D01*
X190965000Y-108077000D01*
X190945000Y-108077000D01*
X190945000Y-107823000D01*
X190965000Y-107823000D01*
X190965000Y-107023750D01*
X191219000Y-107023750D01*
X191219000Y-107823000D01*
X192168250Y-107823000D01*
X192327000Y-107664250D01*
X192327000Y-107373690D01*
X192230327Y-107140301D01*
X192051698Y-106961673D01*
X191818309Y-106865000D01*
X191377750Y-106865000D01*
X191219000Y-107023750D01*
X190965000Y-107023750D01*
X190806250Y-106865000D01*
X190365691Y-106865000D01*
X190132302Y-106961673D01*
X189990654Y-107103320D01*
X189949809Y-107042191D01*
X189739765Y-106901843D01*
X189492000Y-106852560D01*
X188292000Y-106852560D01*
X188201738Y-106870514D01*
X188188157Y-106802235D01*
X188047809Y-106592191D01*
X187839304Y-106452871D01*
X188135938Y-106008927D01*
X188255072Y-105410000D01*
X188135938Y-104811073D01*
X187796673Y-104303327D01*
X187540826Y-104132376D01*
X187927966Y-103777576D01*
X188181046Y-103234742D01*
X188060997Y-102997000D01*
X186817000Y-102997000D01*
X186817000Y-103017000D01*
X186563000Y-103017000D01*
X186563000Y-102997000D01*
X185319003Y-102997000D01*
X185198954Y-103234742D01*
X185452034Y-103777576D01*
X185839174Y-104132376D01*
X185583327Y-104303327D01*
X185244062Y-104811073D01*
X185124928Y-105410000D01*
X185244062Y-106008927D01*
X185540696Y-106452871D01*
X185332191Y-106592191D01*
X185191843Y-106802235D01*
X185142560Y-107050000D01*
X185142560Y-108850000D01*
X185191843Y-109097765D01*
X185332191Y-109307809D01*
X185542235Y-109448157D01*
X185790000Y-109497440D01*
X187590000Y-109497440D01*
X187644560Y-109486587D01*
X187644560Y-109924000D01*
X187693843Y-110171765D01*
X187834191Y-110381809D01*
X188044235Y-110522157D01*
X188292000Y-110571440D01*
X189492000Y-110571440D01*
X189739765Y-110522157D01*
X189949809Y-110381809D01*
X189992000Y-110318666D01*
X190034191Y-110381809D01*
X190244235Y-110522157D01*
X190276811Y-110528637D01*
X190302434Y-110657449D01*
X190440001Y-110863333D01*
X190440002Y-115859000D01*
X190372998Y-115859000D01*
X190372998Y-116017748D01*
X190214250Y-115859000D01*
X189998690Y-115859000D01*
X189785331Y-115947376D01*
X189731310Y-115925000D01*
X189515750Y-115925000D01*
X189357000Y-116083750D01*
X189357000Y-117033000D01*
X190081250Y-117033000D01*
X190147250Y-116967000D01*
X190373000Y-116967000D01*
X190373000Y-116947000D01*
X190440002Y-116947000D01*
X190440002Y-117241000D01*
X190373000Y-117241000D01*
X190373000Y-117221000D01*
X189648750Y-117221000D01*
X189582750Y-117287000D01*
X189357000Y-117287000D01*
X189357000Y-117307000D01*
X189103000Y-117307000D01*
X189103000Y-117287000D01*
X189083000Y-117287000D01*
X189083000Y-117033000D01*
X189103000Y-117033000D01*
X189103000Y-116083750D01*
X188944250Y-115925000D01*
X188728690Y-115925000D01*
X188577440Y-115987650D01*
X188577440Y-115835000D01*
X188552576Y-115710000D01*
X188577440Y-115585000D01*
X188577440Y-115035000D01*
X188528157Y-114787235D01*
X188387809Y-114577191D01*
X188177765Y-114436843D01*
X187930000Y-114387560D01*
X186602440Y-114387560D01*
X186602440Y-113060000D01*
X186553157Y-112812235D01*
X186412809Y-112602191D01*
X186202765Y-112461843D01*
X185955000Y-112412560D01*
X185405000Y-112412560D01*
X185280000Y-112437424D01*
X185155000Y-112412560D01*
X184605000Y-112412560D01*
X184480000Y-112437424D01*
X184355000Y-112412560D01*
X183805000Y-112412560D01*
X183680000Y-112437424D01*
X183561166Y-112413787D01*
X183576440Y-112337000D01*
X183576440Y-111437000D01*
X183527157Y-111189235D01*
X183386809Y-110979191D01*
X183176765Y-110838843D01*
X182929000Y-110789560D01*
X181729000Y-110789560D01*
X181481235Y-110838843D01*
X181271191Y-110979191D01*
X181229000Y-111042334D01*
X181186809Y-110979191D01*
X181145000Y-110951255D01*
X181145000Y-108812064D01*
X181164904Y-108712000D01*
X181145000Y-108611935D01*
X181145000Y-106422840D01*
X185318065Y-102249776D01*
X185198954Y-102505258D01*
X185319003Y-102743000D01*
X186563000Y-102743000D01*
X186563000Y-101499622D01*
X186817000Y-101499622D01*
X186817000Y-102743000D01*
X188060997Y-102743000D01*
X188181046Y-102505258D01*
X187927966Y-101962424D01*
X187486417Y-101557760D01*
X187054740Y-101378964D01*
X186817000Y-101499622D01*
X186563000Y-101499622D01*
X186325260Y-101378964D01*
X185893583Y-101557760D01*
X185812950Y-101631657D01*
X185862000Y-101385065D01*
X185862000Y-101385064D01*
X185881904Y-101285001D01*
X185862000Y-101184937D01*
X185862000Y-101184750D01*
X189871000Y-101184750D01*
X189871000Y-101625309D01*
X189967673Y-101858698D01*
X190146301Y-102037327D01*
X190379690Y-102134000D01*
X190595250Y-102134000D01*
X190754000Y-101975250D01*
X190754000Y-101026000D01*
X191008000Y-101026000D01*
X191008000Y-101975250D01*
X191166750Y-102134000D01*
X191382310Y-102134000D01*
X191615699Y-102037327D01*
X191794327Y-101858698D01*
X191891000Y-101625309D01*
X191891000Y-101184750D01*
X191732250Y-101026000D01*
X191008000Y-101026000D01*
X190754000Y-101026000D01*
X190029750Y-101026000D01*
X189871000Y-101184750D01*
X185862000Y-101184750D01*
X185862000Y-100076000D01*
X189911051Y-100076000D01*
X189871000Y-100172691D01*
X189871000Y-100613250D01*
X190029750Y-100772000D01*
X190754000Y-100772000D01*
X190754000Y-100752000D01*
X191008000Y-100752000D01*
X191008000Y-100772000D01*
X191732250Y-100772000D01*
X191891000Y-100613250D01*
X191891000Y-100172691D01*
X191825682Y-100015000D01*
X192085001Y-100015000D01*
X192085000Y-104592936D01*
X192065096Y-104693000D01*
X192085000Y-104793063D01*
X192085000Y-104793064D01*
X192143949Y-105089422D01*
X192368505Y-105425495D01*
X192453340Y-105482180D01*
X194298822Y-107327663D01*
X194355505Y-107412495D01*
X194440336Y-107469177D01*
X194691575Y-107637050D01*
X194691576Y-107637050D01*
X194691577Y-107637051D01*
X194987935Y-107696000D01*
X195087999Y-107715904D01*
X195188063Y-107696000D01*
X195205743Y-107696000D01*
X195251843Y-107927765D01*
X195392191Y-108137809D01*
X195602235Y-108278157D01*
X195850000Y-108327440D01*
X197850000Y-108327440D01*
X198097765Y-108278157D01*
X198307809Y-108137809D01*
X198448157Y-107927765D01*
X198494257Y-107696000D01*
X206274937Y-107696000D01*
X206375000Y-107715904D01*
X206475063Y-107696000D01*
X206475065Y-107696000D01*
X206771423Y-107637051D01*
X207107495Y-107412495D01*
X207164180Y-107327660D01*
X211147664Y-103344177D01*
X211232495Y-103287495D01*
X211457051Y-102951423D01*
X211516000Y-102655065D01*
X211516000Y-102655064D01*
X211535904Y-102555000D01*
X211516000Y-102454937D01*
X211516000Y-101190745D01*
X211557809Y-101162809D01*
X211698157Y-100952765D01*
X211747440Y-100705000D01*
X211747440Y-100450739D01*
X211777051Y-100406423D01*
X211836000Y-100110065D01*
X211836000Y-100110064D01*
X211855904Y-100010001D01*
X211836000Y-99909937D01*
X211836000Y-97627124D01*
X211890625Y-97590625D01*
X211963000Y-97482308D01*
X211963000Y-124333000D01*
X211963000Y-124333000D01*
G37*
X211963000Y-124333000D02*
X208830222Y-124333000D01*
X208814157Y-124252235D01*
X208673809Y-124042191D01*
X208463765Y-123901843D01*
X208216000Y-123852560D01*
X207216000Y-123852560D01*
X206968235Y-123901843D01*
X206758191Y-124042191D01*
X206716000Y-124105334D01*
X206673809Y-124042191D01*
X206463765Y-123901843D01*
X206216000Y-123852560D01*
X205216000Y-123852560D01*
X204968235Y-123901843D01*
X204758191Y-124042191D01*
X204716000Y-124105334D01*
X204673809Y-124042191D01*
X204463765Y-123901843D01*
X204216000Y-123852560D01*
X203216000Y-123852560D01*
X202968235Y-123901843D01*
X202758191Y-124042191D01*
X202716000Y-124105334D01*
X202673809Y-124042191D01*
X202463765Y-123901843D01*
X202216000Y-123852560D01*
X201216000Y-123852560D01*
X200968235Y-123901843D01*
X200758191Y-124042191D01*
X200716000Y-124105334D01*
X200673809Y-124042191D01*
X200463765Y-123901843D01*
X200216000Y-123852560D01*
X199216000Y-123852560D01*
X198968235Y-123901843D01*
X198758191Y-124042191D01*
X198716000Y-124105334D01*
X198673809Y-124042191D01*
X198463765Y-123901843D01*
X198216000Y-123852560D01*
X197216000Y-123852560D01*
X196968235Y-123901843D01*
X196758191Y-124042191D01*
X196716000Y-124105334D01*
X196673809Y-124042191D01*
X196463765Y-123901843D01*
X196216000Y-123852560D01*
X195216000Y-123852560D01*
X194968235Y-123901843D01*
X194758191Y-124042191D01*
X194716000Y-124105334D01*
X194673809Y-124042191D01*
X194463765Y-123901843D01*
X194216000Y-123852560D01*
X193216000Y-123852560D01*
X192968235Y-123901843D01*
X192758191Y-124042191D01*
X192617843Y-124252235D01*
X192568560Y-124500000D01*
X192568560Y-124962600D01*
X189404793Y-124962600D01*
X191812525Y-122554869D01*
X191882509Y-122508107D01*
X192067768Y-122230848D01*
X192116401Y-121986353D01*
X192116401Y-121986349D01*
X192132821Y-121903800D01*
X192116401Y-121821251D01*
X192116401Y-120548865D01*
X192460582Y-120778839D01*
X192893744Y-120865000D01*
X193186256Y-120865000D01*
X193619418Y-120778839D01*
X194110625Y-120450625D01*
X194310000Y-120152239D01*
X194509375Y-120450625D01*
X195000582Y-120778839D01*
X195433744Y-120865000D01*
X195726256Y-120865000D01*
X196159418Y-120778839D01*
X196650625Y-120450625D01*
X196978839Y-119959418D01*
X197094092Y-119380000D01*
X196978839Y-118800582D01*
X196650625Y-118309375D01*
X196352239Y-118110000D01*
X196650625Y-117910625D01*
X196978839Y-117419418D01*
X197079551Y-116913103D01*
X198475601Y-118309153D01*
X198475601Y-119046735D01*
X198355191Y-119127191D01*
X198214843Y-119337235D01*
X198165560Y-119585000D01*
X198165560Y-120785000D01*
X198214843Y-121032765D01*
X198355191Y-121242809D01*
X198418334Y-121285000D01*
X198355191Y-121327191D01*
X198214843Y-121537235D01*
X198165560Y-121785000D01*
X198165560Y-122985000D01*
X198214843Y-123232765D01*
X198355191Y-123442809D01*
X198565235Y-123583157D01*
X198813000Y-123632440D01*
X199713000Y-123632440D01*
X199960765Y-123583157D01*
X200088500Y-123497807D01*
X200216235Y-123583157D01*
X200464000Y-123632440D01*
X201364000Y-123632440D01*
X201611765Y-123583157D01*
X201821809Y-123442809D01*
X201962157Y-123232765D01*
X202011440Y-122985000D01*
X202011440Y-121785000D01*
X201962157Y-121537235D01*
X201821809Y-121327191D01*
X201758666Y-121285000D01*
X201821809Y-121242809D01*
X201962157Y-121032765D01*
X202011440Y-120785000D01*
X202011440Y-119585000D01*
X201962157Y-119337235D01*
X201821809Y-119127191D01*
X201701400Y-119046736D01*
X201701400Y-116663550D01*
X201716826Y-116585999D01*
X201686530Y-116433691D01*
X201655715Y-116278772D01*
X201481684Y-116018316D01*
X201415938Y-115974386D01*
X201011552Y-115570000D01*
X202955908Y-115570000D01*
X203071161Y-116149418D01*
X203399375Y-116640625D01*
X203697761Y-116840000D01*
X203399375Y-117039375D01*
X203071161Y-117530582D01*
X202955908Y-118110000D01*
X203071161Y-118689418D01*
X203399375Y-119180625D01*
X203697761Y-119380000D01*
X203399375Y-119579375D01*
X203071161Y-120070582D01*
X202955908Y-120650000D01*
X203071161Y-121229418D01*
X203399375Y-121720625D01*
X203890582Y-122048839D01*
X204323744Y-122135000D01*
X204616256Y-122135000D01*
X205049418Y-122048839D01*
X205540625Y-121720625D01*
X205868839Y-121229418D01*
X205984092Y-120650000D01*
X205868839Y-120070582D01*
X205540625Y-119579375D01*
X205242239Y-119380000D01*
X205540625Y-119180625D01*
X205868839Y-118689418D01*
X205984092Y-118110000D01*
X205868839Y-117530582D01*
X205540625Y-117039375D01*
X205242239Y-116840000D01*
X205540625Y-116640625D01*
X205868839Y-116149418D01*
X205984092Y-115570000D01*
X205868839Y-114990582D01*
X205540625Y-114499375D01*
X205518967Y-114484904D01*
X205679698Y-114418327D01*
X205858327Y-114239699D01*
X205955000Y-114006310D01*
X205955000Y-113315750D01*
X205796250Y-113157000D01*
X204597000Y-113157000D01*
X204597000Y-113177000D01*
X204343000Y-113177000D01*
X204343000Y-113157000D01*
X203143750Y-113157000D01*
X202985000Y-113315750D01*
X202985000Y-114006310D01*
X203081673Y-114239699D01*
X203260302Y-114418327D01*
X203421033Y-114484904D01*
X203399375Y-114499375D01*
X203071161Y-114990582D01*
X202955908Y-115570000D01*
X201011552Y-115570000D01*
X197495242Y-112053690D01*
X202985000Y-112053690D01*
X202985000Y-112744250D01*
X203143750Y-112903000D01*
X204343000Y-112903000D01*
X204343000Y-111703750D01*
X204597000Y-111703750D01*
X204597000Y-112903000D01*
X205796250Y-112903000D01*
X205955000Y-112744250D01*
X205955000Y-112053690D01*
X205858327Y-111820301D01*
X205679698Y-111641673D01*
X205446309Y-111545000D01*
X204755750Y-111545000D01*
X204597000Y-111703750D01*
X204343000Y-111703750D01*
X204184250Y-111545000D01*
X203493691Y-111545000D01*
X203260302Y-111641673D01*
X203081673Y-111820301D01*
X202985000Y-112053690D01*
X197495242Y-112053690D01*
X197334616Y-111893065D01*
X197290684Y-111827316D01*
X197030228Y-111653285D01*
X196800552Y-111607600D01*
X196800551Y-111607600D01*
X196723000Y-111592174D01*
X196645449Y-111607600D01*
X193867750Y-111607600D01*
X193790199Y-111592174D01*
X193712648Y-111607600D01*
X193482972Y-111653285D01*
X193222516Y-111827316D01*
X193178586Y-111893063D01*
X192538065Y-112533584D01*
X192472316Y-112577516D01*
X192321947Y-112802560D01*
X192190000Y-112802560D01*
X192116401Y-112817200D01*
X192116401Y-110599150D01*
X192132821Y-110516601D01*
X192116401Y-110434052D01*
X192116401Y-110434047D01*
X192111149Y-110407641D01*
X192149809Y-110381809D01*
X192290157Y-110171765D01*
X192339440Y-109924000D01*
X192339440Y-109024000D01*
X192290157Y-108776235D01*
X192248995Y-108714632D01*
X192327000Y-108526310D01*
X192327000Y-108235750D01*
X192168250Y-108077000D01*
X191219000Y-108077000D01*
X191219000Y-108097000D01*
X190965000Y-108097000D01*
X190965000Y-108077000D01*
X190945000Y-108077000D01*
X190945000Y-107823000D01*
X190965000Y-107823000D01*
X190965000Y-107023750D01*
X191219000Y-107023750D01*
X191219000Y-107823000D01*
X192168250Y-107823000D01*
X192327000Y-107664250D01*
X192327000Y-107373690D01*
X192230327Y-107140301D01*
X192051698Y-106961673D01*
X191818309Y-106865000D01*
X191377750Y-106865000D01*
X191219000Y-107023750D01*
X190965000Y-107023750D01*
X190806250Y-106865000D01*
X190365691Y-106865000D01*
X190132302Y-106961673D01*
X189990654Y-107103320D01*
X189949809Y-107042191D01*
X189739765Y-106901843D01*
X189492000Y-106852560D01*
X188292000Y-106852560D01*
X188201738Y-106870514D01*
X188188157Y-106802235D01*
X188047809Y-106592191D01*
X187839304Y-106452871D01*
X188135938Y-106008927D01*
X188255072Y-105410000D01*
X188135938Y-104811073D01*
X187796673Y-104303327D01*
X187540826Y-104132376D01*
X187927966Y-103777576D01*
X188181046Y-103234742D01*
X188060997Y-102997000D01*
X186817000Y-102997000D01*
X186817000Y-103017000D01*
X186563000Y-103017000D01*
X186563000Y-102997000D01*
X185319003Y-102997000D01*
X185198954Y-103234742D01*
X185452034Y-103777576D01*
X185839174Y-104132376D01*
X185583327Y-104303327D01*
X185244062Y-104811073D01*
X185124928Y-105410000D01*
X185244062Y-106008927D01*
X185540696Y-106452871D01*
X185332191Y-106592191D01*
X185191843Y-106802235D01*
X185142560Y-107050000D01*
X185142560Y-108850000D01*
X185191843Y-109097765D01*
X185332191Y-109307809D01*
X185542235Y-109448157D01*
X185790000Y-109497440D01*
X187590000Y-109497440D01*
X187644560Y-109486587D01*
X187644560Y-109924000D01*
X187693843Y-110171765D01*
X187834191Y-110381809D01*
X188044235Y-110522157D01*
X188292000Y-110571440D01*
X189492000Y-110571440D01*
X189739765Y-110522157D01*
X189949809Y-110381809D01*
X189992000Y-110318666D01*
X190034191Y-110381809D01*
X190244235Y-110522157D01*
X190276811Y-110528637D01*
X190302434Y-110657449D01*
X190440001Y-110863333D01*
X190440002Y-115859000D01*
X190372998Y-115859000D01*
X190372998Y-116017748D01*
X190214250Y-115859000D01*
X189998690Y-115859000D01*
X189785331Y-115947376D01*
X189731310Y-115925000D01*
X189515750Y-115925000D01*
X189357000Y-116083750D01*
X189357000Y-117033000D01*
X190081250Y-117033000D01*
X190147250Y-116967000D01*
X190373000Y-116967000D01*
X190373000Y-116947000D01*
X190440002Y-116947000D01*
X190440002Y-117241000D01*
X190373000Y-117241000D01*
X190373000Y-117221000D01*
X189648750Y-117221000D01*
X189582750Y-117287000D01*
X189357000Y-117287000D01*
X189357000Y-117307000D01*
X189103000Y-117307000D01*
X189103000Y-117287000D01*
X189083000Y-117287000D01*
X189083000Y-117033000D01*
X189103000Y-117033000D01*
X189103000Y-116083750D01*
X188944250Y-115925000D01*
X188728690Y-115925000D01*
X188577440Y-115987650D01*
X188577440Y-115835000D01*
X188552576Y-115710000D01*
X188577440Y-115585000D01*
X188577440Y-115035000D01*
X188528157Y-114787235D01*
X188387809Y-114577191D01*
X188177765Y-114436843D01*
X187930000Y-114387560D01*
X186602440Y-114387560D01*
X186602440Y-113060000D01*
X186553157Y-112812235D01*
X186412809Y-112602191D01*
X186202765Y-112461843D01*
X185955000Y-112412560D01*
X185405000Y-112412560D01*
X185280000Y-112437424D01*
X185155000Y-112412560D01*
X184605000Y-112412560D01*
X184480000Y-112437424D01*
X184355000Y-112412560D01*
X183805000Y-112412560D01*
X183680000Y-112437424D01*
X183561166Y-112413787D01*
X183576440Y-112337000D01*
X183576440Y-111437000D01*
X183527157Y-111189235D01*
X183386809Y-110979191D01*
X183176765Y-110838843D01*
X182929000Y-110789560D01*
X181729000Y-110789560D01*
X181481235Y-110838843D01*
X181271191Y-110979191D01*
X181229000Y-111042334D01*
X181186809Y-110979191D01*
X181145000Y-110951255D01*
X181145000Y-108812064D01*
X181164904Y-108712000D01*
X181145000Y-108611935D01*
X181145000Y-106422840D01*
X185318065Y-102249776D01*
X185198954Y-102505258D01*
X185319003Y-102743000D01*
X186563000Y-102743000D01*
X186563000Y-101499622D01*
X186817000Y-101499622D01*
X186817000Y-102743000D01*
X188060997Y-102743000D01*
X188181046Y-102505258D01*
X187927966Y-101962424D01*
X187486417Y-101557760D01*
X187054740Y-101378964D01*
X186817000Y-101499622D01*
X186563000Y-101499622D01*
X186325260Y-101378964D01*
X185893583Y-101557760D01*
X185812950Y-101631657D01*
X185862000Y-101385065D01*
X185862000Y-101385064D01*
X185881904Y-101285001D01*
X185862000Y-101184937D01*
X185862000Y-101184750D01*
X189871000Y-101184750D01*
X189871000Y-101625309D01*
X189967673Y-101858698D01*
X190146301Y-102037327D01*
X190379690Y-102134000D01*
X190595250Y-102134000D01*
X190754000Y-101975250D01*
X190754000Y-101026000D01*
X191008000Y-101026000D01*
X191008000Y-101975250D01*
X191166750Y-102134000D01*
X191382310Y-102134000D01*
X191615699Y-102037327D01*
X191794327Y-101858698D01*
X191891000Y-101625309D01*
X191891000Y-101184750D01*
X191732250Y-101026000D01*
X191008000Y-101026000D01*
X190754000Y-101026000D01*
X190029750Y-101026000D01*
X189871000Y-101184750D01*
X185862000Y-101184750D01*
X185862000Y-100076000D01*
X189911051Y-100076000D01*
X189871000Y-100172691D01*
X189871000Y-100613250D01*
X190029750Y-100772000D01*
X190754000Y-100772000D01*
X190754000Y-100752000D01*
X191008000Y-100752000D01*
X191008000Y-100772000D01*
X191732250Y-100772000D01*
X191891000Y-100613250D01*
X191891000Y-100172691D01*
X191825682Y-100015000D01*
X192085001Y-100015000D01*
X192085000Y-104592936D01*
X192065096Y-104693000D01*
X192085000Y-104793063D01*
X192085000Y-104793064D01*
X192143949Y-105089422D01*
X192368505Y-105425495D01*
X192453340Y-105482180D01*
X194298822Y-107327663D01*
X194355505Y-107412495D01*
X194440336Y-107469177D01*
X194691575Y-107637050D01*
X194691576Y-107637050D01*
X194691577Y-107637051D01*
X194987935Y-107696000D01*
X195087999Y-107715904D01*
X195188063Y-107696000D01*
X195205743Y-107696000D01*
X195251843Y-107927765D01*
X195392191Y-108137809D01*
X195602235Y-108278157D01*
X195850000Y-108327440D01*
X197850000Y-108327440D01*
X198097765Y-108278157D01*
X198307809Y-108137809D01*
X198448157Y-107927765D01*
X198494257Y-107696000D01*
X206274937Y-107696000D01*
X206375000Y-107715904D01*
X206475063Y-107696000D01*
X206475065Y-107696000D01*
X206771423Y-107637051D01*
X207107495Y-107412495D01*
X207164180Y-107327660D01*
X211147664Y-103344177D01*
X211232495Y-103287495D01*
X211457051Y-102951423D01*
X211516000Y-102655065D01*
X211516000Y-102655064D01*
X211535904Y-102555000D01*
X211516000Y-102454937D01*
X211516000Y-101190745D01*
X211557809Y-101162809D01*
X211698157Y-100952765D01*
X211747440Y-100705000D01*
X211747440Y-100450739D01*
X211777051Y-100406423D01*
X211836000Y-100110065D01*
X211836000Y-100110064D01*
X211855904Y-100010001D01*
X211836000Y-99909937D01*
X211836000Y-97627124D01*
X211890625Y-97590625D01*
X211963000Y-97482308D01*
X211963000Y-124333000D01*
G36*
X185405000Y-115307440D02*
X185682560Y-115307440D01*
X185682560Y-115585000D01*
X185707424Y-115710000D01*
X185682560Y-115835000D01*
X185682560Y-116385000D01*
X185707424Y-116510000D01*
X185682560Y-116635000D01*
X185682560Y-117185000D01*
X185703217Y-117288852D01*
X185695000Y-117308690D01*
X185695000Y-117424250D01*
X185788888Y-117518138D01*
X185872191Y-117642809D01*
X185972749Y-117710000D01*
X185872191Y-117777191D01*
X185788888Y-117901862D01*
X185695000Y-117995750D01*
X185695000Y-118111310D01*
X185703217Y-118131148D01*
X185682560Y-118235000D01*
X185682560Y-118785000D01*
X185707424Y-118910000D01*
X185682560Y-119035000D01*
X185682560Y-119303800D01*
X185283511Y-119303800D01*
X185244280Y-119264569D01*
X184863874Y-119107000D01*
X184808393Y-119107000D01*
X184477072Y-118775678D01*
X184430308Y-118705692D01*
X184153049Y-118520433D01*
X183908554Y-118471800D01*
X183908549Y-118471800D01*
X183826000Y-118455380D01*
X183743451Y-118471800D01*
X180065000Y-118471800D01*
X180065000Y-118427945D01*
X180235070Y-118314308D01*
X180281834Y-118244322D01*
X180852601Y-117673555D01*
X181053280Y-117590431D01*
X181344431Y-117299280D01*
X181502000Y-116918874D01*
X181502000Y-116507126D01*
X181370779Y-116190331D01*
X181633386Y-116452937D01*
X181677316Y-116518684D01*
X181937772Y-116692715D01*
X182167448Y-116738400D01*
X182167449Y-116738400D01*
X182245000Y-116753826D01*
X182322551Y-116738400D01*
X182711689Y-116738400D01*
X182801720Y-116828431D01*
X183182126Y-116986000D01*
X183593874Y-116986000D01*
X183974280Y-116828431D01*
X184265431Y-116537280D01*
X184423000Y-116156874D01*
X184423000Y-115745126D01*
X184265431Y-115364720D01*
X184208151Y-115307440D01*
X184355000Y-115307440D01*
X184480000Y-115282576D01*
X184605000Y-115307440D01*
X185155000Y-115307440D01*
X185280000Y-115282576D01*
X185405000Y-115307440D01*
X185405000Y-115307440D01*
G37*
X185405000Y-115307440D02*
X185682560Y-115307440D01*
X185682560Y-115585000D01*
X185707424Y-115710000D01*
X185682560Y-115835000D01*
X185682560Y-116385000D01*
X185707424Y-116510000D01*
X185682560Y-116635000D01*
X185682560Y-117185000D01*
X185703217Y-117288852D01*
X185695000Y-117308690D01*
X185695000Y-117424250D01*
X185788888Y-117518138D01*
X185872191Y-117642809D01*
X185972749Y-117710000D01*
X185872191Y-117777191D01*
X185788888Y-117901862D01*
X185695000Y-117995750D01*
X185695000Y-118111310D01*
X185703217Y-118131148D01*
X185682560Y-118235000D01*
X185682560Y-118785000D01*
X185707424Y-118910000D01*
X185682560Y-119035000D01*
X185682560Y-119303800D01*
X185283511Y-119303800D01*
X185244280Y-119264569D01*
X184863874Y-119107000D01*
X184808393Y-119107000D01*
X184477072Y-118775678D01*
X184430308Y-118705692D01*
X184153049Y-118520433D01*
X183908554Y-118471800D01*
X183908549Y-118471800D01*
X183826000Y-118455380D01*
X183743451Y-118471800D01*
X180065000Y-118471800D01*
X180065000Y-118427945D01*
X180235070Y-118314308D01*
X180281834Y-118244322D01*
X180852601Y-117673555D01*
X181053280Y-117590431D01*
X181344431Y-117299280D01*
X181502000Y-116918874D01*
X181502000Y-116507126D01*
X181370779Y-116190331D01*
X181633386Y-116452937D01*
X181677316Y-116518684D01*
X181937772Y-116692715D01*
X182167448Y-116738400D01*
X182167449Y-116738400D01*
X182245000Y-116753826D01*
X182322551Y-116738400D01*
X182711689Y-116738400D01*
X182801720Y-116828431D01*
X183182126Y-116986000D01*
X183593874Y-116986000D01*
X183974280Y-116828431D01*
X184265431Y-116537280D01*
X184423000Y-116156874D01*
X184423000Y-115745126D01*
X184265431Y-115364720D01*
X184208151Y-115307440D01*
X184355000Y-115307440D01*
X184480000Y-115282576D01*
X184605000Y-115307440D01*
X185155000Y-115307440D01*
X185280000Y-115282576D01*
X185405000Y-115307440D01*
G36*
X206831843Y-95422235D02*
X206782560Y-95670000D01*
X206782560Y-97370000D01*
X206831843Y-97617765D01*
X206972191Y-97827809D01*
X207182235Y-97968157D01*
X207430000Y-98017440D01*
X209130000Y-98017440D01*
X209377765Y-97968157D01*
X209587809Y-97827809D01*
X209728157Y-97617765D01*
X209737184Y-97572381D01*
X209749375Y-97590625D01*
X209804000Y-97627124D01*
X209804001Y-99326655D01*
X209652235Y-99356843D01*
X209560898Y-99417873D01*
X209559698Y-99416673D01*
X209326309Y-99320000D01*
X208885750Y-99320000D01*
X208727000Y-99478750D01*
X208727000Y-100203000D01*
X208747000Y-100203000D01*
X208747000Y-100457000D01*
X208727000Y-100457000D01*
X208727000Y-101181250D01*
X208885750Y-101340000D01*
X209326309Y-101340000D01*
X209484001Y-101274682D01*
X209484000Y-102134159D01*
X205954160Y-105664000D01*
X202711000Y-105664000D01*
X202711000Y-105458126D01*
X202553431Y-105077720D01*
X202519842Y-105044131D01*
X202514200Y-105015766D01*
X202514200Y-105015761D01*
X202465567Y-104771266D01*
X202280308Y-104494007D01*
X202210324Y-104447245D01*
X200733757Y-102970679D01*
X200686993Y-102900692D01*
X200409734Y-102715433D01*
X200165239Y-102666800D01*
X200165234Y-102666800D01*
X200082685Y-102650380D01*
X200000136Y-102666800D01*
X198016408Y-102666800D01*
X198002534Y-102652926D01*
X198269387Y-102554264D01*
X198495908Y-101944539D01*
X198471856Y-101294540D01*
X198269387Y-100805736D01*
X198002532Y-100707073D01*
X197029605Y-101680000D01*
X197043748Y-101694143D01*
X196864143Y-101873748D01*
X196850000Y-101859605D01*
X196835858Y-101873748D01*
X196656253Y-101694143D01*
X196670395Y-101680000D01*
X195697468Y-100707073D01*
X195430613Y-100805736D01*
X195402200Y-100882215D01*
X195402200Y-100527468D01*
X195877073Y-100527468D01*
X196850000Y-101500395D01*
X197734645Y-100615750D01*
X207365000Y-100615750D01*
X207365000Y-100831310D01*
X207461673Y-101064699D01*
X207640302Y-101243327D01*
X207873691Y-101340000D01*
X208314250Y-101340000D01*
X208473000Y-101181250D01*
X208473000Y-100457000D01*
X207523750Y-100457000D01*
X207365000Y-100615750D01*
X197734645Y-100615750D01*
X197822927Y-100527468D01*
X197724264Y-100260613D01*
X197114539Y-100034092D01*
X196464540Y-100058144D01*
X195975736Y-100260613D01*
X195877073Y-100527468D01*
X195402200Y-100527468D01*
X195402200Y-100423193D01*
X195927194Y-99898200D01*
X196767451Y-99898200D01*
X196850000Y-99914620D01*
X196932549Y-99898200D01*
X196932554Y-99898200D01*
X197177049Y-99849567D01*
X197208293Y-99828690D01*
X207365000Y-99828690D01*
X207365000Y-100044250D01*
X207523750Y-100203000D01*
X208473000Y-100203000D01*
X208473000Y-99478750D01*
X208314250Y-99320000D01*
X207873691Y-99320000D01*
X207640302Y-99416673D01*
X207461673Y-99595301D01*
X207365000Y-99828690D01*
X197208293Y-99828690D01*
X197454308Y-99664308D01*
X197501072Y-99594321D01*
X198654324Y-98441069D01*
X198724308Y-98394308D01*
X198809704Y-98266505D01*
X198850546Y-98205380D01*
X198909567Y-98117049D01*
X198958200Y-97872554D01*
X198958200Y-97872550D01*
X198974620Y-97790001D01*
X198964955Y-97741413D01*
X199190625Y-97590625D01*
X199403843Y-97271522D01*
X199464817Y-97401358D01*
X199893076Y-97791645D01*
X200303110Y-97961476D01*
X200533000Y-97840155D01*
X200533000Y-96647000D01*
X200787000Y-96647000D01*
X200787000Y-97840155D01*
X201016890Y-97961476D01*
X201426924Y-97791645D01*
X201855183Y-97401358D01*
X202101486Y-96876892D01*
X201980819Y-96647000D01*
X200787000Y-96647000D01*
X200533000Y-96647000D01*
X200513000Y-96647000D01*
X200513000Y-96393000D01*
X200533000Y-96393000D01*
X200533000Y-96373000D01*
X200787000Y-96373000D01*
X200787000Y-96393000D01*
X201980819Y-96393000D01*
X202101486Y-96163108D01*
X201855183Y-95638642D01*
X201568085Y-95377000D01*
X206862068Y-95377000D01*
X206831843Y-95422235D01*
X206831843Y-95422235D01*
G37*
X206831843Y-95422235D02*
X206782560Y-95670000D01*
X206782560Y-97370000D01*
X206831843Y-97617765D01*
X206972191Y-97827809D01*
X207182235Y-97968157D01*
X207430000Y-98017440D01*
X209130000Y-98017440D01*
X209377765Y-97968157D01*
X209587809Y-97827809D01*
X209728157Y-97617765D01*
X209737184Y-97572381D01*
X209749375Y-97590625D01*
X209804000Y-97627124D01*
X209804001Y-99326655D01*
X209652235Y-99356843D01*
X209560898Y-99417873D01*
X209559698Y-99416673D01*
X209326309Y-99320000D01*
X208885750Y-99320000D01*
X208727000Y-99478750D01*
X208727000Y-100203000D01*
X208747000Y-100203000D01*
X208747000Y-100457000D01*
X208727000Y-100457000D01*
X208727000Y-101181250D01*
X208885750Y-101340000D01*
X209326309Y-101340000D01*
X209484001Y-101274682D01*
X209484000Y-102134159D01*
X205954160Y-105664000D01*
X202711000Y-105664000D01*
X202711000Y-105458126D01*
X202553431Y-105077720D01*
X202519842Y-105044131D01*
X202514200Y-105015766D01*
X202514200Y-105015761D01*
X202465567Y-104771266D01*
X202280308Y-104494007D01*
X202210324Y-104447245D01*
X200733757Y-102970679D01*
X200686993Y-102900692D01*
X200409734Y-102715433D01*
X200165239Y-102666800D01*
X200165234Y-102666800D01*
X200082685Y-102650380D01*
X200000136Y-102666800D01*
X198016408Y-102666800D01*
X198002534Y-102652926D01*
X198269387Y-102554264D01*
X198495908Y-101944539D01*
X198471856Y-101294540D01*
X198269387Y-100805736D01*
X198002532Y-100707073D01*
X197029605Y-101680000D01*
X197043748Y-101694143D01*
X196864143Y-101873748D01*
X196850000Y-101859605D01*
X196835858Y-101873748D01*
X196656253Y-101694143D01*
X196670395Y-101680000D01*
X195697468Y-100707073D01*
X195430613Y-100805736D01*
X195402200Y-100882215D01*
X195402200Y-100527468D01*
X195877073Y-100527468D01*
X196850000Y-101500395D01*
X197734645Y-100615750D01*
X207365000Y-100615750D01*
X207365000Y-100831310D01*
X207461673Y-101064699D01*
X207640302Y-101243327D01*
X207873691Y-101340000D01*
X208314250Y-101340000D01*
X208473000Y-101181250D01*
X208473000Y-100457000D01*
X207523750Y-100457000D01*
X207365000Y-100615750D01*
X197734645Y-100615750D01*
X197822927Y-100527468D01*
X197724264Y-100260613D01*
X197114539Y-100034092D01*
X196464540Y-100058144D01*
X195975736Y-100260613D01*
X195877073Y-100527468D01*
X195402200Y-100527468D01*
X195402200Y-100423193D01*
X195927194Y-99898200D01*
X196767451Y-99898200D01*
X196850000Y-99914620D01*
X196932549Y-99898200D01*
X196932554Y-99898200D01*
X197177049Y-99849567D01*
X197208293Y-99828690D01*
X207365000Y-99828690D01*
X207365000Y-100044250D01*
X207523750Y-100203000D01*
X208473000Y-100203000D01*
X208473000Y-99478750D01*
X208314250Y-99320000D01*
X207873691Y-99320000D01*
X207640302Y-99416673D01*
X207461673Y-99595301D01*
X207365000Y-99828690D01*
X197208293Y-99828690D01*
X197454308Y-99664308D01*
X197501072Y-99594321D01*
X198654324Y-98441069D01*
X198724308Y-98394308D01*
X198809704Y-98266505D01*
X198850546Y-98205380D01*
X198909567Y-98117049D01*
X198958200Y-97872554D01*
X198958200Y-97872550D01*
X198974620Y-97790001D01*
X198964955Y-97741413D01*
X199190625Y-97590625D01*
X199403843Y-97271522D01*
X199464817Y-97401358D01*
X199893076Y-97791645D01*
X200303110Y-97961476D01*
X200533000Y-97840155D01*
X200533000Y-96647000D01*
X200787000Y-96647000D01*
X200787000Y-97840155D01*
X201016890Y-97961476D01*
X201426924Y-97791645D01*
X201855183Y-97401358D01*
X202101486Y-96876892D01*
X201980819Y-96647000D01*
X200787000Y-96647000D01*
X200533000Y-96647000D01*
X200513000Y-96647000D01*
X200513000Y-96393000D01*
X200533000Y-96393000D01*
X200533000Y-96373000D01*
X200787000Y-96373000D01*
X200787000Y-96393000D01*
X201980819Y-96393000D01*
X202101486Y-96163108D01*
X201855183Y-95638642D01*
X201568085Y-95377000D01*
X206862068Y-95377000D01*
X206831843Y-95422235D01*
G04 #@! TD*
M02*
