M48
;DRILL file {KiCad (5.0.1)-3} date 25/12/2018 20:41:05
;FORMAT={-:-/ absolute / inch / decimal}
FMAT,2
INCH,TZ
T1C0.0157
T2C0.0394
T3C0.1378
%
G90
G05
M72
T1
X6.645Y-4.4976
X6.8394Y-4.4626
X6.985Y-4.46
X7.0917Y-4.405
X7.105Y-4.595
X7.11Y-4.74
X7.12Y-4.53
X7.1783Y-4.405
X7.22Y-4.565
X7.27Y-4.73
X7.29Y-5.105
X7.515Y-3.9724
X7.94Y-4.16
T2
X7.6Y-3.8
X7.7Y-3.8
X7.8Y-3.8
X7.9Y-3.8
X8.05Y-4.45
X8.05Y-4.55
X8.05Y-4.65
X8.05Y-4.75
X7.35Y-4.05
X7.35Y-4.15
X7.35Y-4.25
X7.2Y-3.8
X7.3Y-3.8
X7.6Y-4.5
X7.6Y-4.6
X7.6Y-4.7
X7.7Y-4.5
X7.7Y-4.6
X7.7Y-4.7
X8.2Y-3.8
X8.3Y-3.8
X7.75Y-4.0031
X7.75Y-4.2
T3
X6.6941Y-4.15
T0
M30
