G04 #@! TF.GenerationSoftware,KiCad,Pcbnew,(5.0.1)-3*
G04 #@! TF.CreationDate,2018-12-25T20:41:25+01:00*
G04 #@! TF.ProjectId,iLight,694C696768742E6B696361645F706362,rev?*
G04 #@! TF.SameCoordinates,Original*
G04 #@! TF.FileFunction,Legend,Top*
G04 #@! TF.FilePolarity,Positive*
%FSLAX46Y46*%
G04 Gerber Fmt 4.6, Leading zero omitted, Abs format (unit mm)*
G04 Created by KiCad (PCBNEW (5.0.1)-3) date 25/12/2018 20:41:25*
%MOMM*%
%LPD*%
G01*
G04 APERTURE LIST*
%ADD10C,0.300000*%
%ADD11C,0.120000*%
%ADD12C,0.150000*%
G04 APERTURE END LIST*
D10*
X192202857Y-121098571D02*
X192560000Y-122598571D01*
X192845714Y-121527142D01*
X193131428Y-122598571D01*
X193488571Y-121098571D01*
X194060000Y-122598571D02*
X194060000Y-121598571D01*
X194060000Y-121098571D02*
X193988571Y-121170000D01*
X194060000Y-121241428D01*
X194131428Y-121170000D01*
X194060000Y-121098571D01*
X194060000Y-121241428D01*
X194774285Y-122598571D02*
X194774285Y-121598571D01*
X194774285Y-121884285D02*
X194845714Y-121741428D01*
X194917142Y-121670000D01*
X195060000Y-121598571D01*
X195202857Y-121598571D01*
X196274285Y-122527142D02*
X196131428Y-122598571D01*
X195845714Y-122598571D01*
X195702857Y-122527142D01*
X195631428Y-122384285D01*
X195631428Y-121812857D01*
X195702857Y-121670000D01*
X195845714Y-121598571D01*
X196131428Y-121598571D01*
X196274285Y-121670000D01*
X196345714Y-121812857D01*
X196345714Y-121955714D01*
X195631428Y-122098571D01*
X192310000Y-110938571D02*
X192667142Y-112438571D01*
X192952857Y-111367142D01*
X193238571Y-112438571D01*
X193595714Y-110938571D01*
X194167142Y-112438571D02*
X194167142Y-111438571D01*
X194167142Y-110938571D02*
X194095714Y-111010000D01*
X194167142Y-111081428D01*
X194238571Y-111010000D01*
X194167142Y-110938571D01*
X194167142Y-111081428D01*
X195381428Y-111652857D02*
X194881428Y-111652857D01*
X194881428Y-112438571D02*
X194881428Y-110938571D01*
X195595714Y-110938571D01*
X196167142Y-112438571D02*
X196167142Y-111438571D01*
X196167142Y-110938571D02*
X196095714Y-111010000D01*
X196167142Y-111081428D01*
X196238571Y-111010000D01*
X196167142Y-110938571D01*
X196167142Y-111081428D01*
D11*
G04 #@! TO.C,PROG1*
X203200000Y-111760000D02*
X204470000Y-111760000D01*
X203200000Y-113030000D02*
X203200000Y-111760000D01*
G04 #@! TO.C,P/W1*
X191770000Y-113030000D02*
X193040000Y-113030000D01*
X191770000Y-114300000D02*
X191770000Y-113030000D01*
X194082929Y-119760000D02*
X194537071Y-119760000D01*
X194082929Y-119000000D02*
X194537071Y-119000000D01*
X194082929Y-117220000D02*
X194537071Y-117220000D01*
X194082929Y-116460000D02*
X194537071Y-116460000D01*
X194150000Y-114680000D02*
X194537071Y-114680000D01*
X194150000Y-113920000D02*
X194537071Y-113920000D01*
G04 #@! TO.C,ALIM1*
X181610000Y-97790000D02*
X181610000Y-96520000D01*
X182880000Y-97790000D02*
X181610000Y-97790000D01*
X185800000Y-95477071D02*
X185800000Y-95080000D01*
X185040000Y-95477071D02*
X185040000Y-95080000D01*
X185800000Y-86420000D02*
X185800000Y-92420000D01*
X185040000Y-86420000D02*
X185800000Y-86420000D01*
X185040000Y-92420000D02*
X185040000Y-86420000D01*
X184150000Y-95080000D02*
X184150000Y-92420000D01*
X183260000Y-95410000D02*
X183260000Y-95080000D01*
X182500000Y-95410000D02*
X182500000Y-95080000D01*
X183160000Y-92420000D02*
X183160000Y-86420000D01*
X183040000Y-92420000D02*
X183040000Y-86420000D01*
X182920000Y-92420000D02*
X182920000Y-86420000D01*
X182800000Y-92420000D02*
X182800000Y-86420000D01*
X182680000Y-92420000D02*
X182680000Y-86420000D01*
X182560000Y-92420000D02*
X182560000Y-86420000D01*
X183260000Y-86420000D02*
X183260000Y-92420000D01*
X182500000Y-86420000D02*
X183260000Y-86420000D01*
X182500000Y-92420000D02*
X182500000Y-86420000D01*
X181550000Y-92420000D02*
X181550000Y-95080000D01*
X186750000Y-92420000D02*
X181550000Y-92420000D01*
X186750000Y-95080000D02*
X186750000Y-92420000D01*
X181550000Y-95080000D02*
X186750000Y-95080000D01*
G04 #@! TO.C,C2*
X190281000Y-100299000D02*
X190281000Y-99599000D01*
X191481000Y-99599000D02*
X191481000Y-100299000D01*
G04 #@! TO.C,C3*
X169453000Y-115539000D02*
X169453000Y-114839000D01*
X170653000Y-114839000D02*
X170653000Y-115539000D01*
G04 #@! TO.C,C4*
X169383000Y-114839000D02*
X169383000Y-115539000D01*
X168183000Y-115539000D02*
X168183000Y-114839000D01*
G04 #@! TO.C,C5*
X189900000Y-118394000D02*
X189900000Y-117694000D01*
X191100000Y-117694000D02*
X191100000Y-118394000D01*
G04 #@! TO.C,C6*
X188630000Y-118460000D02*
X188630000Y-117760000D01*
X189830000Y-117760000D02*
X189830000Y-118460000D01*
G04 #@! TO.C,C7*
X209200000Y-99730000D02*
X209900000Y-99730000D01*
X209900000Y-100930000D02*
X209200000Y-100930000D01*
G04 #@! TO.C,C8*
X184246000Y-99660000D02*
X183546000Y-99660000D01*
X183546000Y-98460000D02*
X184246000Y-98460000D01*
G04 #@! TO.C,C1*
X196100000Y-108630000D02*
X197600000Y-108630000D01*
X196850000Y-109380000D02*
X196850000Y-107880000D01*
X196571000Y-99099000D02*
X197129000Y-99099000D01*
X196178000Y-99139000D02*
X197522000Y-99139000D01*
X195937000Y-99179000D02*
X197763000Y-99179000D01*
X195746000Y-99219000D02*
X197954000Y-99219000D01*
X195585000Y-99259000D02*
X198115000Y-99259000D01*
X195443000Y-99299000D02*
X198257000Y-99299000D01*
X195314000Y-99339000D02*
X198386000Y-99339000D01*
X195196000Y-99379000D02*
X198504000Y-99379000D01*
X195087000Y-99419000D02*
X198613000Y-99419000D01*
X194984000Y-99459000D02*
X198716000Y-99459000D01*
X194888000Y-99499000D02*
X198812000Y-99499000D01*
X194797000Y-99539000D02*
X198903000Y-99539000D01*
X194710000Y-99579000D02*
X198990000Y-99579000D01*
X194628000Y-99619000D02*
X199072000Y-99619000D01*
X194549000Y-99659000D02*
X199151000Y-99659000D01*
X194473000Y-99699000D02*
X199227000Y-99699000D01*
X194401000Y-99739000D02*
X199299000Y-99739000D01*
X194331000Y-99779000D02*
X199369000Y-99779000D01*
X194263000Y-99819000D02*
X199437000Y-99819000D01*
X194198000Y-99859000D02*
X199502000Y-99859000D01*
X194135000Y-99899000D02*
X199565000Y-99899000D01*
X194073000Y-99939000D02*
X199627000Y-99939000D01*
X194014000Y-99979000D02*
X199686000Y-99979000D01*
X193956000Y-100019000D02*
X199744000Y-100019000D01*
X193901000Y-100059000D02*
X199799000Y-100059000D01*
X193846000Y-100099000D02*
X199854000Y-100099000D01*
X193793000Y-100139000D02*
X199907000Y-100139000D01*
X193742000Y-100179000D02*
X199958000Y-100179000D01*
X193692000Y-100219000D02*
X200008000Y-100219000D01*
X193643000Y-100259000D02*
X200057000Y-100259000D01*
X193595000Y-100299000D02*
X200105000Y-100299000D01*
X193548000Y-100339000D02*
X200152000Y-100339000D01*
X193503000Y-100379000D02*
X200197000Y-100379000D01*
X193459000Y-100419000D02*
X200241000Y-100419000D01*
X193415000Y-100459000D02*
X200285000Y-100459000D01*
X193373000Y-100499000D02*
X200327000Y-100499000D01*
X198031000Y-100539000D02*
X200368000Y-100539000D01*
X193332000Y-100539000D02*
X195669000Y-100539000D01*
X198031000Y-100579000D02*
X200409000Y-100579000D01*
X193291000Y-100579000D02*
X195669000Y-100579000D01*
X198031000Y-100619000D02*
X200448000Y-100619000D01*
X193252000Y-100619000D02*
X195669000Y-100619000D01*
X198031000Y-100659000D02*
X200487000Y-100659000D01*
X193213000Y-100659000D02*
X195669000Y-100659000D01*
X198031000Y-100699000D02*
X200525000Y-100699000D01*
X193175000Y-100699000D02*
X195669000Y-100699000D01*
X198031000Y-100739000D02*
X200562000Y-100739000D01*
X193138000Y-100739000D02*
X195669000Y-100739000D01*
X198031000Y-100779000D02*
X200598000Y-100779000D01*
X193102000Y-100779000D02*
X195669000Y-100779000D01*
X198031000Y-100819000D02*
X200634000Y-100819000D01*
X193066000Y-100819000D02*
X195669000Y-100819000D01*
X198031000Y-100859000D02*
X200669000Y-100859000D01*
X193031000Y-100859000D02*
X195669000Y-100859000D01*
X198031000Y-100899000D02*
X200703000Y-100899000D01*
X192997000Y-100899000D02*
X195669000Y-100899000D01*
X198031000Y-100939000D02*
X200736000Y-100939000D01*
X192964000Y-100939000D02*
X195669000Y-100939000D01*
X198031000Y-100979000D02*
X200769000Y-100979000D01*
X192931000Y-100979000D02*
X195669000Y-100979000D01*
X198031000Y-101019000D02*
X200801000Y-101019000D01*
X192899000Y-101019000D02*
X195669000Y-101019000D01*
X198031000Y-101059000D02*
X200832000Y-101059000D01*
X192868000Y-101059000D02*
X195669000Y-101059000D01*
X198031000Y-101099000D02*
X200863000Y-101099000D01*
X192837000Y-101099000D02*
X195669000Y-101099000D01*
X198031000Y-101139000D02*
X200893000Y-101139000D01*
X192807000Y-101139000D02*
X195669000Y-101139000D01*
X198031000Y-101179000D02*
X200922000Y-101179000D01*
X192778000Y-101179000D02*
X195669000Y-101179000D01*
X198031000Y-101219000D02*
X200951000Y-101219000D01*
X192749000Y-101219000D02*
X195669000Y-101219000D01*
X198031000Y-101259000D02*
X200980000Y-101259000D01*
X192720000Y-101259000D02*
X195669000Y-101259000D01*
X198031000Y-101299000D02*
X201007000Y-101299000D01*
X192693000Y-101299000D02*
X195669000Y-101299000D01*
X198031000Y-101339000D02*
X201035000Y-101339000D01*
X192665000Y-101339000D02*
X195669000Y-101339000D01*
X198031000Y-101379000D02*
X201061000Y-101379000D01*
X192639000Y-101379000D02*
X195669000Y-101379000D01*
X198031000Y-101419000D02*
X201087000Y-101419000D01*
X192613000Y-101419000D02*
X195669000Y-101419000D01*
X198031000Y-101459000D02*
X201113000Y-101459000D01*
X192587000Y-101459000D02*
X195669000Y-101459000D01*
X198031000Y-101499000D02*
X201138000Y-101499000D01*
X192562000Y-101499000D02*
X195669000Y-101499000D01*
X198031000Y-101539000D02*
X201162000Y-101539000D01*
X192538000Y-101539000D02*
X195669000Y-101539000D01*
X198031000Y-101579000D02*
X201186000Y-101579000D01*
X192514000Y-101579000D02*
X195669000Y-101579000D01*
X198031000Y-101619000D02*
X201210000Y-101619000D01*
X192490000Y-101619000D02*
X195669000Y-101619000D01*
X198031000Y-101659000D02*
X201233000Y-101659000D01*
X192467000Y-101659000D02*
X195669000Y-101659000D01*
X198031000Y-101699000D02*
X201255000Y-101699000D01*
X192445000Y-101699000D02*
X195669000Y-101699000D01*
X198031000Y-101739000D02*
X201278000Y-101739000D01*
X192422000Y-101739000D02*
X195669000Y-101739000D01*
X198031000Y-101779000D02*
X201299000Y-101779000D01*
X192401000Y-101779000D02*
X195669000Y-101779000D01*
X198031000Y-101819000D02*
X201320000Y-101819000D01*
X192380000Y-101819000D02*
X195669000Y-101819000D01*
X198031000Y-101859000D02*
X201341000Y-101859000D01*
X192359000Y-101859000D02*
X195669000Y-101859000D01*
X198031000Y-101899000D02*
X201361000Y-101899000D01*
X192339000Y-101899000D02*
X195669000Y-101899000D01*
X198031000Y-101939000D02*
X201381000Y-101939000D01*
X192319000Y-101939000D02*
X195669000Y-101939000D01*
X198031000Y-101979000D02*
X201400000Y-101979000D01*
X192300000Y-101979000D02*
X195669000Y-101979000D01*
X198031000Y-102019000D02*
X201419000Y-102019000D01*
X192281000Y-102019000D02*
X195669000Y-102019000D01*
X198031000Y-102059000D02*
X201438000Y-102059000D01*
X192262000Y-102059000D02*
X195669000Y-102059000D01*
X198031000Y-102099000D02*
X201456000Y-102099000D01*
X192244000Y-102099000D02*
X195669000Y-102099000D01*
X198031000Y-102139000D02*
X201474000Y-102139000D01*
X192226000Y-102139000D02*
X195669000Y-102139000D01*
X198031000Y-102179000D02*
X201491000Y-102179000D01*
X192209000Y-102179000D02*
X195669000Y-102179000D01*
X198031000Y-102219000D02*
X201508000Y-102219000D01*
X192192000Y-102219000D02*
X195669000Y-102219000D01*
X198031000Y-102259000D02*
X201524000Y-102259000D01*
X192176000Y-102259000D02*
X195669000Y-102259000D01*
X198031000Y-102299000D02*
X201541000Y-102299000D01*
X192159000Y-102299000D02*
X195669000Y-102299000D01*
X198031000Y-102339000D02*
X201556000Y-102339000D01*
X192144000Y-102339000D02*
X195669000Y-102339000D01*
X198031000Y-102379000D02*
X201572000Y-102379000D01*
X192128000Y-102379000D02*
X195669000Y-102379000D01*
X198031000Y-102419000D02*
X201587000Y-102419000D01*
X192113000Y-102419000D02*
X195669000Y-102419000D01*
X198031000Y-102459000D02*
X201601000Y-102459000D01*
X192099000Y-102459000D02*
X195669000Y-102459000D01*
X198031000Y-102499000D02*
X201615000Y-102499000D01*
X192085000Y-102499000D02*
X195669000Y-102499000D01*
X198031000Y-102539000D02*
X201629000Y-102539000D01*
X192071000Y-102539000D02*
X195669000Y-102539000D01*
X198031000Y-102579000D02*
X201642000Y-102579000D01*
X192058000Y-102579000D02*
X195669000Y-102579000D01*
X198031000Y-102619000D02*
X201656000Y-102619000D01*
X192044000Y-102619000D02*
X195669000Y-102619000D01*
X198031000Y-102659000D02*
X201668000Y-102659000D01*
X192032000Y-102659000D02*
X195669000Y-102659000D01*
X198031000Y-102699000D02*
X201681000Y-102699000D01*
X192019000Y-102699000D02*
X195669000Y-102699000D01*
X198031000Y-102739000D02*
X201693000Y-102739000D01*
X192007000Y-102739000D02*
X195669000Y-102739000D01*
X198031000Y-102779000D02*
X201704000Y-102779000D01*
X191996000Y-102779000D02*
X195669000Y-102779000D01*
X198031000Y-102819000D02*
X201715000Y-102819000D01*
X191985000Y-102819000D02*
X195669000Y-102819000D01*
X198031000Y-102859000D02*
X201726000Y-102859000D01*
X191974000Y-102859000D02*
X195669000Y-102859000D01*
X191963000Y-102899000D02*
X201737000Y-102899000D01*
X191953000Y-102939000D02*
X201747000Y-102939000D01*
X191943000Y-102979000D02*
X201757000Y-102979000D01*
X191933000Y-103019000D02*
X201767000Y-103019000D01*
X191924000Y-103059000D02*
X201776000Y-103059000D01*
X191915000Y-103099000D02*
X201785000Y-103099000D01*
X191907000Y-103139000D02*
X201793000Y-103139000D01*
X191899000Y-103179000D02*
X201801000Y-103179000D01*
X191891000Y-103219000D02*
X201809000Y-103219000D01*
X191883000Y-103259000D02*
X201817000Y-103259000D01*
X191876000Y-103299000D02*
X201824000Y-103299000D01*
X191869000Y-103339000D02*
X201831000Y-103339000D01*
X191863000Y-103379000D02*
X201837000Y-103379000D01*
X191857000Y-103419000D02*
X201843000Y-103419000D01*
X191851000Y-103459000D02*
X201849000Y-103459000D01*
X191845000Y-103500000D02*
X201855000Y-103500000D01*
X191840000Y-103540000D02*
X201860000Y-103540000D01*
X191835000Y-103580000D02*
X201865000Y-103580000D01*
X191830000Y-103620000D02*
X201870000Y-103620000D01*
X191826000Y-103660000D02*
X201874000Y-103660000D01*
X191822000Y-103700000D02*
X201878000Y-103700000D01*
X191819000Y-103740000D02*
X201881000Y-103740000D01*
X191815000Y-103780000D02*
X201885000Y-103780000D01*
X191812000Y-103820000D02*
X201888000Y-103820000D01*
X191810000Y-103860000D02*
X201890000Y-103860000D01*
X191807000Y-103900000D02*
X201893000Y-103900000D01*
X191805000Y-103940000D02*
X201895000Y-103940000D01*
X191803000Y-103980000D02*
X201897000Y-103980000D01*
X191802000Y-104020000D02*
X201898000Y-104020000D01*
X191801000Y-104060000D02*
X201899000Y-104060000D01*
X191800000Y-104100000D02*
X201900000Y-104100000D01*
X191800000Y-104140000D02*
X201900000Y-104140000D01*
X191800000Y-104180000D02*
X201900000Y-104180000D01*
X198233264Y-99281563D02*
G75*
G03X195470000Y-99280643I-1383264J-4898437D01*
G01*
X198233264Y-99281563D02*
G75*
G02X198230000Y-109079357I-1383264J-4898437D01*
G01*
X195466736Y-99281563D02*
G75*
G03X195470000Y-109079357I1383264J-4898437D01*
G01*
G04 #@! TO.C,Y1*
X171020000Y-125720000D02*
X171020000Y-125320000D01*
X174420000Y-125720000D02*
X171020000Y-125720000D01*
X174420000Y-125320000D02*
X174420000Y-125720000D01*
X174820000Y-125320000D02*
X174420000Y-125320000D01*
X171020000Y-125960000D02*
X174420000Y-125960000D01*
X174420000Y-118120000D02*
X174420000Y-118520000D01*
X171020000Y-118120000D02*
X174420000Y-118120000D01*
X171020000Y-118520000D02*
X171020000Y-118120000D01*
D12*
G04 #@! TO.C,U3*
X179255000Y-114710000D02*
X177830000Y-114710000D01*
X186505000Y-114485000D02*
X186180000Y-114485000D01*
X186505000Y-121735000D02*
X186180000Y-121735000D01*
X179255000Y-121735000D02*
X179580000Y-121735000D01*
X179255000Y-114485000D02*
X179580000Y-114485000D01*
X179255000Y-121735000D02*
X179255000Y-121410000D01*
X186505000Y-121735000D02*
X186505000Y-121410000D01*
X186505000Y-114485000D02*
X186505000Y-114810000D01*
X179255000Y-114485000D02*
X179255000Y-114710000D01*
D11*
G04 #@! TO.C,LAMP*
X206950000Y-95080000D02*
X212150000Y-95080000D01*
X212150000Y-95080000D02*
X212150000Y-92420000D01*
X212150000Y-92420000D02*
X206950000Y-92420000D01*
X206950000Y-92420000D02*
X206950000Y-95080000D01*
X207900000Y-92420000D02*
X207900000Y-86420000D01*
X207900000Y-86420000D02*
X208660000Y-86420000D01*
X208660000Y-86420000D02*
X208660000Y-92420000D01*
X207960000Y-92420000D02*
X207960000Y-86420000D01*
X208080000Y-92420000D02*
X208080000Y-86420000D01*
X208200000Y-92420000D02*
X208200000Y-86420000D01*
X208320000Y-92420000D02*
X208320000Y-86420000D01*
X208440000Y-92420000D02*
X208440000Y-86420000D01*
X208560000Y-92420000D02*
X208560000Y-86420000D01*
X207900000Y-95410000D02*
X207900000Y-95080000D01*
X208660000Y-95410000D02*
X208660000Y-95080000D01*
X209550000Y-95080000D02*
X209550000Y-92420000D01*
X210440000Y-92420000D02*
X210440000Y-86420000D01*
X210440000Y-86420000D02*
X211200000Y-86420000D01*
X211200000Y-86420000D02*
X211200000Y-92420000D01*
X210440000Y-95477071D02*
X210440000Y-95080000D01*
X211200000Y-95477071D02*
X211200000Y-95080000D01*
X208280000Y-97790000D02*
X207010000Y-97790000D01*
X207010000Y-97790000D02*
X207010000Y-96520000D01*
G04 #@! TO.C,LED*
X191710000Y-95080000D02*
X201990000Y-95080000D01*
X201990000Y-95080000D02*
X201990000Y-92420000D01*
X201990000Y-92420000D02*
X191710000Y-92420000D01*
X191710000Y-92420000D02*
X191710000Y-95080000D01*
X192660000Y-92420000D02*
X192660000Y-86420000D01*
X192660000Y-86420000D02*
X193420000Y-86420000D01*
X193420000Y-86420000D02*
X193420000Y-92420000D01*
X192720000Y-92420000D02*
X192720000Y-86420000D01*
X192840000Y-92420000D02*
X192840000Y-86420000D01*
X192960000Y-92420000D02*
X192960000Y-86420000D01*
X193080000Y-92420000D02*
X193080000Y-86420000D01*
X193200000Y-92420000D02*
X193200000Y-86420000D01*
X193320000Y-92420000D02*
X193320000Y-86420000D01*
X192660000Y-95410000D02*
X192660000Y-95080000D01*
X193420000Y-95410000D02*
X193420000Y-95080000D01*
X194310000Y-95080000D02*
X194310000Y-92420000D01*
X195200000Y-92420000D02*
X195200000Y-86420000D01*
X195200000Y-86420000D02*
X195960000Y-86420000D01*
X195960000Y-86420000D02*
X195960000Y-92420000D01*
X195200000Y-95477071D02*
X195200000Y-95080000D01*
X195960000Y-95477071D02*
X195960000Y-95080000D01*
X196850000Y-95080000D02*
X196850000Y-92420000D01*
X197740000Y-92420000D02*
X197740000Y-86420000D01*
X197740000Y-86420000D02*
X198500000Y-86420000D01*
X198500000Y-86420000D02*
X198500000Y-92420000D01*
X197740000Y-95477071D02*
X197740000Y-95080000D01*
X198500000Y-95477071D02*
X198500000Y-95080000D01*
X199390000Y-95080000D02*
X199390000Y-92420000D01*
X200280000Y-92420000D02*
X200280000Y-86420000D01*
X200280000Y-86420000D02*
X201040000Y-86420000D01*
X201040000Y-86420000D02*
X201040000Y-92420000D01*
X200280000Y-95477071D02*
X200280000Y-95080000D01*
X201040000Y-95477071D02*
X201040000Y-95080000D01*
X193040000Y-97790000D02*
X191770000Y-97790000D01*
X191770000Y-97790000D02*
X191770000Y-96520000D01*
G04 #@! TO.C,U2*
X208716000Y-125230000D02*
X208716000Y-124620000D01*
X208716000Y-125230000D02*
X216336000Y-125230000D01*
X192096000Y-125230000D02*
X192716000Y-125230000D01*
X192096000Y-127350000D02*
X192096000Y-125230000D01*
X192096000Y-141470000D02*
X192096000Y-139350000D01*
X192716000Y-141470000D02*
X192096000Y-141470000D01*
X216336000Y-141470000D02*
X208716000Y-141470000D01*
X216336000Y-125230000D02*
X216336000Y-141470000D01*
G04 #@! TO.C,R1*
X198583000Y-121785000D02*
X198583000Y-120785000D01*
X199943000Y-120785000D02*
X199943000Y-121785000D01*
G04 #@! TO.C,R2*
X200234000Y-121785000D02*
X200234000Y-120785000D01*
X201594000Y-120785000D02*
X201594000Y-121785000D01*
G04 #@! TO.C,R3*
X190492000Y-110154000D02*
X189492000Y-110154000D01*
X189492000Y-108794000D02*
X190492000Y-108794000D01*
G04 #@! TO.C,R4*
X190492000Y-108630000D02*
X189492000Y-108630000D01*
X189492000Y-107270000D02*
X190492000Y-107270000D01*
G04 #@! TO.C,R5*
X180729000Y-111207000D02*
X181729000Y-111207000D01*
X181729000Y-112567000D02*
X180729000Y-112567000D01*
G04 #@! TO.C,U1*
X171960000Y-112720000D02*
X173420000Y-112720000D01*
X171960000Y-115880000D02*
X174120000Y-115880000D01*
X171960000Y-115880000D02*
X171960000Y-114950000D01*
X171960000Y-112720000D02*
X171960000Y-113650000D01*
G04 #@! TO.C,Q1*
X183000000Y-102870000D02*
X185624000Y-102870000D01*
X183000000Y-105410000D02*
X185624000Y-105410000D01*
X183000000Y-107950000D02*
X185640000Y-107950000D01*
X167110000Y-100290000D02*
X183000000Y-100290000D01*
X167110000Y-110530000D02*
X183000000Y-110530000D01*
X167110000Y-110530000D02*
X167110000Y-100290000D01*
X183000000Y-110530000D02*
X183000000Y-100290000D01*
G04 #@! TO.C,PROG1*
D12*
X206593095Y-111212380D02*
X206593095Y-110212380D01*
X206974047Y-110212380D01*
X207069285Y-110260000D01*
X207116904Y-110307619D01*
X207164523Y-110402857D01*
X207164523Y-110545714D01*
X207116904Y-110640952D01*
X207069285Y-110688571D01*
X206974047Y-110736190D01*
X206593095Y-110736190D01*
X208164523Y-111212380D02*
X207831190Y-110736190D01*
X207593095Y-111212380D02*
X207593095Y-110212380D01*
X207974047Y-110212380D01*
X208069285Y-110260000D01*
X208116904Y-110307619D01*
X208164523Y-110402857D01*
X208164523Y-110545714D01*
X208116904Y-110640952D01*
X208069285Y-110688571D01*
X207974047Y-110736190D01*
X207593095Y-110736190D01*
X208783571Y-110212380D02*
X208974047Y-110212380D01*
X209069285Y-110260000D01*
X209164523Y-110355238D01*
X209212142Y-110545714D01*
X209212142Y-110879047D01*
X209164523Y-111069523D01*
X209069285Y-111164761D01*
X208974047Y-111212380D01*
X208783571Y-111212380D01*
X208688333Y-111164761D01*
X208593095Y-111069523D01*
X208545476Y-110879047D01*
X208545476Y-110545714D01*
X208593095Y-110355238D01*
X208688333Y-110260000D01*
X208783571Y-110212380D01*
X210164523Y-110260000D02*
X210069285Y-110212380D01*
X209926428Y-110212380D01*
X209783571Y-110260000D01*
X209688333Y-110355238D01*
X209640714Y-110450476D01*
X209593095Y-110640952D01*
X209593095Y-110783809D01*
X209640714Y-110974285D01*
X209688333Y-111069523D01*
X209783571Y-111164761D01*
X209926428Y-111212380D01*
X210021666Y-111212380D01*
X210164523Y-111164761D01*
X210212142Y-111117142D01*
X210212142Y-110783809D01*
X210021666Y-110783809D01*
X211164523Y-111212380D02*
X210593095Y-111212380D01*
X210878809Y-111212380D02*
X210878809Y-110212380D01*
X210783571Y-110355238D01*
X210688333Y-110450476D01*
X210593095Y-110498095D01*
X210058095Y-112530000D02*
X209962857Y-112482380D01*
X209820000Y-112482380D01*
X209677142Y-112530000D01*
X209581904Y-112625238D01*
X209534285Y-112720476D01*
X209486666Y-112910952D01*
X209486666Y-113053809D01*
X209534285Y-113244285D01*
X209581904Y-113339523D01*
X209677142Y-113434761D01*
X209820000Y-113482380D01*
X209915238Y-113482380D01*
X210058095Y-113434761D01*
X210105714Y-113387142D01*
X210105714Y-113053809D01*
X209915238Y-113053809D01*
X210534285Y-113482380D02*
X210534285Y-112482380D01*
X211105714Y-113482380D01*
X211105714Y-112482380D01*
X211581904Y-113482380D02*
X211581904Y-112482380D01*
X211820000Y-112482380D01*
X211962857Y-112530000D01*
X212058095Y-112625238D01*
X212105714Y-112720476D01*
X212153333Y-112910952D01*
X212153333Y-113053809D01*
X212105714Y-113244285D01*
X212058095Y-113339523D01*
X211962857Y-113434761D01*
X211820000Y-113482380D01*
X211581904Y-113482380D01*
G04 #@! TO.C,P/W1*
X196861666Y-112482380D02*
X196861666Y-111482380D01*
X197242619Y-111482380D01*
X197337857Y-111530000D01*
X197385476Y-111577619D01*
X197433095Y-111672857D01*
X197433095Y-111815714D01*
X197385476Y-111910952D01*
X197337857Y-111958571D01*
X197242619Y-112006190D01*
X196861666Y-112006190D01*
X198575952Y-111434761D02*
X197718809Y-112720476D01*
X198814047Y-111482380D02*
X199052142Y-112482380D01*
X199242619Y-111768095D01*
X199433095Y-112482380D01*
X199671190Y-111482380D01*
X200575952Y-112482380D02*
X200004523Y-112482380D01*
X200290238Y-112482380D02*
X200290238Y-111482380D01*
X200195000Y-111625238D01*
X200099761Y-111720476D01*
X200004523Y-111768095D01*
G04 #@! TO.C,ALIM1*
X180506666Y-99718571D02*
X180506666Y-99242380D01*
X180792380Y-99813809D02*
X179792380Y-99480476D01*
X180792380Y-99147142D01*
X180792380Y-98337619D02*
X180792380Y-98813809D01*
X179792380Y-98813809D01*
X180792380Y-98004285D02*
X179792380Y-98004285D01*
X180792380Y-97528095D02*
X179792380Y-97528095D01*
X180506666Y-97194761D01*
X179792380Y-96861428D01*
X180792380Y-96861428D01*
X180792380Y-95861428D02*
X180792380Y-96432857D01*
X180792380Y-96147142D02*
X179792380Y-96147142D01*
X179935238Y-96242380D01*
X180030476Y-96337619D01*
X180078095Y-96432857D01*
G04 #@! TO.C,C2*
X192488142Y-100115666D02*
X192535761Y-100163285D01*
X192583380Y-100306142D01*
X192583380Y-100401380D01*
X192535761Y-100544238D01*
X192440523Y-100639476D01*
X192345285Y-100687095D01*
X192154809Y-100734714D01*
X192011952Y-100734714D01*
X191821476Y-100687095D01*
X191726238Y-100639476D01*
X191631000Y-100544238D01*
X191583380Y-100401380D01*
X191583380Y-100306142D01*
X191631000Y-100163285D01*
X191678619Y-100115666D01*
X191678619Y-99734714D02*
X191631000Y-99687095D01*
X191583380Y-99591857D01*
X191583380Y-99353761D01*
X191631000Y-99258523D01*
X191678619Y-99210904D01*
X191773857Y-99163285D01*
X191869095Y-99163285D01*
X192011952Y-99210904D01*
X192583380Y-99782333D01*
X192583380Y-99163285D01*
G04 #@! TO.C,C3*
X170410142Y-112434666D02*
X170457761Y-112482285D01*
X170505380Y-112625142D01*
X170505380Y-112720380D01*
X170457761Y-112863238D01*
X170362523Y-112958476D01*
X170267285Y-113006095D01*
X170076809Y-113053714D01*
X169933952Y-113053714D01*
X169743476Y-113006095D01*
X169648238Y-112958476D01*
X169553000Y-112863238D01*
X169505380Y-112720380D01*
X169505380Y-112625142D01*
X169553000Y-112482285D01*
X169600619Y-112434666D01*
X169505380Y-112101333D02*
X169505380Y-111482285D01*
X169886333Y-111815619D01*
X169886333Y-111672761D01*
X169933952Y-111577523D01*
X169981571Y-111529904D01*
X170076809Y-111482285D01*
X170314904Y-111482285D01*
X170410142Y-111529904D01*
X170457761Y-111577523D01*
X170505380Y-111672761D01*
X170505380Y-111958476D01*
X170457761Y-112053714D01*
X170410142Y-112101333D01*
G04 #@! TO.C,C4*
X169140142Y-112434666D02*
X169187761Y-112482285D01*
X169235380Y-112625142D01*
X169235380Y-112720380D01*
X169187761Y-112863238D01*
X169092523Y-112958476D01*
X168997285Y-113006095D01*
X168806809Y-113053714D01*
X168663952Y-113053714D01*
X168473476Y-113006095D01*
X168378238Y-112958476D01*
X168283000Y-112863238D01*
X168235380Y-112720380D01*
X168235380Y-112625142D01*
X168283000Y-112482285D01*
X168330619Y-112434666D01*
X168568714Y-111577523D02*
X169235380Y-111577523D01*
X168187761Y-111815619D02*
X168902047Y-112053714D01*
X168902047Y-111434666D01*
G04 #@! TO.C,C5*
X190857142Y-115228666D02*
X190904761Y-115276285D01*
X190952380Y-115419142D01*
X190952380Y-115514380D01*
X190904761Y-115657238D01*
X190809523Y-115752476D01*
X190714285Y-115800095D01*
X190523809Y-115847714D01*
X190380952Y-115847714D01*
X190190476Y-115800095D01*
X190095238Y-115752476D01*
X190000000Y-115657238D01*
X189952380Y-115514380D01*
X189952380Y-115419142D01*
X190000000Y-115276285D01*
X190047619Y-115228666D01*
X189952380Y-114323904D02*
X189952380Y-114800095D01*
X190428571Y-114847714D01*
X190380952Y-114800095D01*
X190333333Y-114704857D01*
X190333333Y-114466761D01*
X190380952Y-114371523D01*
X190428571Y-114323904D01*
X190523809Y-114276285D01*
X190761904Y-114276285D01*
X190857142Y-114323904D01*
X190904761Y-114371523D01*
X190952380Y-114466761D01*
X190952380Y-114704857D01*
X190904761Y-114800095D01*
X190857142Y-114847714D01*
G04 #@! TO.C,C6*
X189587142Y-115228666D02*
X189634761Y-115276285D01*
X189682380Y-115419142D01*
X189682380Y-115514380D01*
X189634761Y-115657238D01*
X189539523Y-115752476D01*
X189444285Y-115800095D01*
X189253809Y-115847714D01*
X189110952Y-115847714D01*
X188920476Y-115800095D01*
X188825238Y-115752476D01*
X188730000Y-115657238D01*
X188682380Y-115514380D01*
X188682380Y-115419142D01*
X188730000Y-115276285D01*
X188777619Y-115228666D01*
X188682380Y-114371523D02*
X188682380Y-114562000D01*
X188730000Y-114657238D01*
X188777619Y-114704857D01*
X188920476Y-114800095D01*
X189110952Y-114847714D01*
X189491904Y-114847714D01*
X189587142Y-114800095D01*
X189634761Y-114752476D01*
X189682380Y-114657238D01*
X189682380Y-114466761D01*
X189634761Y-114371523D01*
X189587142Y-114323904D01*
X189491904Y-114276285D01*
X189253809Y-114276285D01*
X189158571Y-114323904D01*
X189110952Y-114371523D01*
X189063333Y-114466761D01*
X189063333Y-114657238D01*
X189110952Y-114752476D01*
X189158571Y-114800095D01*
X189253809Y-114847714D01*
G04 #@! TO.C,C7*
X209383333Y-99437142D02*
X209335714Y-99484761D01*
X209192857Y-99532380D01*
X209097619Y-99532380D01*
X208954761Y-99484761D01*
X208859523Y-99389523D01*
X208811904Y-99294285D01*
X208764285Y-99103809D01*
X208764285Y-98960952D01*
X208811904Y-98770476D01*
X208859523Y-98675238D01*
X208954761Y-98580000D01*
X209097619Y-98532380D01*
X209192857Y-98532380D01*
X209335714Y-98580000D01*
X209383333Y-98627619D01*
X209716666Y-98532380D02*
X210383333Y-98532380D01*
X209954761Y-99532380D01*
G04 #@! TO.C,C8*
X183729333Y-98167142D02*
X183681714Y-98214761D01*
X183538857Y-98262380D01*
X183443619Y-98262380D01*
X183300761Y-98214761D01*
X183205523Y-98119523D01*
X183157904Y-98024285D01*
X183110285Y-97833809D01*
X183110285Y-97690952D01*
X183157904Y-97500476D01*
X183205523Y-97405238D01*
X183300761Y-97310000D01*
X183443619Y-97262380D01*
X183538857Y-97262380D01*
X183681714Y-97310000D01*
X183729333Y-97357619D01*
X184300761Y-97690952D02*
X184205523Y-97643333D01*
X184157904Y-97595714D01*
X184110285Y-97500476D01*
X184110285Y-97452857D01*
X184157904Y-97357619D01*
X184205523Y-97310000D01*
X184300761Y-97262380D01*
X184491238Y-97262380D01*
X184586476Y-97310000D01*
X184634095Y-97357619D01*
X184681714Y-97452857D01*
X184681714Y-97500476D01*
X184634095Y-97595714D01*
X184586476Y-97643333D01*
X184491238Y-97690952D01*
X184300761Y-97690952D01*
X184205523Y-97738571D01*
X184157904Y-97786190D01*
X184110285Y-97881428D01*
X184110285Y-98071904D01*
X184157904Y-98167142D01*
X184205523Y-98214761D01*
X184300761Y-98262380D01*
X184491238Y-98262380D01*
X184586476Y-98214761D01*
X184634095Y-98167142D01*
X184681714Y-98071904D01*
X184681714Y-97881428D01*
X184634095Y-97786190D01*
X184586476Y-97738571D01*
X184491238Y-97690952D01*
G04 #@! TO.C,C1*
X190897142Y-104346666D02*
X190944761Y-104394285D01*
X190992380Y-104537142D01*
X190992380Y-104632380D01*
X190944761Y-104775238D01*
X190849523Y-104870476D01*
X190754285Y-104918095D01*
X190563809Y-104965714D01*
X190420952Y-104965714D01*
X190230476Y-104918095D01*
X190135238Y-104870476D01*
X190040000Y-104775238D01*
X189992380Y-104632380D01*
X189992380Y-104537142D01*
X190040000Y-104394285D01*
X190087619Y-104346666D01*
X190992380Y-103394285D02*
X190992380Y-103965714D01*
X190992380Y-103680000D02*
X189992380Y-103680000D01*
X190135238Y-103775238D01*
X190230476Y-103870476D01*
X190278095Y-103965714D01*
G04 #@! TO.C,Y1*
X169796190Y-122396190D02*
X170272380Y-122396190D01*
X169272380Y-122729523D02*
X169796190Y-122396190D01*
X169272380Y-122062857D01*
X170272380Y-121205714D02*
X170272380Y-121777142D01*
X170272380Y-121491428D02*
X169272380Y-121491428D01*
X169415238Y-121586666D01*
X169510476Y-121681904D01*
X169558095Y-121777142D01*
G04 #@! TO.C,U3*
X177419095Y-113117380D02*
X177419095Y-113926904D01*
X177466714Y-114022142D01*
X177514333Y-114069761D01*
X177609571Y-114117380D01*
X177800047Y-114117380D01*
X177895285Y-114069761D01*
X177942904Y-114022142D01*
X177990523Y-113926904D01*
X177990523Y-113117380D01*
X178371476Y-113117380D02*
X178990523Y-113117380D01*
X178657190Y-113498333D01*
X178800047Y-113498333D01*
X178895285Y-113545952D01*
X178942904Y-113593571D01*
X178990523Y-113688809D01*
X178990523Y-113926904D01*
X178942904Y-114022142D01*
X178895285Y-114069761D01*
X178800047Y-114117380D01*
X178514333Y-114117380D01*
X178419095Y-114069761D01*
X178371476Y-114022142D01*
G04 #@! TO.C,LAMP*
X203279523Y-96972380D02*
X202803333Y-96972380D01*
X202803333Y-95972380D01*
X203565238Y-96686666D02*
X204041428Y-96686666D01*
X203470000Y-96972380D02*
X203803333Y-95972380D01*
X204136666Y-96972380D01*
X204470000Y-96972380D02*
X204470000Y-95972380D01*
X204803333Y-96686666D01*
X205136666Y-95972380D01*
X205136666Y-96972380D01*
X205612857Y-96972380D02*
X205612857Y-95972380D01*
X205993809Y-95972380D01*
X206089047Y-96020000D01*
X206136666Y-96067619D01*
X206184285Y-96162857D01*
X206184285Y-96305714D01*
X206136666Y-96400952D01*
X206089047Y-96448571D01*
X205993809Y-96496190D01*
X205612857Y-96496190D01*
G04 #@! TO.C,LED*
X188587142Y-96972380D02*
X188110952Y-96972380D01*
X188110952Y-95972380D01*
X188920476Y-96448571D02*
X189253809Y-96448571D01*
X189396666Y-96972380D02*
X188920476Y-96972380D01*
X188920476Y-95972380D01*
X189396666Y-95972380D01*
X189825238Y-96972380D02*
X189825238Y-95972380D01*
X190063333Y-95972380D01*
X190206190Y-96020000D01*
X190301428Y-96115238D01*
X190349047Y-96210476D01*
X190396666Y-96400952D01*
X190396666Y-96543809D01*
X190349047Y-96734285D01*
X190301428Y-96829523D01*
X190206190Y-96924761D01*
X190063333Y-96972380D01*
X189825238Y-96972380D01*
G04 #@! TO.C,U2*
X208928380Y-123551904D02*
X209737904Y-123551904D01*
X209833142Y-123504285D01*
X209880761Y-123456666D01*
X209928380Y-123361428D01*
X209928380Y-123170952D01*
X209880761Y-123075714D01*
X209833142Y-123028095D01*
X209737904Y-122980476D01*
X208928380Y-122980476D01*
X209023619Y-122551904D02*
X208976000Y-122504285D01*
X208928380Y-122409047D01*
X208928380Y-122170952D01*
X208976000Y-122075714D01*
X209023619Y-122028095D01*
X209118857Y-121980476D01*
X209214095Y-121980476D01*
X209356952Y-122028095D01*
X209928380Y-122599523D01*
X209928380Y-121980476D01*
G04 #@! TO.C,R1*
X198265380Y-121451666D02*
X197789190Y-121785000D01*
X198265380Y-122023095D02*
X197265380Y-122023095D01*
X197265380Y-121642142D01*
X197313000Y-121546904D01*
X197360619Y-121499285D01*
X197455857Y-121451666D01*
X197598714Y-121451666D01*
X197693952Y-121499285D01*
X197741571Y-121546904D01*
X197789190Y-121642142D01*
X197789190Y-122023095D01*
X198265380Y-120499285D02*
X198265380Y-121070714D01*
X198265380Y-120785000D02*
X197265380Y-120785000D01*
X197408238Y-120880238D01*
X197503476Y-120975476D01*
X197551095Y-121070714D01*
G04 #@! TO.C,R2*
X202816380Y-121451666D02*
X202340190Y-121785000D01*
X202816380Y-122023095D02*
X201816380Y-122023095D01*
X201816380Y-121642142D01*
X201864000Y-121546904D01*
X201911619Y-121499285D01*
X202006857Y-121451666D01*
X202149714Y-121451666D01*
X202244952Y-121499285D01*
X202292571Y-121546904D01*
X202340190Y-121642142D01*
X202340190Y-122023095D01*
X201911619Y-121070714D02*
X201864000Y-121023095D01*
X201816380Y-120927857D01*
X201816380Y-120689761D01*
X201864000Y-120594523D01*
X201911619Y-120546904D01*
X202006857Y-120499285D01*
X202102095Y-120499285D01*
X202244952Y-120546904D01*
X202816380Y-121118333D01*
X202816380Y-120499285D01*
G04 #@! TO.C,R3*
X189825333Y-111376380D02*
X189492000Y-110900190D01*
X189253904Y-111376380D02*
X189253904Y-110376380D01*
X189634857Y-110376380D01*
X189730095Y-110424000D01*
X189777714Y-110471619D01*
X189825333Y-110566857D01*
X189825333Y-110709714D01*
X189777714Y-110804952D01*
X189730095Y-110852571D01*
X189634857Y-110900190D01*
X189253904Y-110900190D01*
X190158666Y-110376380D02*
X190777714Y-110376380D01*
X190444380Y-110757333D01*
X190587238Y-110757333D01*
X190682476Y-110804952D01*
X190730095Y-110852571D01*
X190777714Y-110947809D01*
X190777714Y-111185904D01*
X190730095Y-111281142D01*
X190682476Y-111328761D01*
X190587238Y-111376380D01*
X190301523Y-111376380D01*
X190206285Y-111328761D01*
X190158666Y-111281142D01*
G04 #@! TO.C,R4*
X189825333Y-106952380D02*
X189492000Y-106476190D01*
X189253904Y-106952380D02*
X189253904Y-105952380D01*
X189634857Y-105952380D01*
X189730095Y-106000000D01*
X189777714Y-106047619D01*
X189825333Y-106142857D01*
X189825333Y-106285714D01*
X189777714Y-106380952D01*
X189730095Y-106428571D01*
X189634857Y-106476190D01*
X189253904Y-106476190D01*
X190682476Y-106285714D02*
X190682476Y-106952380D01*
X190444380Y-105904761D02*
X190206285Y-106619047D01*
X190825333Y-106619047D01*
G04 #@! TO.C,R5*
X183983333Y-112339380D02*
X183650000Y-111863190D01*
X183411904Y-112339380D02*
X183411904Y-111339380D01*
X183792857Y-111339380D01*
X183888095Y-111387000D01*
X183935714Y-111434619D01*
X183983333Y-111529857D01*
X183983333Y-111672714D01*
X183935714Y-111767952D01*
X183888095Y-111815571D01*
X183792857Y-111863190D01*
X183411904Y-111863190D01*
X184888095Y-111339380D02*
X184411904Y-111339380D01*
X184364285Y-111815571D01*
X184411904Y-111767952D01*
X184507142Y-111720333D01*
X184745238Y-111720333D01*
X184840476Y-111767952D01*
X184888095Y-111815571D01*
X184935714Y-111910809D01*
X184935714Y-112148904D01*
X184888095Y-112244142D01*
X184840476Y-112291761D01*
X184745238Y-112339380D01*
X184507142Y-112339380D01*
X184411904Y-112291761D01*
X184364285Y-112244142D01*
G04 #@! TO.C,U1*
X171958095Y-116252380D02*
X171958095Y-117061904D01*
X172005714Y-117157142D01*
X172053333Y-117204761D01*
X172148571Y-117252380D01*
X172339047Y-117252380D01*
X172434285Y-117204761D01*
X172481904Y-117157142D01*
X172529523Y-117061904D01*
X172529523Y-116252380D01*
X173529523Y-117252380D02*
X172958095Y-117252380D01*
X173243809Y-117252380D02*
X173243809Y-116252380D01*
X173148571Y-116395238D01*
X173053333Y-116490476D01*
X172958095Y-116538095D01*
G04 #@! TO.C,Q1*
X166657619Y-105505238D02*
X166610000Y-105600476D01*
X166514761Y-105695714D01*
X166371904Y-105838571D01*
X166324285Y-105933809D01*
X166324285Y-106029047D01*
X166562380Y-105981428D02*
X166514761Y-106076666D01*
X166419523Y-106171904D01*
X166229047Y-106219523D01*
X165895714Y-106219523D01*
X165705238Y-106171904D01*
X165610000Y-106076666D01*
X165562380Y-105981428D01*
X165562380Y-105790952D01*
X165610000Y-105695714D01*
X165705238Y-105600476D01*
X165895714Y-105552857D01*
X166229047Y-105552857D01*
X166419523Y-105600476D01*
X166514761Y-105695714D01*
X166562380Y-105790952D01*
X166562380Y-105981428D01*
X166562380Y-104600476D02*
X166562380Y-105171904D01*
X166562380Y-104886190D02*
X165562380Y-104886190D01*
X165705238Y-104981428D01*
X165800476Y-105076666D01*
X165848095Y-105171904D01*
G04 #@! TD*
M02*
